<svg xmlns="http://www.w3.org/2000/svg" xmlns:xlink="http://www.w3.org/1999/xlink" viewBox="0 0 45.02 94.65"><defs><style>.cls-1{fill:none;}.cls-2{fill:url(#linear-gradient);}.cls-3{fill:url(#linear-gradient-2);}.cls-4{clip-path:url(#clip-path);}.cls-5{fill:#d75865;}.cls-6{fill:#d75864;}.cls-7{fill:#d65863;}.cls-8{fill:#d65862;}.cls-9{fill:#d55861;}.cls-10{fill:#d55860;}.cls-11{fill:#d4585f;}.cls-12{fill:#d4585e;}.cls-13{fill:#d3585d;}.cls-14{fill:#d3585c;}.cls-15{fill:#d3585b;}.cls-16{fill:#d2585a;}.cls-17{fill:#d25859;}.cls-18{fill:#d15858;}.cls-19{fill:#d15857;}.cls-20{fill:#d05856;}.cls-21{fill:#d05855;}.cls-22{fill:#cf5854;}.cls-23{fill:#cf5853;}.cls-24{fill:#ce5852;}.cls-25{fill:#ce5851;}.cls-26{fill:#ce5850;}.cls-27{fill:#cd584f;}.cls-28{fill:#cd584e;}.cls-29{fill:#cc584d;}.cls-30{fill:#cc584c;}.cls-31{fill:#cb584b;}.cls-32{fill:#cb584a;}.cls-33{fill:#ca5849;}.cls-34{fill:#ca5848;}.cls-35{fill:#ca5846;}.cls-36{fill:#c95845;}.cls-37{fill:#c95844;}.cls-38{fill:#c85843;}.cls-39{fill:#c85842;}.cls-40{fill:#c75841;}.cls-41{fill:#c75840;}.cls-42{fill:#c6583f;}.cls-43{fill:#c6583e;}.cls-44{fill:#c6583d;}.cls-45{fill:#c5583c;}.cls-46{fill:#c5583b;}.cls-47{fill:#c4583a;}.cls-48{fill:#c45839;}.cls-49{fill:#c35838;}.cls-50{fill:#c35837;}.cls-51{fill:#c25836;}.cls-52{fill:#c25835;}.cls-53{fill:#c15834;}.cls-54{fill:#c15833;}.cls-55{fill:#c15832;}.cls-56{fill:#c05831;}.cls-57{fill:#c05830;}.cls-58{fill:#bf582f;}.cls-59{fill:#bf582e;}.cls-60{fill:#be582d;}.cls-61{fill:#be582c;}.cls-62{fill:#bd582b;}.cls-63{fill:#bd582a;}.cls-64{fill:#bf5a29;}.cls-65{fill:#c15d29;}.cls-66{fill:#c35f28;}.cls-67{fill:#c56227;}.cls-68{fill:#c76427;}.cls-69{fill:#c96626;}.cls-70{fill:#cb6826;}.cls-71{fill:#cd6a25;}.cls-72{fill:#cf6c24;}.cls-73{fill:#d06e24;}.cls-74{fill:#d27023;}.cls-75{fill:#d47223;}.cls-76{fill:#d57422;}.cls-77{fill:#d77622;}.cls-78{fill:#d87821;}.cls-79{fill:#da7a21;}.cls-80{fill:#db7c20;}.cls-81{fill:#dd7d20;}.cls-82{fill:#de7f1f;}.cls-83{fill:#e0811f;}.cls-84{fill:#e1821f;}.cls-85{fill:#e2841e;}.cls-86{fill:#e4851e;}.cls-87{fill:#e5871d;}.cls-88{fill:#e6881d;}.cls-89{fill:#e7891d;}.cls-90{fill:#e88b1c;}.cls-91{fill:#ea8c1c;}.cls-92{fill:#eb8d1b;}.cls-93{fill:#ec8e1b;}.cls-94{fill:#ed901b;}.cls-95{fill:#ee911b;}.cls-96{fill:#ef921a;}.cls-97{fill:#f0931a;}.cls-98{fill:#f0941a;}.cls-99{fill:#f19519;}.cls-100{fill:#f29619;}.cls-101{fill:#f39719;}.cls-102{fill:#f49819;}.cls-103{fill:#f49918;}.cls-104{fill:#f59918;}.cls-105{fill:#f69a18;}.cls-106{fill:#f69b18;}.cls-107{fill:#f79c18;}.cls-108{fill:#f89c17;}.cls-109{fill:#f89d17;}.cls-110{fill:#f99e17;}.cls-111{fill:#fa9f17;}.cls-112{fill:#fba016;}.cls-113{fill:#fba116;}.cls-114{clip-path:url(#clip-path-115);}.cls-115{fill:#fca116;}.cls-116{fill:#fca216;}.cls-117{fill:#fda216;}.cls-118{fill:#fda316;}.cls-119{fill:#fea315;}.cls-120{fill:#fea415;}.cls-121{fill:#ffa415;}.cls-122{fill:#ffa515;}.cls-123{fill:url(#linear-gradient-3);}.cls-124{fill:url(#linear-gradient-4);}.cls-125{fill:#fff;}.cls-125,.cls-128,.cls-129,.cls-130,.cls-132{isolation:isolate;}.cls-125,.cls-128,.cls-130,.cls-132{opacity:0.5;}.cls-126{fill:#baffff;}.cls-127{fill:#ffeab8;}.cls-128{fill:#ab2781;}.cls-129,.cls-130{fill:#c9455b;}.cls-129{opacity:0.3;}.cls-131{fill:#c94027;}.cls-132{fill:#af5b66;}.cls-133{fill:#ffb551;}</style><linearGradient id="linear-gradient" x1="0.26" y1="27.33" x2="45.89" y2="27.33" gradientTransform="matrix(0.93, 0, 0, -1, 1.64, 78.47)" gradientUnits="userSpaceOnUse"><stop offset="0.01" stop-color="#b84789"/><stop offset="0.25" stop-color="#932b1d"/><stop offset="0.29" stop-color="#9e331b"/><stop offset="0.41" stop-color="#bc4916"/><stop offset="0.53" stop-color="#d35a13"/><stop offset="0.67" stop-color="#e46610"/><stop offset="0.81" stop-color="#ee6e0e"/><stop offset="1" stop-color="#f1700e"/></linearGradient><linearGradient id="linear-gradient-2" x1="1.9" y1="49.96" x2="44.35" y2="49.96" gradientTransform="matrix(1, 0, 0, -1, 0, 78.47)" gradientUnits="userSpaceOnUse"><stop offset="0" stop-color="#ff920e"/><stop offset="0.22" stop-color="#f9864b"/><stop offset="0.27" stop-color="#fa8843"/><stop offset="0.42" stop-color="#fc8c2c"/><stop offset="0.59" stop-color="#fe8f1b"/><stop offset="0.77" stop-color="#ff9111"/><stop offset="1" stop-color="#ff920e"/></linearGradient><clipPath id="clip-path" transform="translate(0 7.93)"><path class="cls-1" d="M4.05,28.51S4.87,0,23.12,0,42,28.51,42,28.51s-2.88,3.21-18.79,3.21S4.05,28.51,4.05,28.51Z"/></clipPath><clipPath id="clip-path-115" transform="translate(0 7.93)"><path class="cls-1" d="M43.1,39.3s-28.5-1-28.36-19.3S43.4,1.4,43.4,1.4s3.19,2.91,3.06,18.82S43.1,39.3,43.1,39.3Z"/></clipPath><linearGradient id="linear-gradient-3" x1="0.12" y1="1.19" x2="44.42" y2="1.19" xlink:href="#linear-gradient-2"/><linearGradient id="linear-gradient-4" x1="0" y1="-3.63" x2="45.02" y2="-3.63" gradientTransform="matrix(1, 0, 0, -1, 0, 78.47)" xlink:href="#linear-gradient"/></defs><g id="Layer_2" data-name="Layer 2"><g id="Layer_1-2" data-name="Layer 1"><path class="cls-2" d="M4.08,73.61s-2.3-39.35-2.19-45,41.85-4.45,42.45,0-2.48,45.08-2.48,45.08a46.15,46.15,0,0,1-18.7,3.79A48.33,48.33,0,0,1,4.08,73.61Z" transform="translate(0 7.93)"/><path class="cls-3" d="M1.9,28.6c.15,5.95,42.31,6,42.45,0S1.74,22.17,1.9,28.6Z" transform="translate(0 7.93)"/><g class="cls-4"><rect class="cls-5" x="4.05" y="7.93" width="37.9" height="31.72"/></g><g class="cls-4"><polygon class="cls-5" points="3.05 21.95 3.05 6.93 42.95 6.93 42.95 40.65 3.05 40.65 3.05 21.95"/></g><g class="cls-4"><polygon class="cls-6" points="3.05 21.95 3.05 6.93 42.95 6.93 42.95 40.65 3.05 40.65 3.05 21.95"/></g><g class="cls-4"><polygon class="cls-7" points="3.05 21.95 3.05 6.93 42.95 6.93 42.95 40.65 3.05 40.65 3.05 21.95"/></g><g class="cls-4"><polygon class="cls-8" points="3.05 21.95 3.05 6.93 42.95 6.93 42.95 40.65 3.05 40.65 3.05 21.95"/></g><g class="cls-4"><polygon class="cls-9" points="3.05 21.95 3.05 6.93 42.95 6.93 42.95 40.65 3.05 40.65 3.05 21.95"/></g><g class="cls-4"><path class="cls-10" d="M2.47,14c0-6.39.29-12.63.69-18.65V-1H43V32.72H3.12v4.45c-.1-1.48-.18-3-.26-4.48h.19V14H2.47Z" transform="translate(0 7.93)"/></g><g class="cls-4"><path class="cls-11" d="M2.62,14c0-6.35.29-12.56.69-18.55V-1H43V32.71H3.27V37c-.1-1.47-.18-3-.26-4.46h0V14Z" transform="translate(0 7.93)"/></g><g class="cls-4"><path class="cls-12" d="M2.77,14c0-6.32.28-12.48.68-18.44V-1H42.94V32.73H3.41v4.19c-.1-1.46-.18-2.94-.26-4.43C2.86,26.51,2.72,20.34,2.77,14Z" transform="translate(0 7.93)"/></g><g class="cls-4"><path class="cls-13" d="M2.93,14c0-6.28.28-12.41.68-18.33V-1H43V32.73H3.56v4.05c-.1-1.45-.18-2.92-.26-4.4C3,26.44,2.88,20.31,2.93,14Z" transform="translate(0 7.93)"/></g><g class="cls-4"><path class="cls-14" d="M3.08,14c0-6.24.28-12.34.67-18.23V-1H43V32.72H3.71v3.92c-.09-1.45-.18-2.91-.25-4.38C3.16,26.37,3,20.27,3.08,14Z" transform="translate(0 7.93)"/></g><g class="cls-4"><path class="cls-15" d="M3.23,14c0-6.21.28-12.27.67-18.12V-1H43V32.72H3.86v3.79c-.09-1.44-.18-2.89-.25-4.35C3.31,26.3,3.18,20.24,3.23,14Z" transform="translate(0 7.93)"/></g><g class="cls-4"><path class="cls-16" d="M3.38,14c.05-6.17.28-12.2.67-18v3H43V32.72H4v3.66c-.09-1.43-.18-2.87-.25-4.33C3.46,26.23,3.33,20.2,3.38,14Z" transform="translate(0 7.93)"/></g><g class="cls-4"><path class="cls-17" d="M3.53,14c.05-6.13.28-12.12.66-17.91V-1H42.94V32.72H4.16v3.53C4.07,34.83,4,33.4,3.91,32,3.61,26.16,3.48,20.17,3.53,14Z" transform="translate(0 7.93)"/></g><g class="cls-4"><path class="cls-18" d="M3.69,14c.05-6.1.27-12,.66-17.8V-1H43V32.72H4.31v3.4c-.09-1.41-.18-2.84-.25-4.28C3.77,26.09,3.64,20.13,3.69,14Z" transform="translate(0 7.93)"/></g><g class="cls-4"><path class="cls-19" d="M3.84,14c.05-6.06.27-12,.65-17.69V-1H43V32.72H4.46V36c-.09-1.4-.17-2.82-.25-4.25C3.92,26,3.79,20.1,3.84,14Z" transform="translate(0 7.93)"/></g><g class="cls-4"><path class="cls-20" d="M4,14c0-6,.27-11.91.65-17.58V-1H43V32.73H4.6v3.13c-.09-1.4-.17-2.8-.25-4.22C4.07,25.94,3.94,20.06,4,14Z" transform="translate(0 7.93)"/></g><g class="cls-4"><path class="cls-21" d="M4.14,14c.05-6,.27-11.83.65-17.48V-1H43V32.72H4.75v3q-.13-2.09-.24-4.2C4.22,25.87,4.09,20,4.14,14Z" transform="translate(0 7.93)"/></g><g class="cls-4"><path class="cls-22" d="M4.29,14c0-5.95.27-11.76.64-17.37V-1h38V32.72H5.19v7q-.33-4-.54-8.27C4.37,25.8,4.25,20,4.29,14Z" transform="translate(0 7.93)"/></g><g class="cls-4"><path class="cls-23" d="M4.45,14c0-5.92.27-11.69.64-17.26V-1H43V32.73H5.35v6.81c-.22-2.68-.4-5.43-.54-8.22C4.52,25.73,4.4,20,4.45,14Z" transform="translate(0 7.93)"/></g><g class="cls-4"><path class="cls-24" d="M4.6,14c.05-5.88.26-11.62.63-17.16V-1H43V32.72H5.49v6.65q-.33-4-.54-8.17C4.68,25.66,4.55,19.92,4.6,14Z" transform="translate(0 7.93)"/></g><g class="cls-4"><path class="cls-25" d="M4.75,14C4.8,8.2,5,2.5,5.38-3v2H43V32.72H5.64v6.5c-.21-2.65-.39-5.36-.53-8.11C4.83,25.59,4.7,19.88,4.75,14Z" transform="translate(0 7.93)"/></g><g class="cls-4"><path class="cls-26" d="M4.9,14c0-5.81.26-11.47.63-16.94V-1H43V32.72H5.79v6.34q-.32-4-.53-8.06C5,25.52,4.86,19.85,4.9,14Z" transform="translate(0 7.93)"/></g><g class="cls-4"><path class="cls-27" d="M5.05,14c0-5.77.26-11.4.62-16.84V-1H42.94V32.71h-37v6.18q-.31-3.93-.53-8C5.13,25.45,5,19.81,5.05,14Z" transform="translate(0 7.93)"/></g><g class="cls-4"><path class="cls-28" d="M5.21,14.05c0-5.73.26-11.33.62-16.73V-1H43V32.73H6.08v6c-.21-2.6-.39-5.26-.52-8Q5.14,22.66,5.21,14.05Z" transform="translate(0 7.93)"/></g><g class="cls-4"><path class="cls-29" d="M5.36,14.05c0-5.7.26-11.25.61-16.62V-1H43V32.73H6.23V38.6C6,36,5.85,33.38,5.71,30.69,5.43,25.3,5.31,19.74,5.36,14.05Z" transform="translate(0 7.93)"/></g><g class="cls-4"><path class="cls-30" d="M5.51,14.05c0-5.66.25-11.18.61-16.52V-1H43V32.72H6.37v5.71q-.32-3.85-.52-7.86C5.59,25.23,5.47,19.71,5.51,14.05Z" transform="translate(0 7.93)"/></g><g class="cls-4"><path class="cls-31" d="M5.66,14.05c0-5.62.25-11.11.61-16.41V-1H43V32.72H6.52v5.56c-.21-2.55-.38-5.16-.51-7.81C5.74,25.16,5.62,19.67,5.66,14.05Z" transform="translate(0 7.93)"/></g><g class="cls-4"><path class="cls-32" d="M5.82,14.05c0-5.59.25-11,.6-16.3V-1H43V32.72H6.66v5.4c-.21-2.54-.38-5.12-.51-7.76C5.89,25.09,5.77,19.64,5.82,14.05Z" transform="translate(0 7.93)"/></g><g class="cls-4"><path class="cls-33" d="M6,14.05c0-5.55.25-11,.6-16.2V-1H43V32.72H6.81V38q-.3-3.78-.51-7.71C6,25,5.92,19.6,6,14.05Z" transform="translate(0 7.93)"/></g><g class="cls-4"><path class="cls-34" d="M6.12,14.05c0-5.51.25-10.89.59-16.09v1H42.94V32.72H7v5.09c-.2-2.5-.37-5.06-.5-7.66C6.19,25,6.07,19.56,6.12,14.05Z" transform="translate(0 7.93)"/></g><g class="cls-4"><path class="cls-35" d="M6.27,14.05c0-5.48.25-10.82.59-16V-1H43V32.72H7.11v4.93c-.2-2.49-.37-5-.5-7.61C6.34,24.88,6.23,19.53,6.27,14.05Z" transform="translate(0 7.93)"/></g><g class="cls-4"><path class="cls-36" d="M6.42,14.05c0-5.44.24-10.75.59-15.87V-1H43V32.72H7.25v4.77q-.3-3.7-.5-7.55C6.49,24.81,6.38,19.49,6.42,14.05Z" transform="translate(0 7.93)"/></g><g class="cls-4"><path class="cls-37" d="M6.58,14.06c0-5.4.24-10.68.58-15.77V-1H43V32.72H7.4v4.62c-.2-2.45-.36-5-.49-7.5C6.65,24.73,6.53,19.46,6.58,14.06Z" transform="translate(0 7.93)"/></g><g class="cls-4"><path class="cls-38" d="M6.73,14.06c0-5.37.24-10.6.58-15.66V-1H43V32.73H7.54v4.46q-.3-3.66-.49-7.45C6.8,24.66,6.68,19.42,6.73,14.06Z" transform="translate(0 7.93)"/></g><g class="cls-4"><path class="cls-39" d="M6.88,14.06c0-5.33.24-10.53.57-15.55V-1H42.94V32.73H7.68V37q-.3-3.63-.49-7.4C7,24.59,6.84,19.39,6.88,14.06Z" transform="translate(0 7.93)"/></g><g class="cls-4"><path class="cls-40" d="M7,14.06c0-5.29.24-10.46.57-15.45V-1H43V32.72H7.84v4.15c-.19-2.4-.36-4.85-.48-7.35C7.1,24.52,7,19.35,7,14.06Z" transform="translate(0 7.93)"/></g><g class="cls-4"><path class="cls-41" d="M7.18,14.06c0-5.26.24-10.39.57-15.34V-1H43V32.72H8v4q-.29-3.59-.48-7.3C7.25,24.45,7.14,19.32,7.18,14.06Z" transform="translate(0 7.93)"/></g><g class="cls-4"><path class="cls-42" d="M7.34,14.06c0-5.22.23-10.31.56-15.23V-1H43V32.72H8.13v3.83Q7.85,33,7.65,29.3C7.4,24.38,7.29,19.28,7.34,14.06Z" transform="translate(0 7.93)"/></g><g class="cls-4"><path class="cls-43" d="M7.49,14.06c0-5.18.23-10.24.56-15.13V-1H43V32.71H8.28v3.68q-.28-3.53-.47-7.2C7.56,24.31,7.45,19.25,7.49,14.06Z" transform="translate(0 7.93)"/></g><g class="cls-4"><path class="cls-44" d="M7.64,14.06c0-5.15.23-10.17.55-15q.12-1.81.27-3.6V-1H43V32.72H8.42v3.52Q8.14,32.73,8,29.09C7.71,24.24,7.6,19.21,7.64,14.06Z" transform="translate(0 7.93)"/></g><g class="cls-4"><path class="cls-45" d="M7.79,14.07C7.83,9,8,4,8.34-.84q.24-3.61.58-7.09V-1H43V32.73H8.57v3.36c-.19-2.32-.34-4.69-.47-7.1C7.86,24.17,7.75,19.18,7.79,14.07Z" transform="translate(0 7.93)"/></g><g class="cls-4"><path class="cls-46" d="M7.94,14.07C8,9,8.17,4.05,8.49-.74q.24-3.58.58-7V-1H43V32.72H8.72v3.21q-.29-3.45-.46-7C8,24.09,7.9,19.14,7.94,14.07Z" transform="translate(0 7.93)"/></g><g class="cls-4"><path class="cls-47" d="M8.1,14.07c0-5,.23-9.95.54-14.7q.24-3.56.57-7V-1H43V32.72H8.86v3.05q-.29-3.44-.46-7C8.16,24,8.06,19.1,8.1,14.07Z" transform="translate(0 7.93)"/></g><g class="cls-4"><path class="cls-48" d="M8.25,14.07c0-5,.22-9.88.54-14.59Q9-4.06,9.36-7.46V-1H43V32.72H9v2.89c-.18-2.27-.34-4.59-.46-6.94C8.31,24,8.21,19.07,8.25,14.07Z" transform="translate(0 7.93)"/></g><g class="cls-4"><path class="cls-49" d="M8.4,14.07c0-5,.22-9.81.54-14.49.16-2.34.34-4.64.56-6.89V-1H43V32.71H9.16v2.74q-.27-3.37-.45-6.89C8.47,23.88,8.36,19,8.4,14.07Z" transform="translate(0 7.93)"/></g><g class="cls-4"><path class="cls-50" d="M8.55,14.07c0-4.93.22-9.74.53-14.38q.22-3.48.56-6.83V-1H43V32.72H9.3V35.3Q9,31.94,8.85,28.46C8.62,23.81,8.51,19,8.55,14.07Z" transform="translate(0 7.93)"/></g><g class="cls-4"><path class="cls-51" d="M8.7,14.07c0-4.89.22-9.66.53-14.27.15-2.3.34-4.57.55-6.78v6H42.94V32.72H9.44v2.43c-.18-2.22-.33-4.49-.45-6.79C8.77,23.74,8.66,19,8.7,14.07Z" transform="translate(0 7.93)"/></g><g class="cls-4"><path class="cls-52" d="M8.86,14.07c0-4.85.22-9.59.52-14.16.15-2.29.34-4.53.55-6.73V-1H43V32.72H9.6V35q-.27-3.3-.44-6.74C8.92,23.67,8.82,18.93,8.86,14.07Z" transform="translate(0 7.93)"/></g><g class="cls-4"><path class="cls-53" d="M9,14.08c0-4.82.22-9.52.52-14.06q.22-3.4.55-6.68V-1H43V32.73H9.74v2.11c-.18-2.19-.32-4.42-.44-6.69C9.07,23.6,9,18.89,9,14.08Z" transform="translate(0 7.93)"/></g><g class="cls-4"><path class="cls-54" d="M9.16,14.08c0-4.78.21-9.45.52-13.95q.23-3.37.54-6.63V-1H43V32.73H9.89v2c-.18-2.17-.32-4.38-.44-6.64Q9.11,21.26,9.16,14.08Z" transform="translate(0 7.93)"/></g><g class="cls-4"><path class="cls-55" d="M9.31,14.08c0-4.74.21-9.37.51-13.84q.23-3.36.54-6.58V-1H43V32.73H10v1.8c-.17-2.15-.32-4.35-.43-6.59C9.37,23.45,9.27,18.82,9.31,14.08Z" transform="translate(0 7.93)"/></g><g class="cls-4"><path class="cls-56" d="M9.46,14.08c0-4.71.21-9.3.51-13.74q.22-3.33.53-6.53V-1H42.94V32.72H10.17v1.64C10,32.22,9.85,30,9.74,27.82,9.53,23.38,9.43,18.79,9.46,14.08Z" transform="translate(0 7.93)"/></g><g class="cls-4"><path class="cls-57" d="M9.62,14.08c0-4.67.21-9.23.5-13.63.15-2.2.32-4.36.53-6.48v5H43V32.72H10.33v1.49Q10.07,31,9.9,27.72C9.68,23.31,9.58,18.75,9.62,14.08Z" transform="translate(0 7.93)"/></g><g class="cls-4"><path class="cls-58" d="M9.77,14.08c0-4.63.21-9.16.5-13.52.15-2.18.32-4.33.53-6.43V-1H43V32.72H10.47v1.33q-.26-3.15-.42-6.44C9.83,23.24,9.73,18.72,9.77,14.08Z" transform="translate(0 7.93)"/></g><g class="cls-4"><path class="cls-59" d="M9.92,14.08q.06-6.9.5-13.42c.14-2.17.32-4.29.52-6.38V-1H43V32.71H10.62v1.17q-.26-3.14-.42-6.39C10,23.17,9.88,18.68,9.92,14.08Z" transform="translate(0 7.93)"/></g><g class="cls-4"><path class="cls-60" d="M10.07,14.08c0-4.56.2-9,.49-13.31.14-2.15.32-4.26.52-6.33V-1H43V32.71H10.77v1q-.25-3.1-.42-6.33C10.13,23.1,10,18.64,10.07,14.08Z" transform="translate(0 7.93)"/></g><g class="cls-4"><path class="cls-61" d="M10.22,14.09c0-4.52.2-8.94.49-13.2.14-2.13.31-4.23.51-6.28V-1H42.94V32.72H11.49v6.89A215.85,215.85,0,0,1,10.22,14.09Z" transform="translate(0 7.93)"/></g><g class="cls-4"><path class="cls-62" d="M10.38,14.09c0-4.49.2-8.87.48-13.1q.21-3.17.51-6.23V-1H43V32.72H11.64V39.4A210.34,210.34,0,0,1,10.38,14.09Z" transform="translate(0 7.93)"/></g><g class="cls-4"><path class="cls-63" d="M10.53,14.09c0-4.45.2-8.79.48-13q.21-3.15.51-6.17V-1H43V32.73H11.78V39.2A211.27,211.27,0,0,1,10.53,14.09Z" transform="translate(0 7.93)"/></g><g class="cls-4"><path class="cls-63" d="M10.68,14.09c0-4.41.2-8.72.48-12.88q.21-3.12.5-6.12V-1H43V32.73h-31V39A208,208,0,0,1,10.68,14.09Z" transform="translate(0 7.93)"/></g><g class="cls-4"><path class="cls-64" d="M10.92,14.09c0-4.36.2-8.61.47-12.71.14-2,.3-4.07.49-6V-1H43V32.73H12.14v6A207.11,207.11,0,0,1,10.92,14.09Z" transform="translate(0 7.93)"/></g><g class="cls-4"><path class="cls-65" d="M11.16,14.09c0-4.3.19-8.5.46-12.55q.21-3,.49-6V-1H43V32.72H12.36v5.63A203.7,203.7,0,0,1,11.16,14.09Z" transform="translate(0 7.93)"/></g><g class="cls-4"><path class="cls-66" d="M11.39,14.09c0-4.24.19-8.38.46-12.38q.2-3,.48-5.89V-1H42.94V32.71H12.58V38A202.15,202.15,0,0,1,11.39,14.09Z" transform="translate(0 7.93)"/></g><g class="cls-4"><path class="cls-67" d="M11.63,14.1c0-4.18.19-8.27.45-12.21q.2-3,.48-5.81V-1H43V32.72H12.81v5A199.15,199.15,0,0,1,11.63,14.1Z" transform="translate(0 7.93)"/></g><g class="cls-4"><path class="cls-68" d="M11.87,14.1c0-4.13.19-8.16.45-12,.13-1.94.29-3.86.47-5.73V-1H43V32.71H13v4.66A193.75,193.75,0,0,1,11.87,14.1Z" transform="translate(0 7.93)"/></g><g class="cls-4"><path class="cls-69" d="M12.11,14.1c0-4.07.18-8,.44-11.88q.19-2.88.46-5.65V-1H43V32.72H13.25v4.34A190.91,190.91,0,0,1,12.11,14.1Z" transform="translate(0 7.93)"/></g><g class="cls-4"><path class="cls-70" d="M12.35,14.1c0-4,.18-7.93.43-11.71q.2-2.83.46-5.57V-1H43V32.72H13.48v4A187.71,187.71,0,0,1,12.35,14.1Z" transform="translate(0 7.93)"/></g><g class="cls-4"><path class="cls-71" d="M12.59,14.1c0-4,.18-7.82.43-11.54q.18-2.79.45-5.49V-1H43V32.72H13.71v3.7A182.6,182.6,0,0,1,12.59,14.1Z" transform="translate(0 7.93)"/></g><g class="cls-4"><path class="cls-72" d="M12.82,14.11a184.13,184.13,0,0,1,1.45-22V-1H43V32.72h-29V36.1A183.6,183.6,0,0,1,12.82,14.11Z" transform="translate(0 7.93)"/></g><g class="cls-4"><path class="cls-73" d="M13.06,14.11A180.82,180.82,0,0,1,14.49-7.53V-1H43V32.73H14.14v3.05A182.58,182.58,0,0,1,13.06,14.11Z" transform="translate(0 7.93)"/></g><g class="cls-4"><path class="cls-74" d="M13.3,14.11A177.82,177.82,0,0,1,14.71-7.21V-1H43V32.72H14.36v2.73A179.16,179.16,0,0,1,13.3,14.11Z" transform="translate(0 7.93)"/></g><g class="cls-4"><path class="cls-75" d="M13.54,14.11a174.82,174.82,0,0,1,1.39-21V-1H43V32.72H14.6v2.41A171.89,171.89,0,0,1,13.54,14.11Z" transform="translate(0 7.93)"/></g><g class="cls-4"><path class="cls-76" d="M13.78,14.11A174,174,0,0,1,15.14-6.57V-1H43V14.35h1.3A174,174,0,0,1,42.89,35V32.71H14.81V34.8A172.77,172.77,0,0,1,13.78,14.11Z" transform="translate(0 7.93)"/></g><g class="cls-4"><path class="cls-77" d="M14,14.12A170.67,170.67,0,0,1,15.35-6.23V-1H42.94V14.37H44a170.67,170.67,0,0,1-1.34,20.35v-2H15V34.5A174.4,174.4,0,0,1,14,14.12Z" transform="translate(0 7.93)"/></g><g class="cls-4"><path class="cls-78" d="M14.25,14.12a167.53,167.53,0,0,1,1.32-20V-1h27.2V-5.69a166.65,166.65,0,0,1,1,20.05,167.53,167.53,0,0,1-1.32,20V32.72H15.25v1.45A166.65,166.65,0,0,1,14.25,14.12Z" transform="translate(0 7.93)"/></g><g class="cls-4"><path class="cls-79" d="M14.49,14.12a166.78,166.78,0,0,1,1.3-19.71V-1H42.55V-5.37a163.47,163.47,0,0,1,1,19.72,166.78,166.78,0,0,1-1.3,19.71V32.72H15.47v1.13A165.72,165.72,0,0,1,14.49,14.12Z" transform="translate(0 7.93)"/></g><g class="cls-4"><path class="cls-80" d="M14.73,14.12A163.31,163.31,0,0,1,16-5.26V-1H42.33V-5a164.46,164.46,0,0,1,1,19.4A163.31,163.31,0,0,1,42,33.73v-1H15.7v.8A159.9,159.9,0,0,1,14.73,14.12Z" transform="translate(0 7.93)"/></g><g class="cls-4"><path class="cls-81" d="M15,14.12A158.37,158.37,0,0,1,16.23-4.94V-1H42.11V-4.73a161.32,161.32,0,0,1,1,19.08A158.37,158.37,0,0,1,41.8,33.41v-.69H15.92v.48A157.17,157.17,0,0,1,15,14.12Z" transform="translate(0 7.93)"/></g><g class="cls-4"><path class="cls-82" d="M15.2,14.13A155.24,155.24,0,0,1,16.44-4.61V-1H41.88V-4.41a156.14,156.14,0,0,1,.93,18.75,155.24,155.24,0,0,1-1.24,18.74v-.37H16.13v.16A160.1,160.1,0,0,1,15.2,14.13Z" transform="translate(0 7.93)"/></g><g class="cls-4"><path class="cls-83" d="M15.44,14.13A154.07,154.07,0,0,1,16.65-4.28V-1h25V-4.08a155,155,0,0,1,.92,18.43,154.07,154.07,0,0,1-1.21,18.41v0H16.89v4q-.3-2-.54-4.14A157.25,157.25,0,0,1,15.44,14.13Z" transform="translate(0 7.93)"/></g><g class="cls-4"><path class="cls-84" d="M15.68,14.13A151.07,151.07,0,0,1,16.87-4v3H41.44V-3.77a151.89,151.89,0,0,1,.9,18.11,151.07,151.07,0,0,1-1.19,18.09c-.18,1.39-.38,2.74-.59,4.06V32.71H17.12V36.3c-.19-1.32-.37-2.68-.53-4.07A149.46,149.46,0,0,1,15.68,14.13Z" transform="translate(0 7.93)"/></g><g class="cls-4"><path class="cls-85" d="M15.92,14.13A150,150,0,0,1,17.09-3.64V-1H41.22V-3.44a148.62,148.62,0,0,1,.89,17.78,150,150,0,0,1-1.17,17.77c-.18,1.36-.37,2.7-.58,4V32.72H18v7c-.45-2.43-.84-5-1.14-7.77A146.27,146.27,0,0,1,15.92,14.13Z" transform="translate(0 7.93)"/></g><g class="cls-4"><path class="cls-86" d="M16.16,14.13A146.71,146.71,0,0,1,17.31-3.31V-1H41V-3.12a145.5,145.5,0,0,1,.87,17.46,146.71,146.71,0,0,1-1.15,17.44c-.35,2.68-.77,5.23-1.25,7.61V32.72H18.15v6.5c-.44-2.39-.82-4.94-1.12-7.63A145.5,145.5,0,0,1,16.16,14.13Z" transform="translate(0 7.93)"/></g><g class="cls-4"><path class="cls-87" d="M16.39,14.14A143.7,143.7,0,0,1,17.52-3v2H40.77v-1.8a142.38,142.38,0,0,1,.85,17.14,143.7,143.7,0,0,1-1.13,17.12c-.34,2.63-.75,5.13-1.22,7.47V32.73H18.35v6c-.43-2.34-.81-4.85-1.1-7.48A142.79,142.79,0,0,1,16.39,14.14Z" transform="translate(0 7.93)"/></g><g class="cls-4"><path class="cls-88" d="M16.63,14.14a140.7,140.7,0,0,1,1.11-16.8V-1H40.55V-2.48a141.19,141.19,0,0,1,.84,16.81,140.7,140.7,0,0,1-1.11,16.8c-.33,2.58-.74,5-1.2,7.33V32.72H18.55v5.57c-.43-2.3-.79-4.76-1.08-7.34A139.11,139.11,0,0,1,16.63,14.14Z" transform="translate(0 7.93)"/></g><g class="cls-4"><path class="cls-89" d="M16.87,14.14A137.71,137.71,0,0,1,18-2.34V-1H40.33V-2.16a138.06,138.06,0,0,1,.82,16.49,137.71,137.71,0,0,1-1.09,16.48c-.33,2.53-.72,4.93-1.18,7.18V32.71H18.75v5.11c-.42-2.26-.77-4.67-1.06-7.2A137.78,137.78,0,0,1,16.87,14.14Z" transform="translate(0 7.93)"/></g><g class="cls-4"><path class="cls-90" d="M17.11,14.14A134.4,134.4,0,0,1,18.18-2v1H40.11v-.84a137.07,137.07,0,0,1,.81,16.17,134.4,134.4,0,0,1-1.07,16.15c-.32,2.48-.71,4.84-1.15,7V32.71H19v4.65c-.41-2.21-.76-4.58-1-7.06A132.64,132.64,0,0,1,17.11,14.14Z" transform="translate(0 7.93)"/></g><g class="cls-4"><path class="cls-91" d="M17.35,14.14a133.42,133.42,0,0,1,1-15.83V-1h21.5v-.52a133.87,133.87,0,0,1,.79,15.84,133.42,133.42,0,0,1-1,15.83c-.31,2.43-.69,4.74-1.13,6.9V32.71H19.17V36.9q-.6-3.26-1-6.92A127.59,127.59,0,0,1,17.35,14.14Z" transform="translate(0 7.93)"/></g><g class="cls-4"><path class="cls-92" d="M17.58,14.14a130.56,130.56,0,0,1,1-15.51V-1H39.66V-1.2a128.66,128.66,0,0,1,.77,15.52,132.71,132.71,0,0,1-1,15.51c-.31,2.38-.68,4.64-1.11,6.76V32.71H19.36v3.73c-.39-2.12-.73-4.39-1-6.78A130.55,130.55,0,0,1,17.58,14.14Z" transform="translate(0 7.93)"/></g><g class="cls-4"><path class="cls-93" d="M17.82,14.15A127.1,127.1,0,0,1,18.82-1v0H38.46V-7.5c.39,2.08.71,4.3,1,6.64a127.53,127.53,0,0,1,.76,15.2,127.1,127.1,0,0,1-1,15.18c-.3,2.33-.67,4.55-1.08,6.62V32.73H19.56V36c-.39-2.08-.71-4.3-1-6.64A127.75,127.75,0,0,1,17.82,14.15Z" transform="translate(0 7.93)"/></g><g class="cls-4"><path class="cls-94" d="M18.06,14.15A124.11,124.11,0,0,1,19-.71c.3-2.28.65-4.45,1.06-6.48V-1H38.26V-7q.57,3.06,1,6.5A124.34,124.34,0,0,1,40,14.32a124.11,124.11,0,0,1-1,14.86c-.3,2.28-.65,4.45-1.06,6.48V32.71H19.76v2.8q-.57-3.06-1-6.5A124.06,124.06,0,0,1,18.06,14.15Z" transform="translate(0 7.93)"/></g><g class="cls-4"><path class="cls-95" d="M18.3,14.15a121.11,121.11,0,0,1,1-14.54c.29-2.23.64-4.35,1-6.34V-1H38.07V-6.58c.37,2,.68,4.12.94,6.35a119.18,119.18,0,0,1,.72,14.55,121.11,121.11,0,0,1-1,14.54c-.29,2.23-.64,4.35-1,6.34V32.72H20v2.34c-.37-2-.68-4.12-.94-6.35A123.61,123.61,0,0,1,18.3,14.15Z" transform="translate(0 7.93)"/></g><g class="cls-4"><path class="cls-96" d="M18.54,14.15A117.8,117.8,0,0,1,19.48-.06c.28-2.18.62-4.26,1-6.2V-1H37.86V-6.12c.36,2,.67,4,.92,6.21a120.21,120.21,0,0,1,.71,14.23,117.8,117.8,0,0,1-.94,14.21c-.28,2.18-.62,4.26-1,6.2v-2H20.16v1.88c-.36-2-.67-4-.92-6.21A120.3,120.3,0,0,1,18.54,14.15Z" transform="translate(0 7.93)"/></g><g class="cls-4"><path class="cls-97" d="M18.77,14.15A114.81,114.81,0,0,1,19.69.26c.28-2.13.61-4.16,1-6.06V-1h17V-5.66c.35,1.9.65,3.93.89,6.07a117,117,0,0,1,.69,13.9c-.08,9.86-1.3,18.78-3.2,25.22V32.71H21.56v6.71C19.77,33,18.69,24,18.77,14.15Z" transform="translate(0 7.93)"/></g><g class="cls-4"><path class="cls-98" d="M19,14.16A116,116,0,0,1,19.9.59c.27-2.08.6-4.06,1-5.92V-1H37.45V-5.2c.34,1.86.64,3.84.87,5.93A113.91,113.91,0,0,1,39,14.31c-.08,9.63-1.27,18.34-3.13,24.64V32.72H21.73v6.12A93.85,93.85,0,0,1,19,14.16Z" transform="translate(0 7.93)"/></g><g class="cls-4"><path class="cls-99" d="M19.25,14.16A112.94,112.94,0,0,1,20.12.91c.26-2,.58-4,.95-5.78V-1H37.26V-4.74c.34,1.81.62,3.75.85,5.79a110.79,110.79,0,0,1,.66,13.26,91.79,91.79,0,0,1-3.05,24V32.71H21.92v5.54A90.91,90.91,0,0,1,19.25,14.16Z" transform="translate(0 7.93)"/></g><g class="cls-4"><path class="cls-100" d="M19.49,14.16a109.61,109.61,0,0,1,.85-12.92c.26-2,.57-3.87.92-5.63V-1H37.05V-4.26c.33,1.77.61,3.66.83,5.65a107.6,107.6,0,0,1,.64,12.93,88.94,88.94,0,0,1-3,23.46V32.72H22.07v5A89.6,89.6,0,0,1,19.49,14.16Z" transform="translate(0 7.93)"/></g><g class="cls-4"><path class="cls-101" d="M19.73,14.16a106.6,106.6,0,0,1,.83-12.6q.38-2.91.9-5.49V-1h15.4V-3.81q.48,2.6.81,5.51a106.49,106.49,0,0,1,.63,12.61,87.17,87.17,0,0,1-2.9,22.88V32.72H22.26v4.36A86.67,86.67,0,0,1,19.73,14.16Z" transform="translate(0 7.93)"/></g><g class="cls-4"><path class="cls-102" d="M20,14.16a103.6,103.6,0,0,1,.81-12.28c.24-1.89.54-3.68.88-5.35V-1h15V-3.35C37-1.67,37.23.13,37.44,2a101.29,101.29,0,0,1,.61,12.29A84.79,84.79,0,0,1,35.22,36.6V32.72H22.43V36.5A84.75,84.75,0,0,1,20,14.16Z" transform="translate(0 7.93)"/></g><g class="cls-4"><path class="cls-103" d="M20.2,14.17A82.83,82.83,0,0,1,23-7.53V-1H35.41V-7.43a82.3,82.3,0,0,1,2.4,21.74A82.83,82.83,0,0,1,35.06,36V32.72H22.6v3.19A82.72,82.72,0,0,1,20.2,14.17Z" transform="translate(0 7.93)"/></g><g class="cls-4"><path class="cls-104" d="M20.44,14.17A80.59,80.59,0,0,1,23.12-6.95v6H35.24V-6.85a79.91,79.91,0,0,1,2.34,21.16A80.59,80.59,0,0,1,34.9,35.43v-2.7H22.78v2.61A80.14,80.14,0,0,1,20.44,14.17Z" transform="translate(0 7.93)"/></g><g class="cls-4"><path class="cls-105" d="M20.68,14.17A77.74,77.74,0,0,1,23.29-6.36V-1H35.07V-6.27A77.54,77.54,0,0,1,37.34,14.3a78.16,78.16,0,0,1-2.61,20.53V32.71H23v2A77.87,77.87,0,0,1,20.68,14.17Z" transform="translate(0 7.93)"/></g><g class="cls-4"><path class="cls-106" d="M20.92,14.17A75.77,75.77,0,0,1,23.45-5.77V-1H34.9V-5.68a76,76,0,0,1,2.21,20,75.77,75.77,0,0,1-2.53,19.94V32.71H23.13v1.43A75,75,0,0,1,20.92,14.17Z" transform="translate(0 7.93)"/></g><g class="cls-4"><path class="cls-107" d="M21.15,14.17A73.54,73.54,0,0,1,23.61-5.19V-1H34.72v-4.1a73.22,73.22,0,0,1,2.14,19.39A73.54,73.54,0,0,1,34.4,33.64V32.7H23.29v.85A73.82,73.82,0,0,1,21.15,14.17Z" transform="translate(0 7.93)"/></g><g class="cls-4"><path class="cls-108" d="M21.39,14.18A71.63,71.63,0,0,1,23.77-4.59V-1H34.54V-4.5a71.25,71.25,0,0,1,2.08,18.81,71.63,71.63,0,0,1-2.38,18.77v-.35H23.47V33A71.35,71.35,0,0,1,21.39,14.18Z" transform="translate(0 7.93)"/></g><g class="cls-4"><path class="cls-109" d="M21.63,14.18A68.78,68.78,0,0,1,23.94-4v3H34.38V-3.91a68.87,68.87,0,0,1,2,18.22,68.78,68.78,0,0,1-2.31,18.18A20.2,20.2,0,0,1,31.69,38V32.73H26v5.21a19.93,19.93,0,0,1-2.3-5.54A68.83,68.83,0,0,1,21.63,14.18Z" transform="translate(0 7.93)"/></g><g class="cls-4"><path class="cls-110" d="M21.87,14.18A67,67,0,0,1,24.1-3.42V-1H34.2V-3.34a66.46,66.46,0,0,1,1.95,17.63c-.11,13.76-3.4,24.88-7.34,24.85S21.76,27.94,21.87,14.18Z" transform="translate(0 7.93)"/></g><g class="cls-4"><path class="cls-110" d="M22.11,14.18a64.21,64.21,0,0,1,2.16-17V-1H34V-2.75a64.5,64.5,0,0,1,1.88,17c-.11,13.3-3.28,24.05-7.1,24S22,27.48,22.11,14.18Z" transform="translate(0 7.93)"/></g><g class="cls-4"><path class="cls-111" d="M22.34,14.18A62.24,62.24,0,0,1,24.42-2.24V-1h9.44V-2.17a62.59,62.59,0,0,1,1.82,16.46c-.1,12.84-3.17,23.23-6.85,23.2S22.24,27,22.34,14.18Z" transform="translate(0 7.93)"/></g><g class="cls-4"><path class="cls-111" d="M22.58,14.18a60,60,0,0,1,2-15.84V-1h9.09v-.58a60.21,60.21,0,0,1,1.75,15.87c-.1,12.38-3.06,22.4-6.61,22.37S22.48,26.57,22.58,14.18Z" transform="translate(0 7.93)"/></g><g class="cls-4"><path class="cls-112" d="M22.82,14.19c.1-11.92,2.94-21.57,6.36-21.54s6.11,9.72,6,21.64-2.94,21.57-6.36,21.54S22.73,26.11,22.82,14.19Z" transform="translate(0 7.93)"/></g><g class="cls-4"><path class="cls-112" d="M23.06,14.19c.09-11.46,2.83-20.74,6.12-20.71S35.06,2.82,35,14.29,32.13,35,28.84,35,23,25.65,23.06,14.19Z" transform="translate(0 7.93)"/></g><g class="cls-4"><path class="cls-113" d="M23.3,14.19c.09-11,2.72-19.91,5.87-19.88s5.64,9,5.55,20S32,34.19,28.85,34.16,23.21,25.2,23.3,14.19Z" transform="translate(0 7.93)"/></g><g class="cls-114"><ellipse class="cls-115" cx="29.03" cy="14.23" rx="19.1" ry="5.48" transform="translate(14.57 51.07) rotate(-89.54)"/></g><g class="cls-4"><path class="cls-116" d="M23.77,14.19C23.85,4.1,26.26-4.06,29.15-4s5.17,8.22,5.09,18.31S31.75,32.52,28.86,32.5,23.69,24.28,23.77,14.19Z" transform="translate(0 7.93)"/></g><g class="cls-4"><path class="cls-116" d="M24,14.2c.08-9.63,2.38-17.42,5.14-17.4S34.09,4.65,34,14.28s-2.38,17.42-5.14,17.4S23.93,23.83,24,14.2Z" transform="translate(0 7.93)"/></g><g class="cls-4"><path class="cls-117" d="M24.25,14.2C24.32,5,26.52-2.39,29.14-2.37s4.7,7.47,4.63,16.64S31.5,30.86,28.88,30.84,24.18,23.37,24.25,14.2Z" transform="translate(0 7.93)"/></g><g class="cls-4"><path class="cls-118" d="M24.49,14.2c.07-8.71,2.15-15.76,4.65-15.74s4.47,7.1,4.4,15.81S31.39,30,28.89,30,24.42,22.91,24.49,14.2Z" transform="translate(0 7.93)"/></g><g class="cls-4"><path class="cls-118" d="M24.73,14.2C24.8,6,26.77-.73,29.14-.71s4.23,6.73,4.16,15-2,14.93-4.41,14.91S24.66,22.46,24.73,14.2Z" transform="translate(0 7.93)"/></g><g class="cls-4"><path class="cls-119" d="M25,14.2C25,6.4,26.89.1,29.12.12s4,6.35,3.93,14.15-1.93,14.1-4.16,14.08S24.9,22,25,14.2Z" transform="translate(0 7.93)"/></g><g class="cls-114"><ellipse class="cls-120" cx="29.03" cy="14.23" rx="13.29" ry="3.81" transform="matrix(0.01, -1, 1, 0.01, 14.57, 51.07)"/></g><g class="cls-4"><path class="cls-120" d="M25.44,14.21c.06-6.88,1.7-12.44,3.67-12.43s3.53,5.61,3.47,12.48-1.7,12.44-3.67,12.43S25.38,21.09,25.44,14.21Z" transform="translate(0 7.93)"/></g><g class="cls-114"><ellipse class="cls-120" cx="29.03" cy="14.23" rx="11.63" ry="3.33" transform="translate(14.57 51.07) rotate(-89.54)"/></g><g class="cls-4"><path class="cls-120" d="M25.92,14.21c0-6,1.47-10.78,3.18-10.77s3.06,4.86,3,10.82S30.64,25,28.93,25,25.87,20.17,25.92,14.21Z" transform="translate(0 7.93)"/></g><g class="cls-4"><path class="cls-120" d="M26.15,14.21c0-5.5,1.36-10,2.94-9.94s2.82,4.48,2.78,10-1.36,10-2.94,9.94S26.11,19.72,26.15,14.21Z" transform="translate(0 7.93)"/></g><g class="cls-4"><path class="cls-121" d="M26.39,14.22c0-5,1.25-9.12,2.69-9.11s2.59,4.11,2.55,9.15-1.25,9.12-2.69,9.11S26.35,19.26,26.39,14.22Z" transform="translate(0 7.93)"/></g><g class="cls-4"><path class="cls-122" d="M26.63,14.22c0-4.59,1.13-8.29,2.45-8.28s2.35,3.74,2.31,8.32-1.13,8.29-2.45,8.28S26.59,18.8,26.63,14.22Z" transform="translate(0 7.93)"/></g><g class="cls-4"><path class="cls-122" d="M26.87,14.22c0-4.13,1-7.47,2.2-7.46s2.12,3.36,2.08,7.49-1,7.47-2.2,7.46S26.83,18.35,26.87,14.22Z" transform="translate(0 7.93)"/></g><g class="cls-114"><ellipse class="cls-122" cx="29.03" cy="14.23" rx="6.64" ry="1.9" transform="translate(14.57 51.07) rotate(-89.54)"/></g><g class="cls-4"><path class="cls-122" d="M27.34,14.22c0-3.21.79-5.81,1.71-5.8S30.7,11,30.67,14.25s-.79,5.81-1.71,5.8S27.32,17.43,27.34,14.22Z" transform="translate(0 7.93)"/></g><g class="cls-4"><path class="cls-122" d="M27.58,14.23c0-2.75.68-5,1.47-5s1.41,2.24,1.39,5-.68,5-1.47,5S27.56,17,27.58,14.23Z" transform="translate(0 7.93)"/></g><g class="cls-4"><path class="cls-122" d="M27.82,14.23c0-2.29.57-4.15,1.22-4.14S30.22,12,30.2,14.25,29.63,18.4,29,18.39,27.8,16.52,27.82,14.23Z" transform="translate(0 7.93)"/></g><g class="cls-114"><ellipse class="cls-122" cx="29.03" cy="14.23" rx="3.32" ry="0.95" transform="translate(14.57 51.07) rotate(-89.54)"/></g><g class="cls-4"><path class="cls-122" d="M28.3,14.23c0-1.38.34-2.49.73-2.49s.71,1.12.69,2.5-.34,2.49-.73,2.49S28.28,15.61,28.3,14.23Z" transform="translate(0 7.93)"/></g><g class="cls-4"><path class="cls-122" d="M28.53,14.23c0-.92.23-1.66.49-1.66s.47.75.46,1.66-.23,1.66-.49,1.66S28.53,15.15,28.53,14.23Z" transform="translate(0 7.93)"/></g><g class="cls-4"><path class="cls-122" d="M28.77,14.23c0-.46.11-.83.24-.83s.24.37.23.83-.11.83-.24.83S28.77,14.69,28.77,14.23Z" transform="translate(0 7.93)"/></g><path class="cls-123" d="M42,71.65s2.42,5.33,2.47,5.83S35.54,82.9,22.07,82.9.83,77.89.18,77.48,4,71.65,4,71.65l.08,1.4a57.94,57.94,0,0,0,19,3.37,54.85,54.85,0,0,0,18.63-3.37Z" transform="translate(0 7.93)"/><path class="cls-124" d="M.17,77.48s-.39,4.12,0,5.42,11,3.82,22.34,3.82,21.83-2.26,22.35-3.56-.44-5.68-.44-5.68-6.64,4.64-21.3,4.64S.17,77.48.17,77.48Z" transform="translate(0 7.93)"/><path class="cls-125" d="M23,.93C17,1.43,15.73,24,17.56,28.51s20.3,1.86,22.93-.47S38.15-.33,23,.93Z" transform="translate(0 7.93)"/><path class="cls-125" d="M23.16,33.8c-6.53.15-4.46,37.9-2.64,40.25S37,75.41,39.69,70.84s3.64-33.66,3.37-37.05S34.09,33.54,23.16,33.8Z" transform="translate(0 7.93)"/><path class="cls-125" d="M22.26,76.41c-4.06,0-1.22,4.22.24,5s10.59.31,14.32-.86,5.21-4.66,5.12-5.75S37.94,76.41,22.26,76.41Z" transform="translate(0 7.93)"/><path class="cls-126" d="M4.05,72.26c1.22,1.23,3.41-2.73,3.61-17.69S3.78,31.08,2.85,30.83,4.05,72.26,4.05,72.26Z" transform="translate(0 7.93)"/><path class="cls-126" d="M.26,82.92c-.48-.63.14-3.55.21-4.47s2.2.19,2.87,2.23a5.67,5.67,0,0,1,.18,3.5A7.79,7.79,0,0,1,.26,82.92Z" transform="translate(0 7.93)"/><path class="cls-126" d="M4.74,27.24c0,2.14,6.61-13.22,8-19.83S4.45,12.64,4.74,27.24Z" transform="translate(0 7.93)"/><path class="cls-127" d="M27.28,33s0-.79,6.42-1.91,9.1-.69,9.1-.69A37.62,37.62,0,0,1,27.28,33Z" transform="translate(0 7.93)"/><path class="cls-127" d="M29.25,81.61c-2.62-.11.86-6.61,10.68-2C39.93,79.57,34.05,81.82,29.25,81.61Z" transform="translate(0 7.93)"/><path class="cls-127" d="M24.27,12.07c-3.43,1.57-1.15,5.5,3,5.17C27.77,17.2,28.15,10.29,24.27,12.07Z" transform="translate(0 7.93)"/><path class="cls-128" d="M5.39,32.24c-2.15-.07,2.39,12.16,5.3,24.54s8.15-16.63,9.47-20.17S11.86,32.46,5.39,32.24Z" transform="translate(0 7.93)"/><path class="cls-128" d="M15.34,3.87C14.27,4.6,10,7.69,11.45,15c2.48,12.76,7.23-9.31,7.88-11.17S16.6,3,15.34,3.87Z" transform="translate(0 7.93)"/><path class="cls-129" d="M38.48,45.26c0,2.39-.84,4.43-2,3.61-1.44-1-3.28-1.62-3.08-3.82,0-.39.06-.79.1-1.2.16-1.92.44-3.87,2.31-3.3a3.74,3.74,0,0,1,2.63,3.37A7.55,7.55,0,0,1,38.48,45.26Z" transform="translate(0 7.93)"/><path class="cls-130" d="M38.48,45.26l0,.29a6.44,6.44,0,0,0-.69-2.71c-.68-1.22-1.62-2.17-2.75-1.65s-1.54,2.66-1.54,2.66c.16-1.92.44-3.87,2.31-3.3a3.74,3.74,0,0,1,2.63,3.37A7.55,7.55,0,0,1,38.48,45.26Z" transform="translate(0 7.93)"/><path class="cls-129" d="M35.2,52.36c.3,1.52,0,2.93-.9,2.58-1.09-.42-2.4-.57-2.55-2,0-.25-.06-.51-.09-.78-.14-1.24-.21-2.52,1.12-2.42A2.46,2.46,0,0,1,35,51.52,5,5,0,0,1,35.2,52.36Z" transform="translate(0 7.93)"/><path class="cls-130" d="M34.88,51.14v.12a1.6,1.6,0,0,0-.63-.95,1.82,1.82,0,0,0-1.94-.23,1.87,1.87,0,0,0-.85,1.28c0-.78,0-1.58,1.33-1.65,0,0,1.54-.15,2,.92A2.39,2.39,0,0,1,34.88,51.14Z" transform="translate(0 7.93)"/><path class="cls-131" d="M25.82,63.07c-.65-1.42-5.22,3.73-3.73,7.82S27.23,66.16,25.82,63.07Z" transform="translate(0 7.93)"/><path class="cls-132" d="M22.8,65.52c-1.69,3.63,1.33,4.76,2.81,1.8s-.24-4.58-.57-4.38A9.26,9.26,0,0,0,22.8,65.52Z" transform="translate(0 7.93)"/><path class="cls-133" d="M22.32,71.39c-.52-2.14,2.62-2,3.08-2.63S23.31,73.68,22.32,71.39Z" transform="translate(0 7.93)"/><path class="cls-126" d="M3.31,72.46a49.06,49.06,0,0,0-3.14,5c0,.51,6.13,2.42,8.61,2.31s5.91-4.37,5.91-4.37S6,74.37,3.31,72.46Z" transform="translate(0 7.93)"/><path class="cls-126" d="M1.94,28.24s-.33,1.12,2.11,2.58,6.68,0,6.68,0-6.37-1.06-6.68-2.31a3.9,3.9,0,0,1,0-2.1S2,27.15,1.94,28.24Z" transform="translate(0 7.93)"/></g></g></svg>