<svg xmlns="http://www.w3.org/2000/svg" xmlns:xlink="http://www.w3.org/1999/xlink" viewBox="0 0 157.28 160.89"><defs><style>.cls-1,.cls-23,.cls-24{fill:#3d3535;}.cls-2{fill:url(#linear-gradient);}.cls-16,.cls-3{fill:#6a6464;}.cls-15,.cls-4{fill:#fff;}.cls-10,.cls-11,.cls-5,.cls-6{fill:#ddd;}.cls-10,.cls-11,.cls-15,.cls-16,.cls-23,.cls-24,.cls-25,.cls-26,.cls-32,.cls-5,.cls-7,.cls-8{isolation:isolate;}.cls-5{opacity:0.58;}.cls-25,.cls-7,.cls-8{fill:#3e3232;}.cls-7{opacity:0.19;}.cls-26,.cls-8{opacity:0.38;}.cls-9{opacity:0.14;}.cls-10{opacity:0.79;}.cls-11{opacity:0.53;}.cls-12,.cls-32{opacity:0.51;}.cls-13{fill:#7d7878;}.cls-14{fill:url(#linear-gradient-2);}.cls-15{opacity:0.25;}.cls-16{opacity:0.39;}.cls-17{fill:url(#linear-gradient-3);}.cls-18{fill:url(#linear-gradient-4);}.cls-19{fill:url(#linear-gradient-5);}.cls-20{fill:url(#linear-gradient-6);}.cls-21{fill:url(#linear-gradient-7);}.cls-22{fill:url(#linear-gradient-8);}.cls-23{opacity:0.43;}.cls-24{opacity:0.52;}.cls-25{opacity:0.44;}.cls-26{fill:#322a2a;}.cls-27{fill:#003e8f;}.cls-28{fill:#004aad;}.cls-29{fill:#004396;}.cls-30,.cls-32{fill:#79aed9;}.cls-31{fill:#0046be;}.cls-33{fill:url(#linear-gradient-9);}.cls-34{fill:url(#linear-gradient-10);}.cls-35{fill:url(#linear-gradient-11);}.cls-36{fill:url(#linear-gradient-12);}.cls-37{fill:#b1cfe3;}</style><linearGradient id="linear-gradient" x1="68.13" y1="177.75" x2="85.66" y2="18.92" gradientTransform="matrix(1, 0, 0, -1, 0, 160.57)" gradientUnits="userSpaceOnUse"><stop offset="0" stop-color="#b7b4b4"/><stop offset="1" stop-color="#7d7878"/></linearGradient><linearGradient id="linear-gradient-2" x1="139.7" y1="131.94" x2="143.86" y2="114.6" xlink:href="#linear-gradient"/><linearGradient id="linear-gradient-3" x1="14.65" y1="131.94" x2="18.81" y2="114.6" xlink:href="#linear-gradient"/><linearGradient id="linear-gradient-4" x1="115.13" y1="151.72" x2="119.29" y2="134.39" xlink:href="#linear-gradient"/><linearGradient id="linear-gradient-5" x1="39.77" y1="151.72" x2="43.93" y2="134.39" xlink:href="#linear-gradient"/><linearGradient id="linear-gradient-6" x1="77.12" y1="15.52" x2="81.28" y2="-1.82" xlink:href="#linear-gradient"/><linearGradient id="linear-gradient-7" x1="7.62" y1="70.48" x2="11.79" y2="53.14" xlink:href="#linear-gradient"/><linearGradient id="linear-gradient-8" x1="146.69" y1="70.48" x2="150.85" y2="53.14" xlink:href="#linear-gradient"/><linearGradient id="linear-gradient-9" x1="1426.49" y1="-5131.88" x2="1426.49" y2="-4982.36" gradientTransform="matrix(-1, 0, 0, 1, 1547.12, 5136.79)" gradientUnits="userSpaceOnUse"><stop offset="0.02" stop-color="#549cca"/><stop offset="0.56" stop-color="#0077c6"/><stop offset="0.95" stop-color="#0050b5"/></linearGradient><linearGradient id="linear-gradient-10" x1="1423.23" y1="-5131.88" x2="1423.23" y2="-4982.36" xlink:href="#linear-gradient-9"/><linearGradient id="linear-gradient-11" x1="1458.59" y1="-5131.88" x2="1458.59" y2="-4982.36" xlink:href="#linear-gradient-9"/><linearGradient id="linear-gradient-12" x1="1513.17" y1="-5145.33" x2="1513.17" y2="-4979.25" xlink:href="#linear-gradient-9"/></defs><g id="Layer_2" data-name="Layer 2"><g id="Layer_1-2" data-name="Layer 1"><path class="cls-1" d="M140.71,56c-5.29-6.08,2-13.48,2.28-13.78l11.76-11.6L127.58,9.16,116,.17,104.23,8.42c-.78.45-5.9,3.24-15,4.18-1.84.19-6,.31-10.56.31s-8.72-.12-10.56-.31c-9-.93-14.13-3.68-15-4.15L41.3,0,15.68,20.24,2.64,30.6l11.6,11.56c.31.31,7.61,7.77,2.33,13.84C-1,76.23-4.81,97.59,6.17,114.6c8.66,13.42,21,21.38,42.62,27.49,9.87,2.79,15.28,6.38,16.78,7.48l13,11.32,13.14-11.3c1.49-1.1,6.9-4.7,16.81-7.5,21.61-6.11,34-14.07,42.62-27.49C162.08,97.6,158.29,76.24,140.71,56Z"/><path class="cls-2" d="M139.28,56.93c-6.13-7,2-15.38,2.36-15.73l10.6-10.46L126.37,10.3,116,2.19,105.27,9.66c-.75.44-6.15,3.47-15.87,4.47-1.91.2-6.13.33-10.77.33s-8.87-.13-10.77-.33c-9.59-1-15-4-15.82-4.44L41.35,2,16.88,21.38,5.11,30.72,15.58,41.15c.35.35,8.54,8.72,2.41,15.78C.85,76.65-2.89,97.4,7.72,113.85c8.42,13,20.48,20.8,41.62,26.77,10.27,2.9,15.9,6.68,17.44,7.81L78.55,158.7l11.92-10.25c1.53-1.14,7.16-4.92,17.47-7.83,21.14-6,33.2-13.73,41.62-26.77C160.17,97.4,156.43,76.65,139.28,56.93Z"/><path class="cls-3" d="M139.55,90.83A33.6,33.6,0,0,0,138,82.3a44.17,44.17,0,0,0-3.46-8.09,59.19,59.19,0,0,0-4.86-7.53c-.91-1.21-1.86-2.38-2.85-3.54a15.3,15.3,0,0,1-2.48-3.67,11.8,11.8,0,0,1-1.11-4.12,13.43,13.43,0,0,1,.35-4.23,20.88,20.88,0,0,1,3.94-7.75,19.79,19.79,0,0,1,1.48-1.7l1.64-1.61,3.3-3.22.22-.21-.25-.2-11.23-8.95L117.11,23l-5.64-4.45-.3-.24-.32.22-3.45,2.39-.86.6-.43.3-.22.15-.2.12c-.58.35-1.21.67-1.84,1a41.47,41.47,0,0,1-8.09,2.76,52.75,52.75,0,0,1-8.58,1.3c-2.91.16-5.86.19-8.79.19s-5.88,0-8.79-.23A52.39,52.39,0,0,1,61,25.75,42.12,42.12,0,0,1,53,23a19.61,19.61,0,0,1-1.82-1l-.1-.06L51,21.89l-.21-.15-.43-.3-.85-.61L46.08,18.4l-.41-.29-.39.31c-7.51,6-15,11.88-22.54,17.86l-.41.33.37.36,3.65,3.61c.6.61,1.24,1.19,1.78,1.8s1.07,1.27,1.55,1.93a18.55,18.55,0,0,1,3.62,8.76,12.09,12.09,0,0,1-.4,4.63A13.25,13.25,0,0,1,30.72,62c-.49.65-1.07,1.28-1.6,1.94s-1.06,1.32-1.57,2Q26,67.9,24.65,70a43.45,43.45,0,0,0-7,18.12c-.07.58-.12,1.16-.16,1.74l0,.45c0,.19,0,.37,0,.56a26.81,26.81,0,0,0,4.31,15.8,41.39,41.39,0,0,0,6.41,7.76l.12.11.94.84a39.49,39.49,0,0,0,3.8,3,64.33,64.33,0,0,0,15.36,7.41c1.36.48,2.74.92,4.13,1.35s2.79.81,4.15,1.25a68.11,68.11,0,0,1,8,3.1,45.85,45.85,0,0,1,7.27,4.16l.41.3.1.08,0,0h0l0,0,.19.17.77.68L75,138.27,78.05,141l.32.28.32-.28,3.54-3L84,136.45l.44-.38.44-.33,1-.66a51.24,51.24,0,0,1,8.43-4.36,75.83,75.83,0,0,1,9.19-3.13c3.15-.93,6.27-2,9.3-3.16a49.38,49.38,0,0,0,16.27-10,40.78,40.78,0,0,0,5.82-7,27.43,27.43,0,0,0,4.7-16.6Z"/><path class="cls-4" d="M130.83,40l-1.64,1.61a21.56,21.56,0,0,0-1.48,1.69A20.58,20.58,0,0,0,123.77,51a13.12,13.12,0,0,0-.35,4.23,12.25,12.25,0,0,0,1.11,4.12c.11.23.23.45.35.67a11.8,11.8,0,0,1-.49-2.49,13.43,13.43,0,0,1,.35-4.23,20.88,20.88,0,0,1,3.94-7.75,18.26,18.26,0,0,1,1.48-1.69l1.64-1.61L135.1,39l.22-.21L136.44,37l-2.22-.39Z"/><path class="cls-4" d="M140.6,93a33.6,33.6,0,0,0-1.52-8.53,42.39,42.39,0,0,0-1.88-4.91c.33.86.65,1.73.92,2.61a33.68,33.68,0,0,1,1.52,8.53,28.14,28.14,0,0,1-1,8.6,27.75,27.75,0,0,1-3.72,8,40.78,40.78,0,0,1-5.82,7,49.38,49.38,0,0,1-16.27,10c-3,1.21-6.15,2.23-9.3,3.16a75.83,75.83,0,0,0-9.19,3.13A52,52,0,0,0,86,135c-.32.21-.65.43-1,.66l-.44.33-.44.38-1.77,1.51-3.54,3-.32.28-.32-.28-3.09-2.71-1.54-1.36-.77-.68-.19-.17,0,0h0l0,0-.1-.08-.41-.3a45.41,45.41,0,0,0-7.27-4.16,65.75,65.75,0,0,0-8-3.1c-1.37-.44-2.77-.82-4.15-1.25s-2.76-.87-4.13-1.35a65.1,65.1,0,0,1-15.36-7.41,37.17,37.17,0,0,1-3.8-3l-.94-.84-.12-.11a40.76,40.76,0,0,1-6.41-7.76,27.54,27.54,0,0,1-1.74-3.13,26.66,26.66,0,0,0,2.71,5.42,41.39,41.39,0,0,0,6.41,7.76l.12.11.94.84a39.49,39.49,0,0,0,3.8,3A64.33,64.33,0,0,0,49.41,128c1.36.48,2.74.92,4.13,1.35s2.79.81,4.15,1.25a68.11,68.11,0,0,1,8,3.1A45.85,45.85,0,0,1,73,137.82l.41.3.1.08,0,0h0l.05,0,.19.17.77.68L76,140.47l3.09,2.71.32.28.32-.28,3.54-3,1.77-1.51.44-.38.44-.33,1-.66a51.24,51.24,0,0,1,8.43-4.36,75.83,75.83,0,0,1,9.19-3.13c3.15-.93,6.27-1.95,9.3-3.16a49.38,49.38,0,0,0,16.27-10,40.78,40.78,0,0,0,5.82-7,27.75,27.75,0,0,0,3.72-8A28.38,28.38,0,0,0,140.6,93Z"/><path class="cls-5" d="M127.57,43.38a19.79,19.79,0,0,1,1.48-1.7l1.64-1.61,3.3-3.22.22-.21-4.87.29-40,37.7L78.46,136.88l0,4.35.27-.23,3.54-3L84,136.47l.44-.38.44-.33,1-.66a51.24,51.24,0,0,1,8.43-4.36,75.83,75.83,0,0,1,9.19-3.13c3.15-.93,6.27-2,9.3-3.16a49.38,49.38,0,0,0,16.27-10,40.78,40.78,0,0,0,5.82-7,27.75,27.75,0,0,0,3.72-8,28.45,28.45,0,0,0,1-8.6A33.6,33.6,0,0,0,138,82.29a44.17,44.17,0,0,0-3.46-8.09,59.19,59.19,0,0,0-4.86-7.53c-.91-1.21-1.86-2.38-2.85-3.54a15.3,15.3,0,0,1-2.48-3.67,11.8,11.8,0,0,1-1.11-4.12,13.43,13.43,0,0,1,.35-4.23A21.12,21.12,0,0,1,127.57,43.38Z"/><path class="cls-6" d="M19.44,24.32,39.89,6.4,52,12.9c.79.46,6.22,3.45,15.82,4.44,1.91.2,9.29.58,13.93.58s8.87-.13,10.77-.33a35.46,35.46,0,0,0,16.44-6l7-6.23,10.41,8.11L150.5,32.58l1.74-1.71L126.37,10.43,116,2.32,105.27,9.79c-.75.44-6.15,3.47-15.87,4.47-1.91.2-6.13.33-10.77.33s-8.87-.13-10.77-.33c-9.59-1-15-4-15.82-4.44L41.35,2.17,16.88,21.51,5.11,30.85l1.72,1.72Z"/><path class="cls-6" d="M137.14,52.71a8.71,8.71,0,0,0,2.14,7.43C149.54,72,155,84.13,155.45,95.53c.5-12.27-5-25.59-16.17-38.48A8.93,8.93,0,0,1,137.14,52.71Z"/><path class="cls-6" d="M18,60.14a8.67,8.67,0,0,0,2.13-7.43A8.88,8.88,0,0,1,18,57.05C6.77,69.94,1.29,83.26,1.8,95.53,2.26,84.14,7.72,72,18,60.14Z"/><path class="cls-7" d="M111.14,22.56l.07-4.22-.32.22L107.44,21l-.86.6-.43.3-.22.15-.2.12c-.58.35-1.21.67-1.84,1a41.47,41.47,0,0,1-8.09,2.76,52.75,52.75,0,0,1-8.58,1.3c-2.91.16-5.86.19-8.79.19s-5.88-.05-8.79-.23a52.39,52.39,0,0,1-8.56-1.33A42.12,42.12,0,0,1,53,23a19.61,19.61,0,0,1-1.82-1L51.1,22,51,21.92l-.21-.15-.43-.3-.85-.61-3.41-2.43-.41-.29-.39.31c-7.51,6-15,11.88-22.54,17.86l-.41.33.37.36,3.65,3.61c.6.61,1.24,1.19,1.78,1.8s1.07,1.27,1.55,1.93a18.55,18.55,0,0,1,3.62,8.76,12.09,12.09,0,0,1-.4,4.63A13.25,13.25,0,0,1,30.76,62c-.49.65-1.07,1.28-1.6,1.94s-1.06,1.32-1.57,2q-1.53,2-2.9,4.11a43.45,43.45,0,0,0-7,18.12c-.07.58-.12,1.16-.16,1.74l0,.45c0,.19,0,.37,0,.56a26.81,26.81,0,0,0,4.31,15.8,41.39,41.39,0,0,0,6.41,7.76l.12.11.94.84a39.49,39.49,0,0,0,3.8,3,64.33,64.33,0,0,0,15.36,7.41c1.36.48,2.74.92,4.13,1.35s2.79.81,4.15,1.25a68.11,68.11,0,0,1,8,3.1,45.85,45.85,0,0,1,7.27,4.16l.41.3.1.08,0,0h0l0,0,.19.17.77.68L75,138.3,78.09,141l.32.28.08-4.4Z"/><polygon class="cls-8" points="22.36 36.62 27.65 36.93 45.87 22.52 45.69 18.12 22.36 36.62"/><g class="cls-9"><path class="cls-10" d="M138.86,40.86c-1.26-1-4.77-.77-7.73,4.29s-6.33,9-4.15,13.37,10.26,17.91,11.42,17.14,2.53-10.63.46-13.54-5.38-9-2.83-13.91S139.36,41.27,138.86,40.86Z"/><path class="cls-6" d="M140.65,81.13c1.19,3.62,5.07,6.79,7.78,8s2.91.54,1.79-7.24-6.19-13.6-7.09-11.79C141.79,72.77,139.46,77.51,140.65,81.13Z"/><path class="cls-11" d="M150.22,102.66a45.91,45.91,0,0,0-6.21,5.49c-2.18,2.49-12.28,16.11-21.88,19.28s-25.74,8.22-25.74,9.38,16.14-1.15,22.37-2.18,13.43-4.46,24-15.08S152.12,101.14,150.22,102.66Z"/><path class="cls-6" d="M142.34,101.28c-.31,1-2.27,5.24,0,4.9s5-3,3.91-3.7S142.84,99.61,142.34,101.28Z"/><path class="cls-11" d="M58.11,136.26c-4.48-3.43-17.85-8.57-26.86-13.8S16.61,105.32,16,103.35a3.24,3.24,0,0,0-2.87-2.07c-2,1.39-6.24,2.24-6.24,3.61s5.65,13.5,11.86,19.63,21.72,11.77,25.42,12.61S62.59,139.69,58.11,136.26Z"/><path class="cls-6" d="M13.17,96.77C14,95.2,15.32,82,18,76.94S26.31,64,28.19,60.59s3.56-4,2.38-8.5-7.42-3.15-8.12-.69c-1.16,4.12-1.9,7.88-6.4,13.54S5.88,80.37,4.61,85.51s-.74,11.57.68,13.88S12.3,98.34,13.17,96.77Z"/><path class="cls-6" d="M16.05,40.41c1.25,1.39,4.71,8.08,6.59,8s6.2-.17,5.08-2.4-5.52-6.43-5.52-6.43C17.59,39.24,14.8,39,16.05,40.41Z"/><path class="cls-6" d="M14.82,36.57c2.38,1.29,4.58-3.68,8.22-5.8s5.25-2.76,6.34-7.3,4-9,4.36-10.1C34.2,12,10.3,31.4,9.09,32.05S12.44,35.28,14.82,36.57Z"/><path class="cls-6" d="M32.61,24.32c1.31.09,6.66-3.58,8-6.12s-4.14-5.28-6.82-.82C32.91,18.75,31.3,24.24,32.61,24.32Z"/><path class="cls-6" d="M73.43,20.72c-8.22-2.74-16.85-5.44-19.21-6.3a44.65,44.65,0,0,1-6.83-3.68c-1.38-1-2.88,3.57-1.78,5s5.55,5.93,10.25,7.05a149.8,149.8,0,0,0,21.63,3.09C84.22,26.21,81.64,23.47,73.43,20.72Z"/><path class="cls-6" d="M108.17,18.67c1.88-2,2-5-.49-4.24S95.22,17.92,91,18.25s-11.69.06-11.69.06c-5.74.1-7.72.89-6.63,1.35s9.92,2.83,11.84,4.13,8,2.16,12.12.53S106.29,20.64,108.17,18.67Z"/><path class="cls-6" d="M132.73,30.36c.89.9,7,1.15,9.39,1.14s-3.39-6.5-6.64-9.24-18.35-16.33-20.67-14c-.89.91-2.41,5-.61,7.14S131.84,29.46,132.73,30.36Z"/></g><g class="cls-12"><path class="cls-3" d="M11.11,104.08c-1.16,1.19.72,4.68,1.67,6.14s2.63-3.88,2.4-5.82C14.93,102.27,12.27,102.89,11.11,104.08Z"/><path class="cls-3" d="M13.08,79.77C10.46,80.88,8.52,84,9.81,86.14s5.72-2.88,6.48-5.64S13.08,79.77,13.08,79.77Z"/><path class="cls-3" d="M24,23.35c-1.5,1.38,1.5,2.76,3.67,2.55s1.56-3.85,1.83-5.09C30,18.63,25.45,22,24,23.35Z"/><path class="cls-3" d="M97.45,19.16c-4.34-1.56-4.8,2.43-3.89,3.36S99.74,20,97.45,19.16Z"/><path class="cls-3" d="M105.66,16.64c-2.62-.93-3.48,1.94-3.77,3.45S108.17,17.53,105.66,16.64Z"/><path class="cls-3" d="M133.93,43.25c-1.38-.25-4.13,3.21-4,5.07S138.06,44,133.93,43.25Z"/></g><path class="cls-3" d="M146.94,31.91h0v0a4.78,4.78,0,0,0-.28-.61l0-.08a7.16,7.16,0,0,0-1.33-1.65l0,.11a6.34,6.34,0,0,0-2.89-1.3,6.18,6.18,0,0,0-6.83,3.28v0a3.64,3.64,0,0,0-.38,1.8v.11a2.66,2.66,0,0,0,0,.3c0,.07,0,.15,0,.22a2.47,2.47,0,0,0,.05.32h0a5.62,5.62,0,0,0,4.7,4.18c3.25.58,6.42-1.23,7.09-4A4.6,4.6,0,0,0,146.94,31.91Z"/><ellipse class="cls-13" cx="140.73" cy="32.97" rx="5.53" ry="4.79"/><path class="cls-14" d="M144.59,33.66a4,4,0,0,1-4.65,2.65,3.45,3.45,0,0,1-3.06-4,4,4,0,0,1,4.65-2.65A3.46,3.46,0,0,1,144.59,33.66Z"/><path class="cls-4" d="M135.55,31.28s0,.72.56.89,1-.46,1-.46a3.18,3.18,0,0,1,2.33-2.2,4.57,4.57,0,0,1,4.26,1c.34.33,1-.11.92-.45s-.09-.65-.09-.65a6.57,6.57,0,0,1,1.23,1.52l.3.67s-.48-.64-.84-.6-.85.6-.79.75-.59-.24-1.42-1a3.69,3.69,0,0,0-3.44-.75,3.59,3.59,0,0,0-2.43,2.31,3.91,3.91,0,0,0-.23,1.39,3.76,3.76,0,0,0-.3-.92c-.14-.2-.72-.38-.91-.11a5.78,5.78,0,0,0-.39,1.18A4.24,4.24,0,0,1,135.55,31.28Z"/><path class="cls-15" d="M143.89,31.7c.82,1-3.49-.72-3.84,0s-.65,1.66-1.16,1.27-1.1,1.45-1.39,1.49-.85-2.27.94-3.64A3.86,3.86,0,0,1,143.89,31.7Z"/><path class="cls-15" d="M144.06,32.44a3.44,3.44,0,0,0-3.33.1c-.71.47-1.35,1.1-1.71,1.08s-.51.14-.69.58.18,1.76,2.15,1.91S145.63,33.58,144.06,32.44Z"/><path class="cls-16" d="M144.89,32.26s.09,2-.58,2.72a3.83,3.83,0,0,1-3.11,1.55c-1.47-.08-2.07-.19-2.23-.16s-.23.54.54,1,3.08.33,4.87-1A4.42,4.42,0,0,0,146,32.16C145.83,31.69,144.71,30.72,144.89,32.26Z"/><path class="cls-3" d="M136.61,33.54c0-.36-.33-.89-.76-.56s-.38,1.47.13,2.16a5.88,5.88,0,0,0,1.87,1.68c.42.13.77-.55.45-.82S136.65,34.48,136.61,33.54Z"/><path class="cls-3" d="M21.89,31.91h0v0a4.78,4.78,0,0,0-.28-.61l0-.08a7.16,7.16,0,0,0-1.33-1.65l0,.11a6.34,6.34,0,0,0-2.89-1.3,6.18,6.18,0,0,0-6.83,3.28v0a3.64,3.64,0,0,0-.38,1.8v.11a2.66,2.66,0,0,0,0,.3c0,.07,0,.15,0,.22a2.47,2.47,0,0,0,.05.32h0A5.62,5.62,0,0,0,15,38.53c3.25.58,6.42-1.23,7.09-4A4.51,4.51,0,0,0,21.89,31.91Z"/><ellipse class="cls-13" cx="15.69" cy="32.97" rx="5.53" ry="4.79"/><ellipse class="cls-17" cx="15.69" cy="32.97" rx="3.94" ry="3.41"/><path class="cls-4" d="M10.51,31.28s0,.72.56.89,1-.46,1-.46a3.18,3.18,0,0,1,2.33-2.2,4.57,4.57,0,0,1,4.26,1c.34.33,1-.11.92-.45s-.09-.65-.09-.65a6.57,6.57,0,0,1,1.23,1.52l.3.67s-.48-.64-.84-.6-.85.6-.79.75-.59-.24-1.42-1A3.68,3.68,0,0,0,14.49,30a3.59,3.59,0,0,0-2.43,2.31,3.91,3.91,0,0,0-.23,1.39,3.76,3.76,0,0,0-.3-.92c-.14-.2-.72-.38-.91-.11a5.78,5.78,0,0,0-.39,1.18A4.24,4.24,0,0,1,10.51,31.28Z"/><path class="cls-15" d="M18.85,31.7c.82,1-3.49-.72-3.84,0s-.65,1.66-1.16,1.27-1.1,1.45-1.39,1.49-.85-2.27.94-3.64A3.87,3.87,0,0,1,18.85,31.7Z"/><path class="cls-15" d="M19,32.44a3.44,3.44,0,0,0-3.33.1C15,33,14.33,33.64,14,33.62s-.51.14-.69.58.18,1.76,2.15,1.91S20.59,33.58,19,32.44Z"/><path class="cls-16" d="M19.84,32.26s.09,2-.58,2.72a3.83,3.83,0,0,1-3.11,1.55c-1.47-.08-2.07-.19-2.23-.16s-.23.54.54,1,3.08.33,4.87-1A4.42,4.42,0,0,0,21,32.16C20.79,31.69,19.66,30.72,19.84,32.26Z"/><path class="cls-3" d="M11.57,33.54c0-.36-.33-.89-.76-.56s-.38,1.47.13,2.16a5.88,5.88,0,0,0,1.87,1.68c.42.13.77-.55.45-.82S11.61,34.48,11.57,33.54Z"/><path class="cls-3" d="M122.38,12.12h0v0a4.78,4.78,0,0,0-.28-.61l0-.08a7.16,7.16,0,0,0-1.33-1.65l0,.11a6.34,6.34,0,0,0-2.89-1.3A6.18,6.18,0,0,0,111,11.84v0a3.64,3.64,0,0,0-.38,1.8v.11a2.66,2.66,0,0,0,0,.3c0,.07,0,.15,0,.22a2.47,2.47,0,0,0,0,.32h0a5.62,5.62,0,0,0,4.7,4.18c3.25.58,6.42-1.23,7.09-4A4.6,4.6,0,0,0,122.38,12.12Z"/><ellipse class="cls-13" cx="116.17" cy="13.18" rx="5.53" ry="4.79"/><ellipse class="cls-18" cx="116.17" cy="13.18" rx="3.94" ry="3.41"/><path class="cls-4" d="M111,11.49s0,.72.56.89,1-.46,1-.46a3.18,3.18,0,0,1,2.33-2.2,4.57,4.57,0,0,1,4.26,1c.34.33,1-.11.92-.45s-.09-.65-.09-.65a6.57,6.57,0,0,1,1.23,1.52l.3.67s-.48-.64-.84-.6-.85.6-.79.75-.59-.24-1.42-1a3.69,3.69,0,0,0-3.44-.75,3.59,3.59,0,0,0-2.43,2.31,3.91,3.91,0,0,0-.23,1.39A3.76,3.76,0,0,0,112,13c-.14-.2-.72-.38-.91-.11a5.78,5.78,0,0,0-.39,1.18A4.24,4.24,0,0,1,111,11.49Z"/><path class="cls-15" d="M119.33,11.91c.82,1-3.49-.72-3.84,0s-.65,1.66-1.16,1.27-1.1,1.45-1.39,1.49-.85-2.27.94-3.64A3.87,3.87,0,0,1,119.33,11.91Z"/><path class="cls-15" d="M119.5,12.65a3.44,3.44,0,0,0-3.33.1c-.71.47-1.35,1.1-1.71,1.08s-.51.14-.69.58.18,1.76,2.15,1.91S121.07,13.79,119.5,12.65Z"/><path class="cls-16" d="M120.33,12.47s.09,2-.58,2.72a3.83,3.83,0,0,1-3.11,1.55c-1.47-.08-2.07-.19-2.23-.16s-.23.54.54,1,3.08.33,4.87-1a4.42,4.42,0,0,0,1.64-4.17C121.27,11.9,120.15,10.94,120.33,12.47Z"/><path class="cls-3" d="M112.05,13.75c0-.36-.33-.89-.76-.56s-.38,1.47.13,2.16A6,6,0,0,0,113.28,17c.42.13.77-.55.45-.82S112.09,14.69,112.05,13.75Z"/><path class="cls-3" d="M47,12.12h0v0a4.78,4.78,0,0,0-.28-.61l0-.08a7.16,7.16,0,0,0-1.33-1.65l0,.11a6.34,6.34,0,0,0-2.89-1.3,6.18,6.18,0,0,0-6.83,3.28v0a3.64,3.64,0,0,0-.38,1.8v.11a2.66,2.66,0,0,0,0,.3c0,.07,0,.15,0,.22a2.47,2.47,0,0,0,.05.32h0a5.62,5.62,0,0,0,4.7,4.18c3.25.58,6.42-1.23,7.09-4A4.6,4.6,0,0,0,47,12.12Z"/><ellipse class="cls-13" cx="40.81" cy="13.18" rx="5.53" ry="4.79"/><ellipse class="cls-19" cx="40.81" cy="13.18" rx="3.94" ry="3.41"/><path class="cls-4" d="M35.63,11.49s0,.72.56.89,1-.46,1-.46a3.18,3.18,0,0,1,2.33-2.2,4.57,4.57,0,0,1,4.26,1c.34.33,1-.11.92-.45s-.09-.65-.09-.65a6.57,6.57,0,0,1,1.23,1.52l.3.67s-.48-.64-.84-.6-.85.6-.79.75-.59-.24-1.42-1a3.69,3.69,0,0,0-3.44-.75,3.59,3.59,0,0,0-2.43,2.31A3.91,3.91,0,0,0,37,13.88a3.76,3.76,0,0,0-.3-.92c-.14-.2-.72-.38-.91-.11A5.78,5.78,0,0,0,35.35,14,4.24,4.24,0,0,1,35.63,11.49Z"/><path class="cls-15" d="M44,11.91c.82,1-3.49-.72-3.84,0s-.65,1.66-1.16,1.27-1.1,1.45-1.39,1.49-.85-2.27.94-3.64A3.87,3.87,0,0,1,44,11.91Z"/><path class="cls-15" d="M44.13,12.65a3.44,3.44,0,0,0-3.33.1c-.71.47-1.35,1.1-1.71,1.08s-.51.14-.69.58.18,1.76,2.15,1.91S45.71,13.79,44.13,12.65Z"/><path class="cls-16" d="M45,12.47s.09,2-.58,2.72a3.83,3.83,0,0,1-3.11,1.55c-1.47-.08-2.07-.19-2.23-.16s-.23.54.54,1,3.08.33,4.87-1a4.42,4.42,0,0,0,1.64-4.17C45.91,11.9,44.79,10.94,45,12.47Z"/><path class="cls-3" d="M36.69,13.75c0-.36-.33-.89-.76-.56s-.38,1.47.13,2.16A5.88,5.88,0,0,0,37.93,17c.42.13.77-.55.45-.82S36.73,14.69,36.69,13.75Z"/><path class="cls-3" d="M84.37,148.32h0v0a4.78,4.78,0,0,0-.28-.61l0-.08A7.16,7.16,0,0,0,82.72,146l0,.11a6.34,6.34,0,0,0-2.89-1.3A6.18,6.18,0,0,0,73,148v0a3.64,3.64,0,0,0-.38,1.8v.11a2.66,2.66,0,0,0,0,.3c0,.07,0,.15,0,.22a2.47,2.47,0,0,0,0,.32h0a5.62,5.62,0,0,0,4.7,4.18c3.25.58,6.42-1.23,7.09-4A4.52,4.52,0,0,0,84.37,148.32Z"/><ellipse class="cls-13" cx="78.16" cy="149.39" rx="5.53" ry="4.79"/><ellipse class="cls-20" cx="78.16" cy="149.39" rx="3.94" ry="3.41"/><path class="cls-4" d="M73,147.7s0,.72.56.89,1-.46,1-.46a3.18,3.18,0,0,1,2.33-2.2,4.57,4.57,0,0,1,4.26,1c.34.33,1-.11.92-.45s-.09-.65-.09-.65a6.57,6.57,0,0,1,1.23,1.52l.3.67s-.48-.64-.84-.6-.85.6-.79.75-.59-.24-1.42-1a3.68,3.68,0,0,0-3.44-.75,3.59,3.59,0,0,0-2.43,2.31,3.91,3.91,0,0,0-.23,1.39,3.76,3.76,0,0,0-.3-.92c-.14-.2-.72-.38-.91-.11a5.78,5.78,0,0,0-.39,1.18A4.33,4.33,0,0,1,73,147.7Z"/><path class="cls-15" d="M81.33,148.12c.82,1-3.49-.72-3.84,0s-.65,1.66-1.16,1.27-1.1,1.45-1.39,1.49-.85-2.27.94-3.64A3.87,3.87,0,0,1,81.33,148.12Z"/><path class="cls-15" d="M81.49,148.85a3.44,3.44,0,0,0-3.33.1c-.71.47-1.35,1.1-1.71,1.08s-.51.14-.69.58.18,1.76,2.15,1.91S83.06,150,81.49,148.85Z"/><path class="cls-16" d="M82.32,148.67s.09,2-.58,2.72a3.83,3.83,0,0,1-3.11,1.55c-1.47-.08-2.07-.19-2.23-.16s-.23.54.54,1,3.08.33,4.87-1a4.42,4.42,0,0,0,1.64-4.17C83.26,148.1,82.14,147.14,82.32,148.67Z"/><path class="cls-3" d="M74.05,150c0-.36-.33-.89-.76-.56s-.38,1.47.13,2.16a5.88,5.88,0,0,0,1.87,1.68c.42.13.77-.55.45-.82S74.08,150.89,74.05,150Z"/><path class="cls-3" d="M14.87,93.36h0v0a4.78,4.78,0,0,0-.28-.61l0-.08A7.16,7.16,0,0,0,13.22,91l0,.11a6.34,6.34,0,0,0-2.89-1.3,6.18,6.18,0,0,0-6.83,3.28v0a3.64,3.64,0,0,0-.38,1.8V95a2.66,2.66,0,0,0,0,.3c0,.07,0,.15,0,.22a2.47,2.47,0,0,0,0,.32h0A5.62,5.62,0,0,0,7.93,100c3.25.58,6.42-1.23,7.09-4A4.6,4.6,0,0,0,14.87,93.36Z"/><ellipse class="cls-13" cx="8.66" cy="94.43" rx="5.53" ry="4.79"/><path class="cls-21" d="M12.52,95.12a4,4,0,0,1-4.65,2.65,3.45,3.45,0,0,1-3.06-4,4,4,0,0,1,4.65-2.65A3.46,3.46,0,0,1,12.52,95.12Z"/><path class="cls-4" d="M3.48,92.74s0,.72.56.89,1-.46,1-.46A3.18,3.18,0,0,1,7.33,91a4.57,4.57,0,0,1,4.26,1c.34.33,1-.11.92-.45s-.09-.65-.09-.65a6.57,6.57,0,0,1,1.23,1.52L14,93s-.48-.64-.84-.6-.85.6-.79.75-.59-.24-1.42-1a3.69,3.69,0,0,0-3.44-.75A3.59,3.59,0,0,0,5,93.74a3.91,3.91,0,0,0-.23,1.39,3.76,3.76,0,0,0-.3-.92c-.14-.2-.72-.38-.91-.11a5.78,5.78,0,0,0-.39,1.18A4.24,4.24,0,0,1,3.48,92.74Z"/><path class="cls-15" d="M11.82,93.16c.82,1-3.49-.72-3.84,0s-.65,1.66-1.16,1.27-1.1,1.45-1.39,1.49-.85-2.27.94-3.64A3.86,3.86,0,0,1,11.82,93.16Z"/><path class="cls-15" d="M12,93.89a3.44,3.44,0,0,0-3.33.1c-.71.47-1.35,1.1-1.71,1.08s-.51.14-.69.58.18,1.76,2.15,1.91S13.56,95,12,93.89Z"/><path class="cls-16" d="M12.82,93.71s.09,2-.58,2.72A3.83,3.83,0,0,1,9.13,98c-1.47-.08-2.07-.19-2.23-.16s-.23.54.54,1,3.08.33,4.87-1A4.42,4.42,0,0,0,14,93.61C13.76,93.14,12.64,92.18,12.82,93.71Z"/><path class="cls-3" d="M4.54,95c0-.36-.33-.89-.76-.56s-.38,1.47.13,2.16a5.88,5.88,0,0,0,1.87,1.68c.42.13.77-.55.45-.82S4.58,95.93,4.54,95Z"/><path class="cls-3" d="M153.93,93.36h0v0a4.78,4.78,0,0,0-.28-.61l0-.08A7.16,7.16,0,0,0,152.28,91l0,.11a6.34,6.34,0,0,0-2.89-1.3,6.18,6.18,0,0,0-6.83,3.28v0a3.64,3.64,0,0,0-.38,1.8V95a2.66,2.66,0,0,0,0,.3c0,.07,0,.15,0,.22a2.47,2.47,0,0,0,0,.32h0A5.62,5.62,0,0,0,147,100c3.25.58,6.42-1.23,7.09-4A4.51,4.51,0,0,0,153.93,93.36Z"/><ellipse class="cls-13" cx="147.73" cy="94.43" rx="5.53" ry="4.79"/><ellipse class="cls-22" cx="147.73" cy="94.43" rx="3.94" ry="3.41"/><path class="cls-4" d="M142.55,92.74s0,.72.56.89,1-.46,1-.46A3.18,3.18,0,0,1,146.4,91a4.57,4.57,0,0,1,4.26,1c.34.33,1-.11.92-.45s-.09-.65-.09-.65a6.57,6.57,0,0,1,1.23,1.52l.3.67s-.48-.64-.84-.6-.85.6-.79.75-.59-.24-1.42-1a3.69,3.69,0,0,0-3.44-.75,3.59,3.59,0,0,0-2.43,2.31,3.91,3.91,0,0,0-.23,1.39,3.76,3.76,0,0,0-.3-.92c-.14-.2-.72-.38-.91-.11a5.78,5.78,0,0,0-.39,1.18A4.24,4.24,0,0,1,142.55,92.74Z"/><path class="cls-15" d="M150.89,93.16c.82,1-3.49-.72-3.84,0s-.65,1.66-1.16,1.27-1.1,1.45-1.39,1.49-.85-2.27.94-3.64A3.86,3.86,0,0,1,150.89,93.16Z"/><path class="cls-15" d="M151.05,93.89a3.44,3.44,0,0,0-3.33.1c-.71.47-1.35,1.1-1.71,1.08s-.51.14-.69.58.18,1.76,2.15,1.91S152.63,95,151.05,93.89Z"/><path class="cls-16" d="M151.88,93.71s.09,2-.58,2.72A3.83,3.83,0,0,1,148.19,98c-1.47-.08-2.07-.19-2.23-.16s-.23.54.54,1,3.08.33,4.87-1A4.42,4.42,0,0,0,153,93.61C152.83,93.14,151.7,92.18,151.88,93.71Z"/><path class="cls-3" d="M143.61,95c0-.36-.33-.89-.76-.56s-.38,1.47.13,2.16a5.88,5.88,0,0,0,1.87,1.68c.42.13.77-.55.45-.82S143.65,95.93,143.61,95Z"/><path class="cls-1" d="M119.8,136.89s.35-2.12,4.14-4.88S134,130.38,134,130.38,121.53,136.42,119.8,136.89Z"/><polygon class="cls-1" points="15.46 58.26 30.11 64.07 12.67 62.43 15.46 58.26"/><polygon class="cls-4" points="30.11 64.07 13.37 62.49 12.44 64.06 13.86 63.58 30.11 64.07"/><polygon class="cls-23" points="18.23 55.11 30.11 64.07 15.95 58.46 18.23 55.11"/><polygon class="cls-1" points="132.6 111.51 129.69 108.99 132.07 112.77 146.8 115.95 147.33 118.33 150.47 113.78 132.6 111.51"/><path class="cls-4" d="M146.8,116l-14.73-3.18L129.69,109l1.65,4.4,13.83,3.17s.94,0,1.05.16a8.33,8.33,0,0,1,.25,1.45l.63-.81Z"/><polygon class="cls-24" points="151.49 110.5 149.66 113.68 132.6 111.51 129.73 109.07 134.17 109.76 151.49 110.5"/><path class="cls-3" d="M114.19,20.83s3.91,7.18,4.6,7.41,11.54,6,11.54,6-5.68-9.11-6.47-9.75S114.19,20.83,114.19,20.83Z"/><path class="cls-25" d="M114.19,20.83l9.67,3.68-5.07,3.73S114.58,23.22,114.19,20.83Z"/><path class="cls-26" d="M130.82,58.4a43.61,43.61,0,0,1,3.71,5.45c1.11,1.9,2.13,3.84,3.08,5.84s1.82,4,2.6,6.13a46.67,46.67,0,0,1,2,6.53,42.45,42.45,0,0,1-3.71-5.44q-1.67-2.84-3.07-5.84c-.94-2-1.81-4-2.6-6.14A47.1,47.1,0,0,1,130.82,58.4Z"/><path class="cls-6" d="M130.26,57.77s6.11,8.16,8.5,14.47a87.49,87.49,0,0,1,3.35,10.69,57.54,57.54,0,0,0-2.87-12.36C137.14,65.13,130.26,57.77,130.26,57.77Z"/><path class="cls-26" d="M133.72,63.69s3.38,8.53,3.94,9.79,3,5.88,3,5.88S138.6,69.58,133.72,63.69Z"/><path class="cls-27" d="M124,64.67c-10.32-11.87,2-24.43,2.56-25l2.81-2.77L113.87,24.73l-2.77-2.16-2.89,2c-.06,0-6.56,4.42-19,5.71-4.4.46-8,.75-10.72.87-2.71-.12-6.32-.41-10.72-.87-12.45-1.29-18.93-5.66-19-5.69l-2.91-2.08L30.77,34.46l-3.12,2.48,2.78,2.77c.53.53,12.89,13.1,2.57,25C20.38,79.2,17.35,94.05,24.68,105.41c6.22,9.64,14.64,15,31.06,19.59,11.3,3.19,17.57,7.58,19.18,8.82l3.54,3.09,3.55-3c1.65-1.27,7.91-5.66,19.21-8.85,16.42-4.64,24.84-10,31.06-19.59C139.62,94,136.58,79.19,124,64.67Zm6.81,40c-6,9.27-14.13,14.39-30.08,18.89-11.62,3.28-18.12,7.84-19.86,9.18l-2.35,2-2.35-2.05c-1.71-1.32-8.21-5.87-19.83-9.16-15.95-4.51-24.1-9.63-30.08-18.89-7-10.82-4-25.06,8.19-39.09,11.15-12.83-2.08-26.29-2.65-26.86L30.09,37,45.94,24.51l1.75,1.25c.07,0,6.81,4.67,19.87,6,4.47.46,8.13.76,10.88.88h.08c2.76-.12,6.42-.41,10.88-.88,12.93-1.34,19.61-5.84,19.89-6L111,24.53,126.9,37l-1.69,1.67c-.57.57-13.8,14-2.64,26.85C134.76,79.6,137.75,93.84,130.77,104.66Z"/><path class="cls-28" d="M25.39,105c6.1,9.45,14.39,14.67,30.57,19.24,11.48,3.24,17.85,7.71,19.53,9l2.93,2.55,3-2.55c1.7-1.31,8.06-5.76,19.52-9,16.18-4.57,24.47-9.79,30.57-19.24,7.16-11.09,4.15-25.63-8.26-39.91-10.73-12.35,2.06-25.37,2.61-25.91L128.08,37,113.25,25.28,111,23.55l-2.32,1.62c-.07,0-6.63,4.54-19.45,5.87-4.45.46-8.09.75-10.82.87-2.73-.12-6.37-.41-10.83-.87-12.82-1.33-19.38-5.82-19.43-5.86l-2.33-1.66L31.31,35l-2.5,2L31,39.22c.55.55,13.34,13.57,2.61,25.91C21.24,79.39,18.23,93.94,25.39,105Z"/><path class="cls-29" d="M100.93,124.27c16.18-4.57,24.47-9.79,30.57-19.24,7.16-11.09,4.15-25.63-8.26-39.91-10.73-12.35,2.06-25.37,2.61-25.91L128.1,37h0l-4.85.24-12.33-9.72-10.36,43-25.78-35,2.47,46.22,1.2,54.16,3-2.55C83.1,132,89.47,127.51,100.93,124.27Z"/><polygon class="cls-30" points="45.85 23.52 28.81 36.99 33.66 37.22 45.97 27.5 45.85 23.52"/><path class="cls-31" d="M45.32,117.51s-.07-54.22-1.09-62.75-2.39-24.9-2.39-24.9l-2-.88,1.2,1.88L42.89,116v4.26Z"/><path class="cls-31" d="M56.58,59.7s-1.73,1.14-2.89,7.69-1.48,15.72.36,17.71a29.18,29.18,0,0,0,2.53,2.53s-2.38-8.53-1.51-14S56.58,59.7,56.58,59.7Z"/><path class="cls-31" d="M92.56,30.92l-.63,3.64s3.49,28.71,3.23,28-1.61-29.06-1.61-29.06Z"/><path class="cls-31" d="M115.25,28.1l-.89,2.19,1.81,42.65s.46-34.11.46-35.12-.39-6.11-.39-6.11Z"/><path class="cls-31" d="M122.42,87.72c-2.1-2.58-3.31-15.29-3.31-15.29s0,1.88,0,8.72,3.6,11.66,4.79,12,2.78-5.4,2.78-5.4S124.52,90.3,122.42,87.72Z"/><polygon class="cls-32" points="111.03 23.52 128.06 36.99 123.22 37.22 110.91 27.5 111.03 23.52"/><path class="cls-33" d="M118.16,44.19a30.92,30.92,0,0,1,5-7l-5-4C118.15,36.65,118.16,40.36,118.16,44.19Z"/><path class="cls-34" d="M118.71,85.48c1.52,6.17,5.3,16,6.53,13.39,1.05-2.23,3.71-13.87,4.45-17.14-.3-.78-.64-1.57-1-2.37-1.17,5.83-3,13.39-4.67,12.8-2.74-1-5.11-11.88-4.92-19.29s1.89,6,3.59,9.66c1.16,2.49,3.87-.14,5.62-4a55.22,55.22,0,0,0-7.94-11.65,23.4,23.4,0,0,1-2.27-3.09C118.09,74.45,118.17,83.25,118.71,85.48Z"/><path class="cls-35" d="M129.81,82c-.25,3.73-1.14,15.3-2.48,18.39-1.61,3.7-6.53,5.39-8.8-2.73-1.88-6.72-3.37-43-3.83-62,0-1.87-.14-3.68-.33-5.42l-3.53-2.79s-5.5,3.93-16.49,5.86c.47,17.51.79,31.31.79,31.31s-1.17-13.42-2.7-31c-.91.13-1.86.25-2.84.36-5.31.55-8.87.8-11.24.9-2.37-.1-5.93-.35-11.24-.9C53,32.54,45.89,27.48,45.89,27.48l-.57.45c1,33.83,1.74,72.67,1.74,75,0,1.49,1.34,9,2.95,16.27,2.15.76,4.46,1.48,7,2.19,14.62,4.13,21.39,10.12,21.39,10.12v0a0,0,0,0,0,0,0,21.5,21.5,0,0,1,2.08-1.56c.05-.46.09-.76.11-.86.38-1.49-1.89-4-1.89-4s0-29.32-2.4-56.14a156.85,156.85,0,0,1,0-31.14c-.43,12.5,3.62,52.94,3.79,54.29s3,31.56,3,34.87c0,.24,0,.71,0,1.33a61.38,61.38,0,0,1,5.94-3c-.57-6.08-1.26-14-1.09-15.83.27-3,.77-20.45.77-20.45s.85,23.53,1.42,28a72.83,72.83,0,0,0,1.57,7.15,84.48,84.48,0,0,1,8.05-2.73c14.61-4.13,22.77-8.79,28.62-17.85C132.1,97.79,132.94,90.39,129.81,82ZM58,61.11c2.27,6.23,1.16,39.21-4,21.24C52,75.4,55.71,54.88,58,61.11Zm1.89,37.21c-2.65.39-3.61-3.12-3.61-3.12s2,2.14,5.13-.78,2-14.22,1.42-20.63-1.42-34.31-1.42-34.31a189.59,189.59,0,0,1,4.54,31.17C67.07,88.39,62.52,97.93,59.87,98.32Z"/><path class="cls-36" d="M42.9,58.69c.08-2.48-1.16-15.3-1.83-27.37l-7.48,5.91S49,52.41,36.36,66.93s-13.85,27.57-8,36.63a34.46,34.46,0,0,0,14.53,12.7C42.85,106.23,42.64,67.05,42.9,58.69Z"/><path class="cls-37" d="M60.71,37.71a158.37,158.37,0,0,1,4.52,24.83c1.37,13.72,1,20,0,24.43a64.42,64.42,0,0,1-3.67,10.1s6.1-2.75,7.26-18.39S64.29,40.89,60.71,37.71Z"/><path class="cls-37" d="M45.72,43.84l-.84-15.47L46,27.16s11.15,5.71,23.38,6.65a149,149,0,0,0,23.11-.13l.12,1.38s-2.95,1.38-17.07.44a113.3,113.3,0,0,1-27.6-5.89L46.52,29l.38,64.9Z"/><path class="cls-37" d="M57.24,60S59,62.34,59,69s-.08,10.83-.89,14.55-1.55,4.1-1.55,4.1,2.33,1.54,3.27-8S60.65,61.42,57.24,60Z"/><path class="cls-37" d="M76.3,37.81v.91c0,4.71.21,26.68,2.25,42.85,2.29,18.2,4.57,45.4,4.57,45.4s1.06-14.24,1.06-27.67Z"/><path class="cls-37" d="M92.56,119.73c-.12-1.17-4-37.34-4-37.34s.28,9.17.85,22.63,2.33,19.12,2.33,19.12l2.36-.9A13.38,13.38,0,0,1,92.56,119.73Z"/><path class="cls-37" d="M122.33,36.58l-4.22-3.33,0,10.94s.54-6.83,1-7.78S122.33,38,122.33,38l.82-.74Z"/><path class="cls-37" d="M114.36,30.29l-3.53-2.79.19-4-2,4.71a23.57,23.57,0,0,1-7.14,3.3c-4.26,1.17-7.56,1.84-7.56,1.84l.77,30.22,1.28-28.84s13-4.22,13.57-4.85,1.32,0,2,.25A11.09,11.09,0,0,0,114.36,30.29Z"/><path class="cls-37" d="M35.85,37.22s3.72-3.44,3.86-3.28,1.49-.47,1.49-.47l-.13-2.17-7.48,5.91a40.45,40.45,0,0,1,3.21,4c.91,1.44,3.41,5.82,4.05,8.91a29.06,29.06,0,0,0-1.43-5.78C38.12,41.26,35.85,37.22,35.85,37.22Z"/><path class="cls-37" d="M41,51.24c.08.6.07.51,0,0Z"/><path class="cls-37" d="M41,50.85q0-.35-.12-.72L41,51.24C41,51.13,41,51,41,50.85Z"/><path class="cls-37" d="M36,66.89c-12.62,14.52-13.85,27.57-8,36.63a35.1,35.1,0,0,0,2.32,3.21c-.24-.35-.49-.71-.72-1.07C23.74,96.6,25,83.55,37.59,69c10.11-11.64,2.23-23.7-1.29-28C40,46.41,44.75,56.81,36,66.89Z"/></g></g></svg>