<svg xmlns="http://www.w3.org/2000/svg" xmlns:xlink="http://www.w3.org/1999/xlink" viewBox="0 0 100.88 73.96"><defs><style>.cls-1{fill:url(#linear-gradient);}.cls-2{fill:url(#linear-gradient-2);}.cls-3{fill:url(#linear-gradient-3);}.cls-4{fill:url(#linear-gradient-4);}.cls-5{fill:url(#linear-gradient-5);}.cls-6{fill:url(#linear-gradient-6);}.cls-7{fill:url(#linear-gradient-7);}.cls-8{fill:#cbaab1;}.cls-10,.cls-11,.cls-12,.cls-13,.cls-17,.cls-18,.cls-8,.cls-9{isolation:isolate;}.cls-11,.cls-12,.cls-17,.cls-8{opacity:0.3;}.cls-12,.cls-14,.cls-9{fill:#f6f4ea;}.cls-13,.cls-18,.cls-9{opacity:0.5;}.cls-10,.cls-13{fill:#772781;}.cls-10{opacity:0.75;}.cls-11{fill:#ab2781;}.cls-15{fill:#b8a9bb;}.cls-16{fill:#d96866;}.cls-17,.cls-18{fill:#c9455b;}.cls-19{fill:#63577c;}.cls-20{fill:#baffff;}</style><linearGradient id="linear-gradient" x1="-140.28" y1="142.86" x2="-99.95" y2="142.86" gradientTransform="matrix(-0.51, -0.86, 0.86, -0.51, -123.68, -4.62)" gradientUnits="userSpaceOnUse"><stop offset="0" stop-color="#becaff"/><stop offset="0.03" stop-color="#bcc6fa"/><stop offset="0.06" stop-color="#b6bced"/><stop offset="0.1" stop-color="#adabd7"/><stop offset="0.13" stop-color="#a195bb"/><stop offset="0.16" stop-color="#a598bc"/><stop offset="0.39" stop-color="#c6aec1"/><stop offset="0.62" stop-color="#debfc6"/><stop offset="0.82" stop-color="#ecc9c8"/><stop offset="1" stop-color="#f1ccc9"/></linearGradient><linearGradient id="linear-gradient-2" x1="-140.28" y1="123.22" x2="-99.95" y2="123.22" gradientTransform="matrix(-0.51, -0.86, 0.86, -0.51, -123.68, -4.62)" gradientUnits="userSpaceOnUse"><stop offset="0" stop-color="#366890"/><stop offset="0.15" stop-color="#3a300f"/><stop offset="1" stop-color="#726400"/></linearGradient><linearGradient id="linear-gradient-3" x1="-142.02" y1="155.89" x2="-98.72" y2="155.89" gradientTransform="matrix(-0.51, -0.86, 0.86, -0.51, -123.68, -4.62)" gradientUnits="userSpaceOnUse"><stop offset="0" stop-color="#d93695"/><stop offset="0.17" stop-color="#860427"/><stop offset="0.34" stop-color="#910624"/><stop offset="0.64" stop-color="#af0c1d"/><stop offset="1" stop-color="#db1411"/></linearGradient><linearGradient id="linear-gradient-4" x1="-137.85" y1="85.97" x2="-137.85" y2="124.58" gradientTransform="matrix(-0.51, -0.86, 0.86, -0.51, -123.68, -4.62)" gradientUnits="userSpaceOnUse"><stop offset="0" stop-color="#161236"/><stop offset="1" stop-color="#361e47"/></linearGradient><linearGradient id="linear-gradient-5" x1="34.26" y1="86.34" x2="34.26" y2="125.31" gradientTransform="matrix(0.51, 0.86, 0.86, -0.51, -89.24, 53.89)" xlink:href="#linear-gradient-4"/><linearGradient id="linear-gradient-6" x1="-120.48" y1="82.67" x2="-120.48" y2="126.1" xlink:href="#linear-gradient-4"/><linearGradient id="linear-gradient-7" x1="-142.36" y1="135.03" x2="-98.2" y2="135.03" gradientTransform="matrix(-0.51, -0.86, 0.86, -0.51, -123.68, -4.62)" gradientUnits="userSpaceOnUse"><stop offset="0" stop-color="#886b90"/><stop offset="0.03" stop-color="#83688c"/><stop offset="0.07" stop-color="#765e81"/><stop offset="0.09" stop-color="#675375"/><stop offset="0.3" stop-color="#6b587a"/><stop offset="0.56" stop-color="#776889"/><stop offset="0.84" stop-color="#8b81a2"/><stop offset="1" stop-color="#9993b3"/></linearGradient></defs><g id="Layer_2" data-name="Layer 2"><g id="Layer_1-2" data-name="Layer 1"><path class="cls-1" d="M13.58,32.59c.64,5.88,5.24,14.36,6.5,16.58h0l.16.27.16.27h0C21.75,51.86,27,60,31.89,63.31c0,0,23.86-11.34,40.44-21.47.4-.24.8-.5,1.19-.76,16-10.72,27.77-37.82,27.35-39.65l-.05-.08C99.41.1,69.56-2.46,52.57,6.72c-.3.17-.59.32-.88.5C34.91,17,13.58,32.59,13.58,32.59Z"/><path class="cls-2" d="M13.58,32.59c.64,5.88,5.24,14.36,6.5,16.58h0l.16.27.16.27h0C21.75,51.86,27,60,31.89,63.31c0,0,23.86-11.34,40.44-21.47.4-.24.8-.5,1.19-.76l.34-.47s-.59-18.84-20.59-34l-.7.1c-.3.17-.59.32-.88.5C34.91,17,13.58,32.59,13.58,32.59Z"/><path class="cls-3" d="M72.34,41.85s1.51-1,1.53-1.23c.32-4.8-5.66-22.88-20.59-34-.28-.21-1.29.8-1.57.6,0,0-.39-.34.8-1.81S63.66.1,70.26,0c0,0,14.17,10.69,17.52,29.4,0,0-6.61,9.22-13.4,13.26C73.33,43.28,72.34,41.85,72.34,41.85Z"/><path class="cls-4" d="M54.91,51.68s-5.36,7.87-7.37,9.56S24.22,74.13,23.27,73.94s3.61-15.37,3.61-15.37,3.76,4.12,4.95,4.36S54.91,51.68,54.91,51.68Z"/><path class="cls-5" d="M35.06,17.68s-9.9,1-12.34,1.92S.29,34,0,34.9,15.24,39,15.24,39s-1.67-5.21-1.45-6.4C13.92,32,35.06,17.68,35.06,17.68Z"/><path class="cls-6" d="M44.13,31.11c.67.25,2,3,2.09,3.25s2,2.68,1.86,3.39S41,46,38.43,47.36s-26,12.84-26.55,12.81S9.67,57.79,9,56.53c-.81-1.16-2-3.88-1.85-4.23S28.64,36.66,31.08,35,43.44,30.85,44.13,31.11Z"/><path class="cls-7" d="M70.2,45.15s-.51-7.73-8-20.31-13.92-17-13.92-17-8.06,4-9.78,5.3A8.52,8.52,0,0,0,36,17l2.43-1.24s5.45,3.45,12.71,15.63,7.28,18.34,7.28,18.34L55.7,51.25a13.31,13.31,0,0,0,4.32.07C62.37,50.64,70.2,45.15,70.2,45.15Z"/><path class="cls-8" d="M86.86,25.35c.55,1.76,11.93-17.69,12.63-21.3s-17.32,8.08-17.72,8.4S84.05,16.32,86.86,25.35Z"/><path class="cls-9" d="M98.39,2.49c.43.21-10.9,6.27-13.76,7s-7.1-5.13-8.27-6.53S90-1.71,98.39,2.49Z"/><path class="cls-10" d="M72.34,41.85s1.12,1,1.82.94,4.44-6.62-5.46-22.11C59.29,6,52.7,5.19,52.51,5.42a5.63,5.63,0,0,0-.8,1.81S58,8.67,65.84,21.76,72.34,41.85,72.34,41.85Z"/><path class="cls-10" d="M55.7,51.26s3.58.5,4,.15-.26-9.52-7.05-20.91S38.35,13.65,37.89,13.65,36,17,36,17l.93-.28S43.05,19.6,50.2,31.59s6.24,19.12,6.24,19.12Z"/><path class="cls-11" d="M69.05,39.84c.48,1.36-10.17,6.62-10.21,6.49s-3.5-9.66-5.39-13,6.89-7.72,8-7.73S67.07,34.27,69.05,39.84Z"/><path class="cls-11" d="M75.34,36.21C76,38.05,86.26,29,86.83,26.68s-4.7-12.52-5.56-13.27-10.81,7-11.38,8.87S72.12,27.57,75.34,36.21Z"/><path class="cls-9" d="M79.75,10.67c.7,1.26-10.77,7-12.23,7.29s-8.86-8.13-9.86-9.69S69.88,3.09,72,3.25,78.22,7.93,79.75,10.67Z"/><path class="cls-12" d="M58.91,20.33c.93,2.19-7.52,6.61-8.85,6.5S41.12,16.27,40,15.3s8.54-5.5,9.85-5.06C51.46,10.77,57.89,17.92,58.91,20.33Z"/><path class="cls-13" d="M39.09,46.94c.83-1.72-6.66-12.67-7.33-12.3S7.7,51.6,7.2,52.28s3.41,7.37,4.69,7.87S39.09,46.94,39.09,46.94Z"/><path class="cls-13" d="M15.24,39s-1.79-5.82-1.45-6.4S33.14,19,33.14,19s-11,.88-11.95,1.44S.26,34,0,34.91,15.24,39,15.24,39Z"/><path class="cls-13" d="M52.66,52.86s-5.46,8.66-6,9S24,73.87,23.27,74s3.61-15.37,3.61-15.37,4.27,3.72,5.15,3.78S52.66,52.86,52.66,52.86Z"/><path class="cls-13" d="M32,62.36c1.37.63-8.19,7.85-8.19,7.85s1.89-7.44,3-11.64A32.77,32.77,0,0,0,32,62.36Z"/><path class="cls-12" d="M37.56,42.61c2.24,3.76,8.39-4.51,8.67-6.17s-1.52-4.86-2.55-5.32-10.81,3.51-11.13,3.67S35.16,38.57,37.56,42.61Z"/><path class="cls-9" d="M36.66,41c1.25,2,.09-4.55-.78-5.25s-2.77-.71-2.82-.25S36.66,41,36.66,41Z"/><path class="cls-13" d="M46.88,39.39A86.91,86.91,0,0,1,38.55,52.2c-5,6.33-10.17,7-11.31,6.68s-3.58-4.38-3.58-4.38,15.05-7.09,15.85-7.86S46.88,39.39,46.88,39.39Z"/><path class="cls-11" d="M85.44,21c1.2,1.8,11.92-13.57,11.91-15.44S82.27,11.5,81.78,12.46,85.44,21,85.44,21Z"/><path class="cls-12" d="M44.82,23.86c1.79,2.23-25.53,16.52-26.7,17s-2.74-6.32-1.76-8.62S35.27,18.36,36.45,17.75,44,22.88,44.82,23.86Z"/><path class="cls-14" d="M96.37,2.16c2.13,1.61-1.92,3.05-3.86,2.26S93.5,0,96.37,2.16Z"/><path class="cls-15" d="M70.12,44.48s-.92-8.84-7.45-20.4S48.27,7.8,48.27,7.8,64.88,22.09,70.12,44.48Z"/><path class="cls-16" d="M87.78,29.39a48.11,48.11,0,0,0-6.29-16.67C76.19,3.84,70.26,0,70.26,0S83,10,87.78,29.39Z"/><path class="cls-14" d="M78.38,9.18c.41,1.24-4.09.09-5.82-1s0-4.3.74-4.45S77.8,7.44,78.38,9.18Z"/><path class="cls-14" d="M58.08,18.93c0,1.62-4,.34-5-1.43s0-2.93.81-3.18S58.08,18.44,58.08,18.93Z"/><path class="cls-17" d="M45.86,46.16c-3.12,1.87-5.24,4.41-3.35,5.14,2.26.87,4.33,2.44,7.08.5l1.51-1c2.42-1.68,4.78-3.53,2.77-5.2,0,0-2.19-2.17-6.2-.35A16.43,16.43,0,0,0,45.86,46.16Z"/><path class="cls-18" d="M45.86,46.16l-.34.28a11,11,0,0,1,4-1.34c2.06-.19,3.94.13,4,1.82s-2.45,3.82-2.45,3.82c2.42-1.68,4.78-3.53,2.77-5.2,0,0-2.19-2.17-6.2-.35A17.48,17.48,0,0,0,45.86,46.16Z"/><path class="cls-17" d="M38.77,54.2c-1.56,1.21-2.49,2.72-1.37,3,1.33.35,2.64,1.09,4-.13.23-.22.49-.44.74-.66,1.18-1.06,2.32-2.21,1.05-3a3.14,3.14,0,0,0-3.47.17A6.54,6.54,0,0,0,38.77,54.2Z"/><path class="cls-18" d="M38.77,54.2l-.16.17a5.78,5.78,0,0,1,2.1-1c1.13-.22,2.2-.15,2.41.77s-1,2.24-1,2.24c1.18-1.06,2.32-2.21,1.05-3a3.14,3.14,0,0,0-3.47.17A6.54,6.54,0,0,0,38.77,54.2Z"/><path class="cls-17" d="M87.31,11.63c-1.35,1.43-2,3.07-.9,3.19,1.37.14,2.77.68,3.91-.74.2-.25.42-.5.63-.77,1-1.23,2-2.54.57-3.14a3.14,3.14,0,0,0-3.41.69A9.7,9.7,0,0,0,87.31,11.63Z"/><path class="cls-18" d="M87.31,11.63l-.14.2a5.83,5.83,0,0,1,1.93-1.27c1.08-.39,2.15-.49,2.5.39S91,13.31,91,13.31c1-1.23,2-2.54.57-3.14a3.14,3.14,0,0,0-3.41.69A9.7,9.7,0,0,0,87.31,11.63Z"/><path class="cls-19" d="M31.45,19.12s-7.34,1.38-9.83,2.28a91.22,91.22,0,0,0-8.46,4.25s7.24-5,9.36-6S31.45,19.12,31.45,19.12Z"/><path class="cls-19" d="M43.06,63.78a26.69,26.69,0,0,0,5.27-4.53c1.58-2.1,3.58-5.21,3.58-5.21s-2.58,5.79-4.07,6.89A53.33,53.33,0,0,1,43.06,63.78Z"/><path class="cls-20" d="M87.84,26.42s8.17-14.13,13-25C100.87,1.44,100.26,8.37,87.84,26.42Z"/></g></g></svg>