<svg xmlns="http://www.w3.org/2000/svg" xmlns:xlink="http://www.w3.org/1999/xlink" viewBox="0 0 58.19 120.52"><defs><style>.cls-1{fill:url(#linear-gradient);}.cls-2{fill:url(#linear-gradient-2);}.cls-3{fill:url(#linear-gradient-3);}.cls-4{fill:url(#linear-gradient-4);}.cls-15,.cls-5,.cls-7{fill:#f6f4ea;}.cls-10,.cls-12,.cls-13,.cls-15,.cls-18,.cls-20,.cls-21,.cls-5,.cls-6,.cls-7,.cls-9{isolation:isolate;}.cls-20,.cls-5{opacity:0.3;}.cls-12,.cls-6{fill:#772781;}.cls-6{opacity:0.9;}.cls-12,.cls-13,.cls-18,.cls-21,.cls-7,.cls-9{opacity:0.5;}.cls-8{fill:url(#linear-gradient-5);}.cls-9{fill:#ab2781;}.cls-10,.cls-11{fill:#fff;}.cls-10{opacity:0.4;}.cls-13{fill:#ffffea;}.cls-14{fill:#baffff;}.cls-15{opacity:0.8;}.cls-16{fill:#ff6068;}.cls-17{fill:#77001d;}.cls-18{fill:#967566;}.cls-19{fill:#ff7981;}.cls-20,.cls-21{fill:#81205b;}.cls-22{fill:#cc6b81;}</style><linearGradient id="linear-gradient" x1="4.1" y1="60.61" x2="56.78" y2="77.73" gradientTransform="matrix(1, 0, 0, -1, 0, 120.77)" gradientUnits="userSpaceOnUse"><stop offset="0" stop-color="#9c0027"/><stop offset="0.29" stop-color="#950026"/><stop offset="0.4" stop-color="#af0526"/><stop offset="0.53" stop-color="#c70a25"/><stop offset="0.66" stop-color="#d80d25"/><stop offset="0.81" stop-color="#e20f25"/><stop offset="1" stop-color="#e51025"/></linearGradient><linearGradient id="linear-gradient-2" x1="13.2" y1="111.12" x2="44.84" y2="111.12" gradientTransform="matrix(1, 0, 0, -1, 0, 120.77)" gradientUnits="userSpaceOnUse"><stop offset="0" stop-color="#725f72"/><stop offset="0.18" stop-color="#766476"/><stop offset="0.38" stop-color="#817181"/><stop offset="0.58" stop-color="#938794"/><stop offset="0.79" stop-color="#aca6ae"/><stop offset="0.99" stop-color="#c9cacd"/></linearGradient><linearGradient id="linear-gradient-3" x1="22.31" y1="15.17" x2="37.78" y2="25.52" gradientTransform="matrix(1, 0, 0, -1, 0, 120.77)" gradientUnits="userSpaceOnUse"><stop offset="0" stop-color="#161236"/><stop offset="1" stop-color="#361e47"/></linearGradient><linearGradient id="linear-gradient-4" x1="-2.78" y1="19.17" x2="21.06" y2="35.13" xlink:href="#linear-gradient-3"/><linearGradient id="linear-gradient-5" x1="73.52" y1="19.17" x2="97.37" y2="35.13" gradientTransform="translate(134.5 120.77) rotate(180)" xlink:href="#linear-gradient-3"/></defs><g id="Layer_2" data-name="Layer 2"><g id="Layer_1-2" data-name="Layer 1"><path class="cls-1" d="M55.12,57.37C47.49,75.65,38.41,84.15,38.84,95.13c0,0-4.19,6.31-9.65,6.31-5.91,0-9.65-6.31-9.65-6.31.35-9.08-5.79-16.45-12.23-29.07-1.36-2.64-2.72-5.53-4-8.69-4.68-11.2,1.86-28.62,10.23-40.89h0C18.78,8.73,24.79,3.05,29.18,2.26,40.53,4.29,62.74,39.1,55.12,57.37Z"/><path class="cls-2" d="M13.2,16.91a49.4,49.4,0,0,0,31.64-.47S35.17,0,29.18,0,13.2,16.91,13.2,16.91Z"/><path class="cls-3" d="M20.07,95.93S21.36,111,29.18,111s9.06-15.1,9.06-15.1S30.53,103.91,20.07,95.93Z"/><path class="cls-4" d="M7.63,66.7S.67,82.2.09,85.32s1.61,27.11,10.22,35.1c2.23,2.07,9.18-27.48,9.18-27.48s1.76-3.09-1.59-10.8S7.63,66.7,7.63,66.7Z"/><path class="cls-5" d="M.09,85.32c.16,2.5,3.36,13.11,3.36,13.11S10.31,85.88,11,80.26s-3.4-13.57-3.4-13.57S-.06,83.06.09,85.32Z"/><path class="cls-6" d="M20,90.73C18.83,84.52,12.43,80.1,11,77.21S7.62,66.69,7.62,66.69,20.16,79.29,20,90.73Z"/><path class="cls-7" d="M4,97.35c-2-2-6.81-19.37,6.65-18.64C11.77,78.77,12.71,83.46,4,97.35Z"/><path class="cls-8" d="M50.57,66.7s7,15.5,7.54,18.62-1.61,27.11-10.22,35.1c-2.23,2.07-9.18-27.48-9.18-27.48S37,89.85,40.3,82.14,50.57,66.7,50.57,66.7Z"/><path class="cls-5" d="M58.11,85.32c-.16,2.5-3.36,13.11-3.36,13.11s-6.86-12.55-7.58-18.17,3.4-13.57,3.4-13.57S58.25,83.06,58.11,85.32Z"/><path class="cls-6" d="M38.25,90.73c1.12-6.21,7.52-10.63,8.94-13.52s3.39-10.52,3.39-10.52S38,79.29,38.25,90.73Z"/><path class="cls-7" d="M54.17,97.35c2-2,6.81-19.37-6.65-18.64C46.43,78.77,45.49,83.46,54.17,97.35Z"/><path class="cls-9" d="M4,35.69C1.1,47.15,2.05,51,5.6,55.07s32.89,8,40.75,6.22-2.93,16.7-10.56,24S12,72.27,6.79,65,.38,47.69,4,35.69Z"/><path class="cls-10" d="M28.3,20.74c-12.15,2.55-14.11,30.8-9.64,35.52S39.5,64,49.09,58.53,55.36,15.05,28.3,20.74Z"/><path class="cls-11" d="M30.77.34c-2.84-1.74-5.42,16.18-3.91,18.09s13.66-1.54,15.26-1.56S39.65,5.77,30.77.34Z"/><path class="cls-12" d="M25.49,19.21c-4.42-.45-4.67-7.67-1.44-13.94S28.26.74,28,5,25.49,19.21,25.49,19.21Z"/><path class="cls-13" d="M14.18,15.33c-1,1.55,3.47,2,5.77-1.8S24.94,2,24.94,2A104.8,104.8,0,0,0,14.18,15.33Z"/><path class="cls-14" d="M7.62,66.19l-.32-.13c-1.36-2.64-2.72-5.53-4-8.69-4.68-11.2,1.86-28.62,10.23-40.89-.23.48-7.18,14.85-9.2,25.89C2.24,53.59,7.62,66.19,7.62,66.19Z"/><path class="cls-15" d="M37.08,50.06c-1.8,3.63,5.15,6.74,7.11,3.51S40.32,43.52,37.08,50.06Z"/><path class="cls-12" d="M21.36,101.44c-.27-4.88,8.42-.56,10.15,2.79s-.32,6.61-3.89,6S21.46,103.41,21.36,101.44Z"/><path class="cls-7" d="M28.32,99.86c-1.42.14,2.05,3.51,3.18,4.37s3.45-3.45,3.72-4.37S31,99.59,28.32,99.86Z"/><path class="cls-9" d="M6.43,56.25c-1.52-.59,3.46,12.31,14.32,16.34s17.08-10.28,17.48-11S22.37,62.46,6.43,56.25Z"/><path class="cls-6" d="M13.2,16.91s14.07,5.59,31.64-.47C44.85,16.44,29.85,26.11,13.2,16.91Z"/><path class="cls-6" d="M4,35.69s2.09,7.56,24,7.56,26-8.82,26-8.82S50.87,44.85,28,44.85,4,35.69,4,35.69Z"/><path class="cls-16" d="M13.49,43.11S18.23,45.79,28,46s15.14-3.22,15.14-3.22S28.33,46.76,13.49,43.11Z"/><path class="cls-16" d="M20.69,19.92s3.25,1.94,9.46,1.73a19.56,19.56,0,0,0,10-3S29.18,22.56,20.69,19.92Z"/><path class="cls-17" d="M16.71,54.14c-1.44-1-7,6.54-3.45,9.61S19.84,56.29,16.71,54.14Z"/><path class="cls-18" d="M12.75,58.22c-1.53,4.43,3.49,3.79,4.92.11s-1.74-4.24-2.2-3.86A13.77,13.77,0,0,0,12.75,58.22Z"/><path class="cls-19" d="M13.77,64.09c-1.46-1.74,3.47-3.45,4-4.27S16,65.72,13.77,64.09Z"/><path class="cls-20" d="M13.44,50.14c0,3.64-1.28,6.76-3.13,5.51-2.2-1.49-5-2.47-4.69-5.83.06-.59.09-1.21.15-1.84.24-2.94.67-5.91,3.53-5a5.72,5.72,0,0,1,4,5.15A14.18,14.18,0,0,1,13.44,50.14Z"/><path class="cls-21" d="M13.44,50.14l-.08.44a9.76,9.76,0,0,0-1-4.13c-1-1.87-2.47-3.32-4.2-2.53S5.76,48,5.76,48c.24-2.94.67-5.91,3.53-5a5.72,5.72,0,0,1,4,5.15A12.91,12.91,0,0,1,13.44,50.14Z"/><path class="cls-20" d="M46.25,31.49C46,33.45,45,35,44.07,34.21c-1.14-1-2.65-1.71-2.23-3.49.08-.31.14-.64.22-1,.36-1.56.82-3.13,2.38-2.44a3.15,3.15,0,0,1,1.89,3.07A5.91,5.91,0,0,1,46.25,31.49Z"/><path class="cls-21" d="M46.25,31.49l-.08.23a5.07,5.07,0,0,0-.29-2.3c-.45-1.08-1.15-2-2.19-1.67s-1.63,2-1.63,2c.36-1.56.82-3.13,2.38-2.44a3.15,3.15,0,0,1,1.89,3.07A5.87,5.87,0,0,1,46.25,31.49Z"/><path class="cls-22" d="M11.9,102.51c-.56,1.64-1.66,3.69-2.67,1.82a5.67,5.67,0,0,1-.46-3.66C6.27,99.26,4,98.14,3.44,98.43c-1.34.68-1.25,5-1.25,5l1.61,5.24c.6-4,10.1,4.82,10.1,4.82l2.38-8.28S14.31,104,11.9,102.51Zm-.79,5.06c.05-.43.75-.54.71.5S11,108.92,11.11,107.57Z"/><path class="cls-22" d="M54.72,98.43c-.8-.41-5.2,2.09-8.63,4.17h0c.68,3.85-.55,3.85-1.68,1l-2.54,1.63,2.38,8.28s9.49-8.81,10.1-4.82L56,103.47S56.05,99.12,54.72,98.43Zm-6.5,6.81a1.85,1.85,0,0,1-1.14-2C47.3,102.14,48.73,105.45,48.22,105.24Z"/><path class="cls-6" d="M.21,90.73S2.14,95.81,4,100.88s6.33,19.53,6.33,19.53S1.62,111.67.21,90.73Z"/><path class="cls-6" d="M57.93,90.73S56,95.81,54.16,100.88s-6.33,19.53-6.33,19.53S56.52,111.67,57.93,90.73Z"/></g></g></svg>