<svg xmlns="http://www.w3.org/2000/svg" xmlns:xlink="http://www.w3.org/1999/xlink" viewBox="0 0 138.37 151.67"><defs><style>.cls-1{fill:none;}.cls-2{clip-path:url(#clip-path);}.cls-3{fill:#b84789;}.cls-4{fill:#b84788;}.cls-5{fill:#b74687;}.cls-6{fill:#b74686;}.cls-7{fill:#b74685;}.cls-8{fill:#b64684;}.cls-9{fill:#b64583;}.cls-10{fill:#b64582;}.cls-11{fill:#b54581;}.cls-12{fill:#b54580;}.cls-13{fill:#b5447f;}.cls-14{fill:#b4447e;}.cls-15{fill:#b4447d;}.cls-16{fill:#b4447c;}.cls-17{fill:#b3437b;}.cls-18{fill:#b3437a;}.cls-19{fill:#b24379;}.cls-20{fill:#b24378;}.cls-21{fill:#b24277;}.cls-22{fill:#b14276;}.cls-23{fill:#b14275;}.cls-24{fill:#b14274;}.cls-25{fill:#b04173;}.cls-26{fill:#b04172;}.cls-27{fill:#b04171;}.cls-28{fill:#af4070;}.cls-29{fill:#af406f;}.cls-30{fill:#af406e;}.cls-31{fill:#ae406d;}.cls-32{fill:#ae3f6c;}.cls-33{fill:#ae3f6b;}.cls-34{fill:#ad3f6a;}.cls-35{fill:#ad3f69;}.cls-36{fill:#ad3e68;}.cls-37{fill:#ac3e67;}.cls-38{fill:#ac3e66;}.cls-39{fill:#ac3e65;}.cls-40{fill:#ab3d64;}.cls-41{fill:#ab3d63;}.cls-42{fill:#ab3d62;}.cls-43{fill:#aa3d61;}.cls-44{fill:#aa3c60;}.cls-45{fill:#a93c5f;}.cls-46{fill:#a93c5e;}.cls-47{fill:#a93b5d;}.cls-48{fill:#a83b5c;}.cls-49{fill:#a83b5b;}.cls-50{fill:#a83b5a;}.cls-51{fill:#a73a59;}.cls-52{fill:#a73a58;}.cls-53{fill:#a73a57;}.cls-54{fill:#a63a56;}.cls-55{fill:#a63955;}.cls-56{fill:#a63954;}.cls-57{fill:#a53952;}.cls-58{fill:#a53951;}.cls-59{fill:#a53850;}.cls-60{fill:#a4384f;}.cls-61{fill:#a4384e;}.cls-62{fill:#a4384d;}.cls-63{fill:#a3374c;}.cls-64{fill:#a3374b;}.cls-65{fill:#a3374a;}.cls-66{fill:#a23749;}.cls-67{fill:#a23648;}.cls-68{fill:#a23647;}.cls-69{fill:#a13646;}.cls-70{fill:#a13545;}.cls-71{fill:#a03544;}.cls-72{fill:#a03543;}.cls-73{fill:#a03542;}.cls-74{fill:#9f3441;}.cls-75{fill:#9f3440;}.cls-76{fill:#9f343f;}.cls-77{fill:#9e343e;}.cls-78{fill:#9e333d;}.cls-79{fill:#9e333c;}.cls-80{fill:#9d333b;}.cls-81{fill:#9d333a;}.cls-82{fill:#9d3239;}.cls-83{fill:#9c3238;}.cls-84{fill:#9c3237;}.cls-85{fill:#9c3236;}.cls-86{fill:#9b3135;}.cls-87{fill:#9b3134;}.cls-88{fill:#9b3133;}.cls-89{fill:#9a3032;}.cls-90{fill:#9a3031;}.cls-91{fill:#9a3030;}.cls-92{fill:#99302f;}.cls-93{fill:#992f2e;}.cls-94{fill:#992f2d;}.cls-95{fill:#982f2c;}.cls-96{fill:#982f2b;}.cls-97{fill:#972e2a;}.cls-98{fill:#972e29;}.cls-99{fill:#972e28;}.cls-100{fill:#962e27;}.cls-101{fill:#962d26;}.cls-102{fill:#962d25;}.cls-103{fill:#952d24;}.cls-104{fill:#952d23;}.cls-105{fill:#952c22;}.cls-106{fill:#942c21;}.cls-107{fill:#942c20;}.cls-108{fill:#942c1f;}.cls-109{fill:#932b1e;}.cls-110{fill:#932b1d;}.cls-111{fill:#952d1d;}.cls-112{fill:#982f1c;}.cls-113{fill:#9a301c;}.cls-114{fill:#9d321b;}.cls-115{fill:#9f341b;}.cls-116{fill:#a1351b;}.cls-117{fill:#a3371a;}.cls-118{fill:#a6391a;}.cls-119{fill:#a83a1a;}.cls-120{fill:#aa3c19;}.cls-121{fill:#ac3d19;}.cls-122{fill:#ae3f19;}.cls-123{fill:#b04018;}.cls-124{fill:#b24218;}.cls-125{fill:#b44318;}.cls-126{fill:#b64517;}.cls-127{fill:#b84617;}.cls-128{fill:#b94717;}.cls-129{fill:#bb4917;}.cls-130{fill:#bd4a16;}.cls-131{fill:#bf4b16;}.cls-132{fill:#c04c16;}.cls-133{fill:#c24e15;}.cls-134{fill:#c44f15;}.cls-135{fill:#c55015;}.cls-136{fill:#c75115;}.cls-137{fill:#c85214;}.cls-138{fill:#ca5314;}.cls-139{fill:#cb5414;}.cls-140{fill:#cd5514;}.cls-141{fill:#ce5614;}.cls-142{fill:#cf5713;}.cls-143{fill:#d15813;}.cls-144{fill:#d25913;}.cls-145{fill:#d35a13;}.cls-146{fill:#d65c12;}.cls-147{fill:#d75d12;}.cls-148{fill:#d85e12;}.cls-149{fill:#da5f12;}.cls-150{fill:#db6011;}.cls-151{fill:#dc6111;}.cls-152{fill:#e06411;}.cls-153{fill:#e26510;}.cls-154{fill:#e36610;}.cls-155{fill:#e46610;}.cls-156{fill:#e46710;}.cls-157{fill:#e56710;}.cls-158{fill:#e66810;}.cls-159{fill:#e76910;}.cls-160{fill:#e8690f;}.cls-161{fill:#e86a0f;}.cls-162{fill:#e96a0f;}.cls-163{fill:#ea6b0f;}.cls-164{fill:#eb6b0f;}.cls-165{fill:#eb6c0f;}.cls-166{fill:#ec6c0f;}.cls-167{fill:#ec6d0f;}.cls-168{fill:#ed6d0f;}.cls-169{fill:#ee6d0f;}.cls-170{fill:#ee6e0e;}.cls-171{fill:#ef6e0e;}.cls-172{fill:#ef6f0e;}.cls-173{fill:#f06f0e;}.cls-174{fill:#f0700e;}.cls-175{fill:#f1700e;}.cls-176{fill:url(#linear-gradient);}.cls-177,.cls-185,.cls-186,.cls-190{fill:#baffff;}.cls-177,.cls-178,.cls-179,.cls-180,.cls-181,.cls-183,.cls-185,.cls-186,.cls-187,.cls-188,.cls-189,.cls-190{isolation:isolate;}.cls-177,.cls-181,.cls-183,.cls-188{opacity:0.5;}.cls-178{fill:#7c6363;opacity:0.8;}.cls-179,.cls-180,.cls-189{fill:#72484a;}.cls-179{opacity:0.42;}.cls-180,.cls-185,.cls-187{opacity:0.3;}.cls-181,.cls-182{fill:#f6f4ea;}.cls-183{fill:#ab0081;}.cls-184{fill:#b8ce66;}.cls-186,.cls-189{opacity:0.2;}.cls-187,.cls-188{fill:#684759;}.cls-190{opacity:0.89;}</style><clipPath id="clip-path" transform="translate(0 74.03)"><path class="cls-1" d="M57.27,12.72S56.2,18,61.88,25.32s11.06,7.54,11.06,7.54c4.77-2.95,20.9-27.68,21-31.92a.7.7,0,0,0-.11-.49C92.15-1.7,63.29,8.56,57.27,12.72Z"/></clipPath><linearGradient id="linear-gradient" x1="32.36" y1="-20.52" x2="66.89" y2="-20.52" gradientTransform="translate(81.9 72.21) rotate(-127.87)" gradientUnits="userSpaceOnUse"><stop offset="0" stop-color="#366890"/><stop offset="0.15" stop-color="#3a300f"/><stop offset="1" stop-color="#726400"/></linearGradient></defs><g id="Layer_2" data-name="Layer 2"><g id="Layer_1-2" data-name="Layer 1"><g class="cls-2"><rect class="cls-3" x="56.2" y="72.33" width="37.74" height="34.57"/></g><g class="cls-2"><path class="cls-3" d="M59.71-4.44c-3,2.54-5.79,5.11-8.43,7.68H55.2V33.87H65.53v2.41A165,165,0,0,0,83.19,23.06,166.21,166.21,0,0,0,99,7.68H94.94V-2.7H59.71Z" transform="translate(0 74.03)"/></g><g class="cls-2"><path class="cls-4" d="M59.74-4.4c-3,2.53-5.77,5.09-8.4,7.66H55.2V33.87H65.55V36.2A165.07,165.07,0,0,0,83.16,23,166.37,166.37,0,0,0,98.93,7.69h-4V-2.7H59.74V-4.4Z" transform="translate(0 74.03)"/></g><g class="cls-2"><path class="cls-5" d="M59.78-4.36C56.83-1.84,54,.72,51.4,3.28h3.8V33.87H65.57v2.25A165.45,165.45,0,0,0,83.13,23,164.16,164.16,0,0,0,98.85,7.69H94.94V-2.7H59.78V-4.36Z" transform="translate(0 74.03)"/></g><g class="cls-2"><path class="cls-6" d="M59.81-4.32C56.87-1.81,54.08.74,51.46,3.29H55.2V33.86H65.58V36a163.39,163.39,0,0,0,17.5-13.1A165.5,165.5,0,0,0,98.75,7.68H94.93V-2.71H59.8V-4.32Z" transform="translate(0 74.03)"/></g><g class="cls-2"><path class="cls-7" d="M59.85-4.28C56.92-1.77,54.13.77,51.52,3.31H55.2V33.86H65.6v2.08A163.42,163.42,0,0,0,83.05,22.88,163.39,163.39,0,0,0,98.68,7.69H94.94V-2.71H59.85V-4.28Z" transform="translate(0 74.03)"/></g><g class="cls-2"><path class="cls-8" d="M59.88-4.23c-2.92,2.5-5.7,5-8.3,7.57H55.2V33.88H65.62v2a162.45,162.45,0,0,0,17.4-13A161.2,161.2,0,0,0,98.6,7.71H95V-2.69H59.89V-4.23Z" transform="translate(0 74.03)"/></g><g class="cls-2"><path class="cls-9" d="M59.92-4.19C57-1.7,54.24.83,51.64,3.35H55.2V33.87H65.64v1.92A161.74,161.74,0,0,0,83,22.81,162.51,162.51,0,0,0,98.51,7.71H94.94V-2.7h-35Z" transform="translate(0 74.03)"/></g><g class="cls-2"><path class="cls-10" d="M60-4.15c-2.91,2.48-5.66,5-8.25,7.52H55.2v30.5H65.66V35.7A160.77,160.77,0,0,0,83,22.76a161.45,161.45,0,0,0,15.48-15H94.94V-2.7H60Z" transform="translate(0 74.03)"/></g><g class="cls-2"><path class="cls-11" d="M60-4.11c-2.9,2.47-5.65,5-8.22,7.5H55.2V33.87H65.67v1.75A161.07,161.07,0,0,0,82.9,22.72a161.63,161.63,0,0,0,15.43-15h-3.4V-2.71H60v-1.4Z" transform="translate(0 74.03)"/></g><g class="cls-2"><path class="cls-12" d="M60-4.07C57.14-1.6,54.4.9,51.83,3.4H55.2V33.86H65.69v1.67A160.09,160.09,0,0,0,82.87,22.67a160.73,160.73,0,0,0,15.39-15H94.94V-2.71H60V-4.07Z" transform="translate(0 74.03)"/></g><g class="cls-2"><path class="cls-13" d="M60.06-4Q55.74-.33,51.89,3.43H55.2V33.87H65.71v1.59A160.46,160.46,0,0,0,82.84,22.64,162.08,162.08,0,0,0,98.18,7.73H94.94V-2.7H60.06Z" transform="translate(0 74.03)"/></g><g class="cls-2"><path class="cls-14" d="M60.1-4C57.23-1.53,54.51,1,52,3.45H55.2V33.88H65.73v1.51A159.42,159.42,0,0,0,82.8,22.61,158.66,158.66,0,0,0,98.09,7.74H94.94V-2.69H60.1V-4Z" transform="translate(0 74.03)"/></g><g class="cls-2"><path class="cls-15" d="M60.13-3.94C57.27-1.5,54.56,1,52,3.46H55.2V33.87H65.75v1.42a158.44,158.44,0,0,0,17-12.74A158.8,158.8,0,0,0,98,7.73H94.94V-2.71H60.13V-3.94Z" transform="translate(0 74.03)"/></g><g class="cls-2"><path class="cls-16" d="M60.17-3.9C57.32-1.46,54.61,1,52.07,3.48H55.2V33.87H65.76v1.34a158.47,158.47,0,0,0,17-12.7A158.93,158.93,0,0,0,97.92,7.74h-3V-2.7H60.17Z" transform="translate(0 74.03)"/></g><g class="cls-2"><path class="cls-17" d="M60.21-3.86C57.37-1.43,54.67,1,52.14,3.5H55.2V33.87H65.78v1.26A156.77,156.77,0,0,0,82.69,22.47,159.24,159.24,0,0,0,97.84,7.75h-2.9V-2.7H60.21V-3.86Z" transform="translate(0 74.03)"/></g><g class="cls-2"><path class="cls-18" d="M60.24-3.82c-2.83,2.42-5.52,4.88-8.05,7.33h3V33.86h10.6V35A156.8,156.8,0,0,0,82.65,22.42,158.21,158.21,0,0,0,97.75,7.74H94.93V-2.71H60.23V-3.82Z" transform="translate(0 74.03)"/></g><g class="cls-2"><path class="cls-19" d="M60.28-3.77c-2.82,2.41-5.5,4.86-8,7.31H55.2V33.87H65.82V35a156.09,156.09,0,0,0,16.8-12.58,158.36,158.36,0,0,0,15-14.63H94.94V-2.7H60.28V-3.77Z" transform="translate(0 74.03)"/></g><g class="cls-2"><path class="cls-20" d="M60.31-3.73c-2.82,2.4-5.49,4.84-8,7.29H55.2V33.87H65.84v1A158.68,158.68,0,0,0,82.59,22.35a158.5,158.5,0,0,0,15-14.58H94.94V-2.69H60.31v-1Z" transform="translate(0 74.03)"/></g><g class="cls-2"><path class="cls-21" d="M60.35-3.69c-2.81,2.4-5.47,4.83-8,7.26H55.2v30.3H65.85v.93a157.7,157.7,0,0,0,16.7-12.49,156.27,156.27,0,0,0,15-14.54H94.94V-2.7H60.35v-1Z" transform="translate(0 74.03)"/></g><g class="cls-2"><path class="cls-22" d="M60.38-3.65q-4.2,3.58-7.94,7.24H55.2V33.87H65.87v.85A157,157,0,0,0,82.51,22.27,154.07,154.07,0,0,0,97.41,7.78H94.93V-2.69H60.37v-1Z" transform="translate(0 74.03)"/></g><g class="cls-2"><path class="cls-23" d="M60.42-3.61C57.63-1.23,55,1.19,52.5,3.61h2.7V33.87H65.89v.77A155.66,155.66,0,0,0,82.48,22.23,155.5,155.5,0,0,0,97.34,7.79h-2.4V-2.69H60.42Z" transform="translate(0 74.03)"/></g><g class="cls-2"><path class="cls-24" d="M60.46-3.56C57.68-1.19,55,1.22,52.57,3.63H55.2V33.87H65.91v.69A156,156,0,0,0,82.45,22.19,154.5,154.5,0,0,0,97.26,7.79H95V-2.69H60.47v-.87Z" transform="translate(0 74.03)"/></g><g class="cls-2"><path class="cls-25" d="M60.49-3.52c-2.77,2.37-5.4,4.77-7.87,7.17h2.57V33.87H65.92v.6A154,154,0,0,0,82.4,22.14,154.63,154.63,0,0,0,97.16,7.79H94.93V-2.7H60.48v-.82Z" transform="translate(0 74.03)"/></g><g class="cls-2"><path class="cls-26" d="M60.53-3.48Q56.39.06,52.69,3.67H55.2v30.2H65.94v.52A154.36,154.36,0,0,0,82.37,22.1,154.78,154.78,0,0,0,97.08,7.8H94.93V-2.69H60.52v-.79Z" transform="translate(0 74.03)"/></g><g class="cls-2"><path class="cls-27" d="M60.56-3.44C57.81-1.09,55.2,1.3,52.75,3.68H55.2V33.87H66v.44A154.39,154.39,0,0,0,82.34,22.06,153.75,153.75,0,0,0,97,7.8H94.94V-2.7H60.56v-.74Z" transform="translate(0 74.03)"/></g><g class="cls-2"><path class="cls-28" d="M60.6-3.4c-2.74,2.34-5.35,4.72-7.79,7.1H55.2V33.87H66v.36A154.71,154.71,0,0,0,82.3,22,152.85,152.85,0,0,0,96.92,7.81h-2V-2.69H60.6Z" transform="translate(0 74.03)"/></g><g class="cls-2"><path class="cls-29" d="M60.63-3.36C57.9-1,55.3,1.34,52.87,3.72H55.2V33.87H66v.28A152.7,152.7,0,0,0,82.27,22,153,153,0,0,0,96.84,7.82H95V-2.69H60.65v-.67Z" transform="translate(0 74.03)"/></g><g class="cls-2"><path class="cls-30" d="M60.67-3.31C57.94-1,55.36,1.38,52.93,3.74H55.2V33.87H66v.19A153,153,0,0,0,82.23,21.93,152,152,0,0,0,96.75,7.81H94.94V-2.7H60.67Z" transform="translate(0 74.03)"/></g><g class="cls-2"><path class="cls-31" d="M60.71-3.27Q56.63.21,53,3.76h2.21V33.87H66V34A150.68,150.68,0,0,0,82.2,21.89,150.92,150.92,0,0,0,96.67,7.82H94.94V-2.7H60.71v-.57Z" transform="translate(0 74.03)"/></g><g class="cls-2"><path class="cls-32" d="M60.74-3.23c-2.71,2.31-5.28,4.66-7.69,7h2.14V33.87H66v0a152.07,152.07,0,0,0,16.11-12,151,151,0,0,0,14.42-14H94.93V-2.69H60.73v-.54Z" transform="translate(0 74.03)"/></g><g class="cls-2"><path class="cls-33" d="M60.78-3.19c-2.7,2.3-5.26,4.64-7.66,7H55.2V33.86h3.25v4.47c2.46-1.33,5-2.84,7.62-4.52a149,149,0,0,0,16.05-12,150.2,150.2,0,0,0,14.38-14H94.94V-2.71H60.78v-.48Z" transform="translate(0 74.03)"/></g><g class="cls-2"><path class="cls-34" d="M60.81-3.15c-2.69,2.3-5.24,4.63-7.63,7h2V33.87h3.29v4.37c2.45-1.32,5-2.83,7.6-4.5a150.38,150.38,0,0,0,16-12A150.33,150.33,0,0,0,96.42,7.84H95V-2.69H60.82v-.46Z" transform="translate(0 74.03)"/></g><g class="cls-2"><path class="cls-35" d="M60.85-3.1c-2.68,2.29-5.22,4.61-7.61,6.93h2v30h3.33v4.27q3.67-2,7.57-4.49a150.41,150.41,0,0,0,16-11.93A150.48,150.48,0,0,0,96.33,7.84H94.94V-2.7H60.85Z" transform="translate(0 74.03)"/></g><g class="cls-2"><path class="cls-36" d="M60.88-3.06c-2.67,2.28-5.21,4.6-7.58,6.91h1.9v30h3.38V38c2.44-1.31,5-2.81,7.55-4.47A149.7,149.7,0,0,0,82,21.68,148.27,148.27,0,0,0,96.25,7.84H94.94V-2.7h-34v-.36Z" transform="translate(0 74.03)"/></g><g class="cls-2"><path class="cls-37" d="M60.92-3c-2.66,2.27-5.19,4.58-7.56,6.89H55.2v30h3.42V38c2.43-1.31,5-2.8,7.52-4.46A148.72,148.72,0,0,0,82,21.64,148.39,148.39,0,0,0,96.16,7.85H94.94V-2.7h-34Z" transform="translate(0 74.03)"/></g><g class="cls-2"><path class="cls-38" d="M61-3c-2.65,2.27-5.17,4.56-7.53,6.86h1.78v30h3.47v4c2.42-1.3,4.93-2.79,7.5-4.44A148,148,0,0,0,82,21.59,146.18,146.18,0,0,0,96.09,7.85H95V-2.7H61V-3Z" transform="translate(0 74.03)"/></g><g class="cls-2"><path class="cls-39" d="M61-2.94C58.35-.68,55.84,1.61,53.48,3.9h1.71v30H58.7v3.88c2.41-1.3,4.91-2.78,7.47-4.43A146.7,146.7,0,0,0,81.9,21.54,147.67,147.67,0,0,0,96,7.84h-1V-2.72H61Z" transform="translate(0 74.03)"/></g><g class="cls-2"><path class="cls-40" d="M61-2.9q-4,3.38-7.48,6.82H55.2V33.87h3.55v3.79c2.41-1.3,4.9-2.77,7.44-4.41A147.07,147.07,0,0,0,81.87,21.52a146.62,146.62,0,0,0,14-13.65h-1V-2.69H61V-2.9Z" transform="translate(0 74.03)"/></g><g class="cls-2"><path class="cls-41" d="M61.06-2.85C58.43-.61,55.94,1.67,53.6,3.94h1.59V33.87h3.6v3.69c2.4-1.29,4.88-2.76,7.42-4.4A145,145,0,0,0,81.83,21.47a148,148,0,0,0,14-13.6h-.89V-2.7H61.05v-.15Z" transform="translate(0 74.03)"/></g><g class="cls-2"><path class="cls-42" d="M61.1-2.81Q57.17.55,53.67,4H55.2V33.87L52,40.77c8.73-3.67,19.37-10.4,29.84-19.34A146.9,146.9,0,0,0,95.75,7.88H95V-2.69H61.11v-.12Z" transform="translate(0 74.03)"/></g><g class="cls-2"><path class="cls-43" d="M61.14-2.77C58.53-.54,56.06,1.72,53.74,4h1.47V33.87L52,40.66c8.7-3.65,19.3-10.37,29.73-19.28A143.53,143.53,0,0,0,95.66,7.87h-.72V-2.71H61.14v-.06Z" transform="translate(0 74.03)"/></g><g class="cls-2"><path class="cls-44" d="M61.17-2.73C58.57-.51,56.11,1.74,53.79,4H55.2V33.86l-3.1,6.69c8.67-3.64,19.23-10.33,29.63-19.21A146.19,146.19,0,0,0,95.58,7.88h-.64V-2.7H61.17Z" transform="translate(0 74.03)"/></g><g class="cls-2"><path class="cls-45" d="M61.21-2.69C58.62-.48,56.16,1.77,53.86,4h1.35V33.86l-3,6.58c8.64-3.63,19.17-10.3,29.53-19.14A143.92,143.92,0,0,0,95.51,7.89H95V-2.7H69V-8.9Q65.1-6,61.21-2.69Z" transform="translate(0 74.03)"/></g><g class="cls-2"><path class="cls-46" d="M61.24-2.64c-2.58,2.2-5,4.44-7.33,6.68h1.28V33.87l-3,6.47c8.61-3.62,19.1-10.26,29.42-19.08A144.09,144.09,0,0,0,95.39,7.89h-.47V-2.7H69V-8.83C66.41-6.92,63.82-4.85,61.24-2.64Z" transform="translate(0 74.03)"/></g><g class="cls-2"><path class="cls-47" d="M61.28-2.6Q57.43.7,54,4.05H55.2V33.87l-2.9,6.36c8.58-3.6,19-10.22,29.32-19A143,143,0,0,0,95.32,7.9h-.38V-2.7H69V-8.77C66.43-6.86,63.85-4.8,61.28-2.6Z" transform="translate(0 74.03)"/></g><g class="cls-2"><path class="cls-48" d="M61.31-2.56c-2.56,2.19-5,4.41-7.28,6.63h1.16v29.8l-2.83,6.25c8.55-3.59,19-10.19,29.22-18.94A143.19,143.19,0,0,0,95.23,7.91h-.3V-2.69H69v-6C66.45-6.8,63.88-4.75,61.31-2.56Z" transform="translate(0 74.03)"/></g><g class="cls-2"><path class="cls-49" d="M61.35-2.52c-2.55,2.18-5,4.39-7.25,6.61h1.1V33.87L52.44,40C61,36.43,71.34,29.86,81.56,21.13A141,141,0,0,0,95.16,7.9h-.22V-2.71H69V-8.65C66.47-6.75,63.9-4.7,61.35-2.52Z" transform="translate(0 74.03)"/></g><g class="cls-2"><path class="cls-50" d="M61.39-2.48c-2.54,2.17-5,4.38-7.22,6.58h1V33.86l-2.7,6c8.49-3.56,18.83-10.12,29-18.81A142.47,142.47,0,0,0,95.08,7.9H95V-2.71H69V-8.59Q65.21-5.74,61.39-2.48Z" transform="translate(0 74.03)"/></g><g class="cls-2"><path class="cls-51" d="M61.42-2.43Q57.61.82,54.22,4.13h1V33.87L52.57,39.8C61,36.25,71.34,29.72,81.48,21.06A142.61,142.61,0,0,0,95,7.93h0V-2.69H69V-8.51Q65.24-5.69,61.42-2.43Z" transform="translate(0 74.03)"/></g><g class="cls-2"><path class="cls-52" d="M61.46-2.39C58.93-.23,56.54,2,54.29,4.15h.92V33.87l-2.56,5.82c8.43-3.54,18.7-10,28.81-18.68A141.6,141.6,0,0,0,94.92,7.92q2.91-3.25,5.3-6.39H95V-2.7H69.06V-8.45C66.52-6.58,64-4.55,61.46-2.39Z" transform="translate(0 74.03)"/></g><g class="cls-2"><path class="cls-53" d="M61.49-2.35C59-.2,56.58,2,54.34,4.16h.85V33.87L52.7,39.58c8.4-3.53,18.63-10,28.7-18.61a139.34,139.34,0,0,0,13.41-13c1.93-2.16,3.69-4.29,5.28-6.37H94.93V-2.7H69V-8.39C66.54-6.52,64-4.5,61.49-2.35Z" transform="translate(0 74.03)"/></g><g class="cls-2"><path class="cls-54" d="M61.53-2.31C59-.17,56.64,2,54.41,4.18h.79V33.87l-2.43,5.6c8.37-3.51,18.57-10,28.6-18.54a139.49,139.49,0,0,0,13.36-13C96.65,5.79,98.41,3.67,100,1.6h-5V-2.69H69.05V-8.32C66.56-6.46,64-4.45,61.53-2.31Z" transform="translate(0 74.03)"/></g><g class="cls-2"><path class="cls-55" d="M61.56-2.27a139.79,139.79,0,0,0-13.32,13h6.95V33.87l-2.36,5.49c8.34-3.5,18.5-9.94,28.5-18.48A139.79,139.79,0,0,0,94.65,7.93c1.92-2.14,3.67-4.26,5.24-6.32h-5V-2.71H69.06V-8.27C66.57-6.41,64.06-4.4,61.56-2.27Z" transform="translate(0 74.03)"/></g><g class="cls-2"><path class="cls-56" d="M61.6-2.23a138.74,138.74,0,0,0-13.27,12.9H55.2V33.86l-2.29,5.38c8.31-3.49,18.43-9.9,28.39-18.41A138.74,138.74,0,0,0,94.57,7.93c1.91-2.13,3.65-4.24,5.22-6.3H94.94V-2.72H69.07v-5.5C66.59-6.35,64.09-4.35,61.6-2.23Z" transform="translate(0 74.03)"/></g><g class="cls-2"><path class="cls-57" d="M61.64-2.18A138.89,138.89,0,0,0,48.42,10.67H55.2v23.2L53,39.14c8.28-3.48,18.37-9.86,28.29-18.34A138.89,138.89,0,0,0,94.48,8c1.9-2.13,3.64-4.23,5.2-6.27H94.93V-2.69H69.07V-8.13C66.61-6.29,64.12-4.3,61.64-2.18Z" transform="translate(0 74.03)"/></g><g class="cls-2"><path class="cls-58" d="M61.67-2.14A137.86,137.86,0,0,0,48.5,10.67h6.7v23.2L53,39c8.25-3.46,18.3-9.83,28.19-18.28A137.86,137.86,0,0,0,94.4,7.94C96.29,5.82,98,3.73,99.58,1.69H94.94v-4.4H69.09V-8.08C66.63-6.24,64.14-4.25,61.67-2.14Z" transform="translate(0 74.03)"/></g><g class="cls-2"><path class="cls-59" d="M61.71-2.1A136.84,136.84,0,0,0,48.59,10.66h6.62V33.87l-2.09,5.06c8.22-3.45,18.23-9.79,28.09-18.21A136.84,136.84,0,0,0,94.33,8c1.89-2.11,3.61-4.2,5.16-6.23H95V-2.7H69.11V-8C66.64-6.18,64.17-4.2,61.71-2.1Z" transform="translate(0 74.03)"/></g><g class="cls-2"><path class="cls-60" d="M61.74-2.06A137.09,137.09,0,0,0,48.66,10.65h6.53V33.86l-2,5c8.19-3.44,18.16-9.76,28-18.14A137.09,137.09,0,0,0,94.23,8c1.88-2.1,3.6-4.18,5.14-6.21H94.93V-2.71H69.1V-8Q65.44-5.2,61.74-2.06Z" transform="translate(0 74.03)"/></g><g class="cls-2"><path class="cls-61" d="M61.78-2a136.09,136.09,0,0,0-13,12.67H55.2V33.87l-2,4.84C61.4,35.28,71.34,29,81.12,20.63A136.09,136.09,0,0,0,94.15,8c1.87-2.1,3.59-4.17,5.12-6.18H94.94V-2.7H69.11V-7.88C66.68-6.06,64.22-4.11,61.78-2Z" transform="translate(0 74.03)"/></g><g class="cls-2"><path class="cls-62" d="M61.81-2a136.21,136.21,0,0,0-13,12.62h6.36V33.87L53.3,38.6c8.13-3.41,18-9.69,27.78-18A136.21,136.21,0,0,0,94.06,8c1.87-2.09,3.58-4.15,5.11-6.16H94.94V-2.7H69.12V-7.82C66.7-6,64.25-4.06,61.81-2Z" transform="translate(0 74.03)"/></g><g class="cls-2"><path class="cls-63" d="M61.85-1.93A136.37,136.37,0,0,0,48.92,10.64H55.2V33.87l-1.82,4.62c8.1-3.4,18-9.65,27.67-17.94A136.37,136.37,0,0,0,94,8c1.86-2.08,3.56-4.14,5.09-6.14H94.94V-2.7H69.13v-5Q65.5-5.05,61.85-1.93Z" transform="translate(0 74.03)"/></g><g class="cls-2"><path class="cls-64" d="M61.89-1.89A133,133,0,0,0,49,10.64h6.2V33.87l-1.75,4.51C61.53,35,71.36,28.77,81,20.51A133,133,0,0,0,93.91,8C95.76,5.91,97.46,3.86,99,1.87H95V-2.7H69.15v-5C66.73-5.89,64.3-4,61.89-1.89Z" transform="translate(0 74.03)"/></g><g class="cls-2"><path class="cls-65" d="M61.92-1.85A134.31,134.31,0,0,0,49.09,10.63H55.2V33.87l-1.69,4.4c8-3.37,17.83-9.58,27.47-17.81A134.31,134.31,0,0,0,93.81,8c1.85-2.07,3.54-4.1,5-6.09H94.94v-4.6H69.15V-7.64C66.75-5.84,64.33-3.91,61.92-1.85Z" transform="translate(0 74.03)"/></g><g class="cls-2"><path class="cls-66" d="M62-1.81A134.6,134.6,0,0,0,49.17,10.62h6V33.86l-1.62,4.3c8-3.36,17.76-9.54,27.36-17.74A134.6,134.6,0,0,0,93.73,8c1.84-2.06,3.52-4.09,5-6.07H94.94V-2.7H69.16V-7.56C66.77-5.78,64.36-3.86,62-1.81Z" transform="translate(0 74.03)"/></g><g class="cls-2"><path class="cls-67" d="M62-1.77A134.73,134.73,0,0,0,49.25,10.61h6V33.86l-1.55,4.19c8-3.35,17.7-9.51,27.26-17.67A134.73,134.73,0,0,0,93.65,8c1.83-2,3.51-4.07,5-6H94.94V-2.7H69.17V-7.5Q65.59-4.83,62-1.77Z" transform="translate(0 74.03)"/></g><g class="cls-2"><path class="cls-68" d="M62-1.72A132.51,132.51,0,0,0,49.34,10.62H55.2V33.87L53.71,38c7.95-3.34,17.63-9.47,27.16-17.61A132.51,132.51,0,0,0,93.56,8c1.83-2,3.5-4.06,5-6H94.93V-2.7H69.16V-7.44C66.8-5.67,64.41-3.76,62-1.72Z" transform="translate(0 74.03)"/></g><g class="cls-2"><path class="cls-69" d="M62.06-1.68A131.46,131.46,0,0,0,49.42,10.61H55.2V33.87l-1.42,4c7.92-3.32,17.56-9.43,27.06-17.54A131.46,131.46,0,0,0,93.48,8c1.82-2,3.48-4,5-6H94.94V-2.7H69.18V-7.37Q65.64-4.73,62.06-1.68Z" transform="translate(0 74.03)"/></g><g class="cls-2"><path class="cls-70" d="M62.1-1.64A131.61,131.61,0,0,0,49.51,10.6H55.2V33.86l-1.35,3.86c7.89-3.31,17.5-9.4,26.95-17.47A131.61,131.61,0,0,0,93.39,8c1.81-2,3.47-4,5-6H94.93V-2.7H69.18V-7.31C66.84-5.55,64.46-3.66,62.1-1.64Z" transform="translate(0 74.03)"/></g><g class="cls-2"><path class="cls-71" d="M62.14-1.6A130.74,130.74,0,0,0,49.59,10.6H55.2V33.87l-1.28,3.75c7.86-3.3,17.43-9.36,26.85-17.41A130.74,130.74,0,0,0,93.32,8c1.8-2,3.46-4,4.94-5.95H95V-2.7H69.21V-7.25C66.86-5.5,64.49-3.61,62.14-1.6Z" transform="translate(0 74.03)"/></g><g class="cls-2"><path class="cls-72" d="M62.17-1.56a132.08,132.08,0,0,0-12.5,12.15H55.2V33.86L54,37.5c7.83-3.29,17.36-9.33,26.75-17.34A132.08,132.08,0,0,0,93.23,8c1.8-2,3.44-4,4.92-5.93H95V-2.71H69.22V-7.19Q65.7-4.57,62.17-1.56Z" transform="translate(0 74.03)"/></g><g class="cls-2"><path class="cls-73" d="M62.21-1.51a131,131,0,0,0-12.45,12.1H55.2V33.87l-1.15,3.54c7.8-3.27,17.3-9.29,26.64-17.27S97.47,3.72,101.92-3.47l-7,.78H69.22V-7.11C66.89-5.38,64.54-3.51,62.21-1.51Z" transform="translate(0 74.03)"/></g><g class="cls-2"><path class="cls-74" d="M62.24-1.47a130,130,0,0,0-12.4,12.06H55.2V33.87L54.12,37.3C61.89,34,71.35,28.05,80.66,20.09S97.37,3.73,101.81-3.43L95-2.7H69.24V-7.06Q65.75-4.46,62.24-1.47Z" transform="translate(0 74.03)"/></g><g class="cls-2"><path class="cls-75" d="M62.28-1.43a129,129,0,0,0-12.35,12H55.2V33.87l-1,3.32C61.93,33.94,71.35,28,80.63,20.05S97.28,3.75,101.69-3.38l-6.75.68H69.23V-7C66.93-5.27,64.6-3.41,62.28-1.43Z" transform="translate(0 74.03)"/></g><g class="cls-2"><path class="cls-76" d="M62.31-1.39A130.44,130.44,0,0,0,50,10.57h5.19V33.86l-.95,3.21C62,33.83,71.33,27.89,80.57,20s16.58-16.23,21-23.34l-6.63.63H69.22V-6.94C66.94-5.21,64.62-3.36,62.31-1.39Z" transform="translate(0 74.03)"/></g><g class="cls-2"><path class="cls-77" d="M62.35-1.35A128.21,128.21,0,0,0,50.09,10.57H55.2v23.3L54.32,37c7.68-3.22,17-9.15,26.23-17S97.07,3.79,101.45-3.29l-6.51.58H69.25V-6.88C67-5.16,64.65-3.31,62.35-1.35Z" transform="translate(0 74.03)"/></g><g class="cls-2"><path class="cls-78" d="M62.39-1.31A127.16,127.16,0,0,0,50.18,10.56h5v23.3l-.81,3c7.65-3.21,17-9.11,26.13-16.94S97,3.8,101.34-3.25L95-2.72H69.27v-4.1Q65.84-4.24,62.39-1.31Z" transform="translate(0 74.03)"/></g><g class="cls-2"><path class="cls-79" d="M62.42-1.26A127.31,127.31,0,0,0,50.26,10.56H55.2V33.87l-.75,2.88c7.62-3.2,16.89-9.07,26-16.87s16.39-16,20.74-23.07l-6.28.49H69.26v-4C67-5,64.7-3.21,62.42-1.26Z" transform="translate(0 74.03)"/></g><g class="cls-2"><path class="cls-80" d="M62.46-1.22A125.12,125.12,0,0,0,50.35,10.56h4.86V33.87l-.68,2.78c7.59-3.18,16.83-9,25.92-16.81s16.32-16,20.65-23l-6.16.44H69.28v-4C67-5,64.73-3.16,62.46-1.22Z" transform="translate(0 74.03)"/></g><g class="cls-2"><path class="cls-81" d="M62.49-1.18A126.43,126.43,0,0,0,50.43,10.55H55.2V33.87l-.61,2.67c7.56-3.17,16.76-9,25.82-16.74S96.67,3.89,101-3.08l-6,.39H69.29V-6.6C67-4.93,64.76-3.11,62.49-1.18Z" transform="translate(0 74.03)"/></g><g class="cls-2"><path class="cls-82" d="M62.53-1.14a126.72,126.72,0,0,0-12,11.68H55.2V33.86l-.54,2.56c7.53-3.16,16.69-9,25.72-16.67S96.57,3.9,100.87-3L95-2.7H69.31V-6.55C67.05-4.87,64.78-3.06,62.53-1.14Z" transform="translate(0 74.03)"/></g><g class="cls-2"><path class="cls-83" d="M62.56-1.1a125.68,125.68,0,0,0-12,11.64h4.6V33.87l-.48,2.45c7.5-3.15,16.63-8.93,25.61-16.61S96.45,3.92,100.73-3l-5.8.29H69.29V-6.48C67.07-4.82,64.81-3,62.56-1.1Z" transform="translate(0 74.03)"/></g><g class="cls-2"><path class="cls-84" d="M62.6-1A123.46,123.46,0,0,0,50.68,10.54H55.2V33.87l-.41,2.34c7.47-3.13,16.56-8.9,25.51-16.54S96.36,4,100.63-2.94l-5.69.24H69.31V-6.42Q66-3.93,62.6-1Z" transform="translate(0 74.03)"/></g><g class="cls-2"><path class="cls-85" d="M62.64-1A123.6,123.6,0,0,0,50.77,10.53h4.44V33.87l-.34,2.23C62.31,33,71.36,27.24,80.28,19.63S96.28,4,100.52-2.89L95-2.7H69.32V-6.36C67.1-4.7,64.86-2.92,62.64-1Z" transform="translate(0 74.03)"/></g><g class="cls-2"><path class="cls-86" d="M62.67-1a122.58,122.58,0,0,0-11.82,11.5H55.2V33.87L54.93,36c7.41-3.11,16.43-8.82,25.3-16.41S96.16,4,100.39-2.85l-5.45.14H69.33V-6.3C67.12-4.64,64.89-2.87,62.67-1Z" transform="translate(0 74.03)"/></g><g class="cls-2"><path class="cls-87" d="M62.71-.93A124.06,124.06,0,0,0,50.93,10.52H55.2V33.87l-.21,2c7.38-3.1,16.36-8.79,25.2-16.34S96.06,4,100.27-2.8l-5.33.09H69.34V-6.24C67.14-4.59,64.92-2.82,62.71-.93Z" transform="translate(0 74.03)"/></g><g class="cls-2"><path class="cls-88" d="M62.74-.89A124.2,124.2,0,0,0,51,10.51h4.18V33.86l-.14,1.91C62.4,32.69,71.34,27,80.15,19.5S96,4,100.15-2.74l-5.22,0H69.34V-6.17C67.15-4.53,64.94-2.77,62.74-.89Z" transform="translate(0 74.03)"/></g><g class="cls-2"><path class="cls-89" d="M62.78-.84A122,122,0,0,0,51.1,10.52h4.1V33.88l-.07,1.8c7.32-3.07,16.23-8.72,25-16.21S95.86,4.06,100-2.68H69.36v-3.4C67.17-4.47,65-2.72,62.78-.84Z" transform="translate(0 74.03)"/></g><g class="cls-2"><path class="cls-90" d="M62.81-.8A122.13,122.13,0,0,0,51.18,10.51h4V35.56c7.29-3.06,16.16-8.68,24.89-16.14S95.75,4.08,99.91-2.64h-5V-2.7H69.35V-6C67.19-4.42,65-2.67,62.81-.8Z" transform="translate(0 74.03)"/></g><g class="cls-2"><path class="cls-91" d="M62.85-.76A119.88,119.88,0,0,0,51.27,10.5H55.2V33.87h.06v1.58c7.26-3.05,16.09-8.64,24.79-16.07S95.66,4.1,99.8-2.59H94.94V-2.7H69.37V-6C67.21-4.36,65-2.62,62.85-.76Z" transform="translate(0 74.03)"/></g><g class="cls-2"><path class="cls-92" d="M62.89-.72A121.36,121.36,0,0,0,51.35,10.49H55.2V33.86h.13v1.47c7.23-3,16-8.61,24.69-16S95.56,4.11,99.69-2.55H95v-.16H69.39V-5.92C67.23-4.3,65.05-2.57,62.89-.72Z" transform="translate(0 74.03)"/></g><g class="cls-2"><path class="cls-93" d="M62.92-.68A120.33,120.33,0,0,0,51.43,10.49H55.2V33.87h.2v1.36c7.2-3,16-8.57,24.58-15.94S95.46,4.14,99.57-2.5H94.94v-.21H69.39V-5.86Q66.16-3.44,62.92-.68Z" transform="translate(0 74.03)"/></g><g class="cls-2"><path class="cls-94" d="M63-.64A120.48,120.48,0,0,0,51.52,10.48H55.2V33.86h.26v1.25c7.17-3,15.89-8.54,24.48-15.87S95.35,4.15,99.45-2.46H94.94v-.26H69.4V-5.81C67.26-4.19,65.1-2.47,63-.64Z" transform="translate(0 74.03)"/></g><g class="cls-2"><path class="cls-95" d="M63-.59A119.42,119.42,0,0,0,51.6,10.48h3.6V33.87h.33V35c7.14-3,15.82-8.5,24.38-15.8s15.35-15,19.42-21.6H94.94v-.31H69.41v-3C67.28-4.13,65.13-2.42,63-.59Z" transform="translate(0 74.03)"/></g><g class="cls-2"><path class="cls-96" d="M63-.55a118.42,118.42,0,0,0-11.34,11H55.2V33.87h.4v1c7.1-3,15.76-8.46,24.27-15.74s15.28-15,19.34-21.51H94.94V-2.7H69.42v-3C67.3-4.08,65.16-2.37,63-.55Z" transform="translate(0 74.03)"/></g><g class="cls-2"><path class="cls-97" d="M63.06-.51a118.55,118.55,0,0,0-11.29,11H55.2v23.4h.47v.93c7.07-3,15.69-8.43,24.17-15.67S95.06,4.23,99.1-2.29H95v-.4H69.42v-2.9C67.31-4,65.18-2.32,63.06-.51Z" transform="translate(0 74.03)"/></g><g class="cls-2"><path class="cls-98" d="M63.1-.47A118.84,118.84,0,0,0,51.85,10.46H55.2v23.4h.53v.82c7-3,15.62-8.39,24.07-15.6S95,4.24,99-2.25h-4V-2.7H69.43V-5.53C67.33-4,65.21-2.27,63.1-.47Z" transform="translate(0 74.03)"/></g><g class="cls-2"><path class="cls-99" d="M63.14-.43a116.62,116.62,0,0,0-11.2,10.89H55.2V33.87h.6v.71c7-2.94,15.56-8.36,24-15.54S94.85,4.27,98.85-2.2H94.93v-.5H69.43V-5.47C67.35-3.91,65.24-2.22,63.14-.43Z" transform="translate(0 74.03)"/></g><g class="cls-2"><path class="cls-100" d="M63.17-.38A116.77,116.77,0,0,0,52,10.46H55.2V33.87h.67v.6c7-2.93,15.49-8.32,23.86-15.47s15-14.71,19-21.15h-3.8V-2.7H69.45V-5.4C67.37-3.85,65.27-2.17,63.17-.38Z" transform="translate(0 74.03)"/></g><g class="cls-2"><path class="cls-101" d="M63.21-.34a115.72,115.72,0,0,0-11.1,10.79H55.2V33.87h.73v.49c7-2.92,15.42-8.28,23.76-15.4S94.65,4.31,98.62-2.1H94.94v-.6H75.61V-9.62A116.78,116.78,0,0,0,63.21-.34Z" transform="translate(0 74.03)"/></g><g class="cls-2"><path class="cls-102" d="M63.24-.3A114.7,114.7,0,0,0,52.19,10.45h3V33.87H56v.39C62.92,31.35,71.36,26,79.66,18.92S94.55,4.34,98.51-2H94.94V-2.7H75.59V-9.54A115.8,115.8,0,0,0,63.24-.3Z" transform="translate(0 74.03)"/></g><g class="cls-2"><path class="cls-103" d="M63.28-.26a116.19,116.19,0,0,0-11,10.7H55.2V33.87h.87v.28C63,31.26,71.36,25.94,79.62,18.88S94.45,4.36,98.39-2H94.94v-.7H75.57V-9.44A113.13,113.13,0,0,0,63.28-.26Z" transform="translate(0 74.03)"/></g><g class="cls-2"><path class="cls-104" d="M63.31-.22a116.33,116.33,0,0,0-11,10.65h2.84V33.86h.94V34c6.86-2.88,15.22-8.18,23.45-15.2S94.35,4.38,98.26-1.95H94.93V-2.7H75.54V-9.37A117,117,0,0,0,63.31-.22Z" transform="translate(0 74.03)"/></g><g class="cls-2"><path class="cls-105" d="M63.35-.18A114.12,114.12,0,0,0,52.44,10.43H55.2V33.87h1v.06C63,31.06,71.36,25.79,79.55,18.79S94.25,4.4,98.15-1.9H94.94v-.8H75.53V-9.29A115.29,115.29,0,0,0,63.35-.18Z" transform="translate(0 74.03)"/></g><g class="cls-2"><path class="cls-106" d="M63.39-.13A111.89,111.89,0,0,0,52.53,10.43H55.2V33.87L51.47,35.5a38.59,38.59,0,0,0,4.8-1.68c6.8-2.86,15.09-8.1,23.24-15.07S94.15,4.42,98-1.85H94.94V-2.7H75.52V-9.21A111.14,111.14,0,0,0,63.39-.13Z" transform="translate(0 74.03)"/></g><g class="cls-2"><path class="cls-107" d="M63.42-.09A113.19,113.19,0,0,0,52.61,10.42H55.2V33.87l-3.64,1.52a37.34,37.34,0,0,0,4.78-1.68c6.77-2.84,15-8.07,23.14-15S94.05,4.45,97.92-1.8h-3v-.9H75.5V-9.13A112.47,112.47,0,0,0,63.42-.09Z" transform="translate(0 74.03)"/></g><g class="cls-2"><path class="cls-108" d="M63.46,0A112.32,112.32,0,0,0,52.69,10.42H55.2V33.87l-3.55,1.4a38,38,0,0,0,4.76-1.67c6.74-2.83,15-8,23-14.94S94,4.46,97.81-1.76H95v-.95H75.49V-9A111.84,111.84,0,0,0,63.46,0Z" transform="translate(0 74.03)"/></g><g class="cls-2"><path class="cls-109" d="M63.49,0A113.67,113.67,0,0,0,52.77,10.41h2.42V33.87l-3.46,1.29a39.3,39.3,0,0,0,4.74-1.66c6.71-2.82,14.89-8,22.93-14.87S93.84,4.49,97.67-1.7H94.93v-1H75.45V-9A113.6,113.6,0,0,0,63.49,0Z" transform="translate(0 74.03)"/></g><g class="cls-2"><path class="cls-110" d="M63.53,0A111.42,111.42,0,0,0,52.86,10.4H55.2V33.86L51.83,35a38.81,38.81,0,0,0,4.71-1.65c6.68-2.81,14.82-8,22.83-14.8S93.75,4.51,97.56-1.66H94.94v-1H75.44V-8.89A112.09,112.09,0,0,0,63.53,0Z" transform="translate(0 74.03)"/></g><g class="cls-2"><path class="cls-110" d="M63.57.08A111.6,111.6,0,0,0,53,10.41h2.26V33.88l-3.29,1a38,38,0,0,0,4.69-1.65c6.65-2.79,14.75-7.93,22.73-14.74S93.65,4.53,97.45-1.6H94.94V-2.7H75.43V-8.8A108.81,108.81,0,0,0,63.57.08Z" transform="translate(0 74.03)"/></g><g class="cls-2"><path class="cls-111" d="M63.65.17A110.43,110.43,0,0,0,53.14,10.39H55.2V33.87l-3.08.78A37.16,37.16,0,0,0,56.76,33c6.58-2.76,14.6-7.84,22.49-14.58S93.41,4.58,97.17-1.49H94.94V-2.7H75.38V-8.61A110,110,0,0,0,63.65.17Z" transform="translate(0 74.03)"/></g><g class="cls-2"><path class="cls-112" d="M63.73.27A108,108,0,0,0,53.34,10.38H55.2V33.87l-6.79,1.2a27.17,27.17,0,0,0,8.51-2.3C63.43,30,71.36,25,79.17,18.35s14-13.71,17.72-19.72h-2V-2.7H75.34V-8.41A110,110,0,0,0,63.73.27Z" transform="translate(0 74.03)"/></g><g class="cls-2"><path class="cls-113" d="M63.82.37a108,108,0,0,0-10.28,10H55.2v23.5l-6.54.92a26.75,26.75,0,0,0,8.42-2.28c6.44-2.7,14.28-7.67,22-14.27S92.93,4.68,96.61-1.26H94.93V-2.71H75.29V-8.23A109.07,109.07,0,0,0,63.82.37Z" transform="translate(0 74.03)"/></g><g class="cls-2"><path class="cls-114" d="M63.9.47a105.67,105.67,0,0,0-10.17,9.89H55.2V33.87l-6.29.64a26.57,26.57,0,0,0,8.32-2.25C63.6,29.59,71.36,24.67,79,18.15S92.69,4.74,96.33-1.14h-1.4V-2.7H75.25V-8A108,108,0,0,0,63.9.47Z" transform="translate(0 74.03)"/></g><g class="cls-2"><path class="cls-115" d="M64,.57a104.53,104.53,0,0,0-10.06,9.78h1.27V33.87l-6,.36A26.22,26.22,0,0,0,57.38,32c6.3-2.64,14-7.5,21.52-13.95S92.45,4.79,96.05-1H94.93V-2.7H75.2V-7.83A105.52,105.52,0,0,0,64,.57Z" transform="translate(0 74.03)"/></g><g class="cls-2"><path class="cls-116" d="M64.07.66a104.43,104.43,0,0,0-9.94,9.67H55.2V33.87L49.41,34a25.82,25.82,0,0,0,8.14-2.2c6.23-2.61,13.81-7.42,21.28-13.8s13.4-13.12,17-18.86h-.85V-2.7H75.16V-7.64A104.74,104.74,0,0,0,64.07.66Z" transform="translate(0 74.03)"/></g><g class="cls-2"><path class="cls-117" d="M64.15.76a102.09,102.09,0,0,0-9.83,9.56h.88V33.67H49.66a25.47,25.47,0,0,0,8.05-2.18c6.16-2.58,13.66-7.34,21-13.64S92,4.88,95.51-.79h-.57V-2.7H75.13V-7.45A102.9,102.9,0,0,0,64.15.76Z" transform="translate(0 74.03)"/></g><g class="cls-2"><path class="cls-118" d="M64.24.86a102.15,102.15,0,0,0-9.72,9.45h.68V33.39H49.92a25.41,25.41,0,0,0,8-2.15C64,28.69,71.38,24,78.67,17.76S91.76,4.94,95.24-.67H95v-2H75.1V-7.26A100,100,0,0,0,64.24.86Z" transform="translate(0 74.03)"/></g><g class="cls-2"><path class="cls-119" d="M64.32,1a99.68,99.68,0,0,0-9.6,9.34h.48V33.11h-5A25,25,0,0,0,58,31c6-2.53,13.34-7.17,20.55-13.33S91.52,5,95-.57h0V-2.71H75V-7.07A102,102,0,0,0,64.32,1Z" transform="translate(0 74.03)"/></g><g class="cls-2"><path class="cls-120" d="M64.4,1.06c-7.13,6.09-12.79,12.52-16.18,18h7V32.83H50.42a24.81,24.81,0,0,0,7.77-2.1c5.94-2.5,13.18-7.08,20.31-13.17S91.29,5,94.68-.44A24.64,24.64,0,0,0,98-7.79l-3,5.09H75V-6.87A99.56,99.56,0,0,0,64.4,1.06Z" transform="translate(0 74.03)"/></g><g class="cls-2"><path class="cls-121" d="M64.49,1.16c-7,6-12.64,12.37-16,17.79h6.7v13.6H50.67a24.53,24.53,0,0,0,7.68-2.08c5.87-2.47,13-7,20.07-13S91.06,5.09,94.41-.33a24.55,24.55,0,0,0,3.25-7.26L95-2.71H75v-4A98.14,98.14,0,0,0,64.49,1.16Z" transform="translate(0 74.03)"/></g><g class="cls-2"><path class="cls-122" d="M64.57,1.25c-7,5.94-12.48,12.22-15.8,17.57H55.2V32.26H50.92a24.28,24.28,0,0,0,7.58-2c5.8-2.44,12.87-6.91,19.83-12.85S90.81,5.14,94.13-.21a24.2,24.2,0,0,0,3.21-7.17L94.94-2.7h-20V-6.49A97.88,97.88,0,0,0,64.57,1.25Z" transform="translate(0 74.03)"/></g><g class="cls-2"><path class="cls-123" d="M64.66,1.35C57.79,7.22,52.33,13.42,49.05,18.71H55.2V32h-4a23.66,23.66,0,0,0,7.49-2c5.73-2.41,12.71-6.83,19.59-12.7S90.58,5.19,93.86-.1A23.74,23.74,0,0,0,97-7.18L95-2.7H74.89V-6.29A92.57,92.57,0,0,0,64.66,1.35Z" transform="translate(0 74.03)"/></g><g class="cls-2"><path class="cls-124" d="M64.74,1.45C58,7.25,52.56,13.37,49.33,18.59H55.2V31.7H51.42a23.53,23.53,0,0,0,7.4-2A78.13,78.13,0,0,0,78.16,17.16C85,11.36,90.34,5.24,93.57,0A23.47,23.47,0,0,0,96.7-7L94.93-2.71H74.82v-3.4A95.87,95.87,0,0,0,64.74,1.45Z" transform="translate(0 74.03)"/></g><g class="cls-2"><path class="cls-125" d="M64.82,1.55c-6.7,5.72-12,11.77-15.22,16.93h5.6v13H51.67a23.25,23.25,0,0,0,7.31-2,77.42,77.42,0,0,0,19.1-12.38C84.78,11.35,90.11,5.3,93.3.14a23.12,23.12,0,0,0,3.09-6.91L94.94-2.7H74.79V-5.91A93.87,93.87,0,0,0,64.82,1.55Z" transform="translate(0 74.03)"/></g><g class="cls-2"><path class="cls-126" d="M64.91,1.65a76.15,76.15,0,0,0-15,16.72H55.2V31.15H51.92a23,23,0,0,0,7.21-1.95A76.49,76.49,0,0,0,78,17,76.15,76.15,0,0,0,93,.25a23,23,0,0,0,3.06-6.82L94.94-2.7H74.75v-3A91.54,91.54,0,0,0,64.91,1.65Z" transform="translate(0 74.03)"/></g><g class="cls-2"><path class="cls-127" d="M65,1.75a75.41,75.41,0,0,0-14.83,16.5h5V30.87h-3a22.66,22.66,0,0,0,7.12-1.93A75.31,75.31,0,0,0,77.91,16.87,75.41,75.41,0,0,0,92.74.37a22.89,22.89,0,0,0,3-6.73L94.94-2.7H74.71V-5.52A90.49,90.49,0,0,0,65,1.75Z" transform="translate(0 74.03)"/></g><g class="cls-2"><path class="cls-128" d="M65.08,1.84A74.29,74.29,0,0,0,50.44,18.13h4.77V30.59H52.43a22.6,22.6,0,0,0,7-1.9A74.6,74.6,0,0,0,77.84,16.78,74.29,74.29,0,0,0,92.48.49a22.36,22.36,0,0,0,3-6.65L95-2.7H74.68V-5.33A88.79,88.79,0,0,0,65.08,1.84Z" transform="translate(0 74.03)"/></g><g class="cls-2"><path class="cls-129" d="M65.16,1.94A73.4,73.4,0,0,0,50.71,18H55.2V29H48.41C51.88,33.05,65,27.54,77.74,16.67A73.4,73.4,0,0,0,92.19.6,22.27,22.27,0,0,0,95.13-6L94.94-2.7H74.62V-5.14A88.39,88.39,0,0,0,65.16,1.94Z" transform="translate(0 74.03)"/></g><g class="cls-2"><path class="cls-130" d="M65.24,2A72.27,72.27,0,0,0,51,17.9h4.21V28.73H48.71c3.43,4,16.39-1.43,28.94-12.15A72.27,72.27,0,0,0,91.91.72a21.81,21.81,0,0,0,2.9-6.47V-2.7H83.13V-9.56A72.64,72.64,0,0,0,65.24,2Z" transform="translate(0 74.03)"/></g><g class="cls-2"><path class="cls-131" d="M65.33,2.14A71.53,71.53,0,0,0,51.27,17.78h3.94V28.46H49c3.38,4,16.16-1.41,28.55-12A71.53,71.53,0,0,0,91.64.84,21.46,21.46,0,0,0,94.5-5.54v2.85H83v-6.6A70.63,70.63,0,0,0,65.33,2.14Z" transform="translate(0 74.03)"/></g><g class="cls-2"><path class="cls-132" d="M65.41,2.24A70.4,70.4,0,0,0,51.54,17.67H55.2V28.2H49.33c3.34,3.91,15.94-1.39,28.16-11.82S96.9-5.68,93.57-9.58V-2.7H82.82V-9A70.34,70.34,0,0,0,65.41,2.24Z" transform="translate(0 74.03)"/></g><g class="cls-2"><path class="cls-133" d="M109.79-62.38A69.31,69.31,0,0,0,96.11-47.16h3.38v10.39H93.93c3.29,3.85,15.72-1.37,27.77-11.66S140.85-70.18,137.56-74v6.62H127V-73.5A69.45,69.45,0,0,0,109.79-62.38Z" transform="translate(0 74.03)"/></g><g class="cls-2"><path class="cls-134" d="M65.58,2.43a68.39,68.39,0,0,0-13.49,15H55.2V27.67H50c3.24,3.8,15.5-1.35,27.38-11.49S96.21-5.26,93-9.06V-2.7H82.51V-8.54A68.45,68.45,0,0,0,65.58,2.43Z" transform="translate(0 74.03)"/></g><g class="cls-2"><path class="cls-135" d="M65.66,2.53A67.45,67.45,0,0,0,52.37,17.32H55.2V27.41h-5c3.2,3.74,15.28-1.33,27-11.33S95.85-5.06,92.65-8.8v6.1H82.35V-8.28A67.16,67.16,0,0,0,65.66,2.53Z" transform="translate(0 74.03)"/></g><g class="cls-2"><path class="cls-136" d="M65.75,2.63A66.75,66.75,0,0,0,52.65,17.2H55.2v10H50.56C53.71,30.84,65.62,25.84,77.15,16S95.49-4.84,92.34-8.53V-2.7H82.19V-8A66.3,66.3,0,0,0,65.75,2.63Z" transform="translate(0 74.03)"/></g><g class="cls-2"><path class="cls-137" d="M65.83,2.73A65.66,65.66,0,0,0,52.92,17.09H55.2v9.8H50.87c3.1,3.63,14.84-1.29,26.2-11S95.14-4.64,92-8.27V-2.7H82V-7.77A65,65,0,0,0,65.83,2.73Z" transform="translate(0 74.03)"/></g><g class="cls-2"><path class="cls-138" d="M65.91,2.83A64.73,64.73,0,0,0,53.19,17h2v9.66h-4C54.22,30.21,65.77,25.36,77,15.79S94.77-4.43,91.71-8V-2.7H81.86V-7.52A64.52,64.52,0,0,0,65.91,2.83Z" transform="translate(0 74.03)"/></g><g class="cls-2"><path class="cls-139" d="M66,2.92C55,12.34,48.47,22.83,51.48,26.36S65.87,25.11,76.9,15.69,94.43-4.22,91.42-7.75V-2.7h-9.7V-7.26A63.22,63.22,0,0,0,66,2.92Z" transform="translate(0 74.03)"/></g><g class="cls-2"><path class="cls-140" d="M66.08,3C55.22,12.29,48.82,22.63,51.79,26.1s14.17-1.23,25-10.51S94.08-4,91.11-7.49v4.78H81.56V-7A62.84,62.84,0,0,0,66.08,3Z" transform="translate(0 74.03)"/></g><g class="cls-2"><path class="cls-141" d="M66.17,3.12c-10.69,9.13-17,19.3-14.07,22.72S66.05,24.63,76.74,15.5s17-19.3,14.07-22.72V-2.7H81.4v-4A61.55,61.55,0,0,0,66.17,3.12Z" transform="translate(0 74.03)"/></g><g class="cls-2"><path class="cls-142" d="M66.25,3.22c-10.52,9-16.72,19-13.85,22.36S66.13,24.39,76.65,15.4,93.37-3.59,90.5-7V-2.7H81.24V-6.5A60.62,60.62,0,0,0,66.25,3.22Z" transform="translate(0 74.03)"/></g><g class="cls-2"><path class="cls-143" d="M66.33,3.32C56,12.16,49.88,22,52.71,25.32s13.51-1.17,23.86-10S93-3.38,90.19-6.69v4H81.08V-6.23A59.44,59.44,0,0,0,66.33,3.32Z" transform="translate(0 74.03)"/></g><g class="cls-2"><path class="cls-144" d="M66.42,3.41C56.24,12.1,50.24,21.79,53,25.05s13.29-1.16,23.47-9.85S92.67-3.18,89.89-6.44,76.6-5.28,66.42,3.41Z" transform="translate(0 74.03)"/></g><g class="cls-2"><path class="cls-145" d="M66.5,3.51c-10,8.55-15.91,18.07-13.18,21.28s13.06-1.14,23.07-9.69S92.3-3,89.57-6.18,76.51-5,66.5,3.51Z" transform="translate(0 74.03)"/></g><g class="cls-2"><path class="cls-146" d="M66.67,3.71C57,12,51.3,21.17,53.94,24.26s12.62-1.1,22.29-9.36S91.6-2.56,89-5.65,76.34-4.55,66.67,3.71Z" transform="translate(0 74.03)"/></g><g class="cls-2"><path class="cls-147" d="M66.75,3.81C57.25,11.92,51.65,21,54.24,24s12.4-1.08,21.9-9.19S91.24-2.35,88.65-5.38,76.25-4.31,66.75,3.81Z" transform="translate(0 74.03)"/></g><g class="cls-2"><path class="cls-148" d="M66.84,3.91c-9.33,8-14.83,16.85-12.28,19.83s12.18-1.06,21.51-9S90.9-2.14,88.35-5.12,76.17-4.06,66.84,3.91Z" transform="translate(0 74.03)"/></g><g class="cls-2"><path class="cls-149" d="M67,4.1c-9,7.68-14.29,16.24-11.84,19.11s11.74-1,20.73-8.7S90.18-1.73,87.73-4.6,76-3.58,67,4.1Z" transform="translate(0 74.03)"/></g><g class="cls-2"><path class="cls-150" d="M67.09,4.2c-8.82,7.54-14,15.93-11.61,18.75S67,22,75.82,14.41s14-15.93,11.61-18.75S75.91-3.33,67.09,4.2Z" transform="translate(0 74.03)"/></g><g class="cls-2"><path class="cls-151" d="M67.17,4.3c-8.65,7.39-13.75,15.62-11.39,18.39s11.29-1,20-8.37S89.48-1.3,87.12-4.07,75.83-3.09,67.17,4.3Z" transform="translate(0 74.03)"/></g><g class="cls-2"><path class="cls-152" d="M67.51,4.69c-8,6.81-12.67,14.4-10.5,17s10.41-.91,18.38-7.72S88.06-.48,85.89-3,75.48-2.12,67.51,4.69Z" transform="translate(0 74.03)"/></g><g class="cls-2"><path class="cls-153" d="M67.68,4.89c-7.63,6.52-12.13,13.79-10.05,16.23s10-.87,17.6-7.39S87.36-.06,85.28-2.5,75.31-1.63,67.68,4.89Z" transform="translate(0 74.03)"/></g><g class="cls-2"><path class="cls-154" d="M67.76,5c-7.47,6.38-11.86,13.48-9.83,15.87s9.74-.85,17.21-7.22S87,.16,85-2.23,75.22-1.39,67.76,5Z" transform="translate(0 74.03)"/></g><g class="cls-2"><path class="cls-155" d="M67.84,5.08c-7.3,6.23-11.59,13.17-9.6,15.51s9.52-.83,16.82-7.06S86.65.36,84.66-2,75.14-1.15,67.84,5.08Z" transform="translate(0 74.03)"/></g><g class="cls-2"><path class="cls-156" d="M67.93,5.18C60.8,11.27,56.6,18.05,58.55,20.33s9.3-.81,16.43-6.9S86.31.56,84.36-1.72,75.05-.9,67.93,5.18Z" transform="translate(0 74.03)"/></g><g class="cls-2"><path class="cls-157" d="M68,5.28c-7,5.94-11.06,12.56-9.16,14.78s9.08-.79,16-6.73S85.94.77,84-1.45,75-.66,68,5.28Z" transform="translate(0 74.03)"/></g><g class="cls-2"><path class="cls-158" d="M68.09,5.38C61.3,11.18,57.3,17.63,59.16,19.8S68,19,74.8,13.23,85.59,1,83.73-1.19,74.88-.42,68.09,5.38Z" transform="translate(0 74.03)"/></g><g class="cls-2"><path class="cls-159" d="M68.26,5.58C61.81,11.09,58,17.22,59.77,19.28s8.41-.73,14.86-6.24S84.88,1.4,83.12-.66,74.71.07,68.26,5.58Z" transform="translate(0 74.03)"/></g><g class="cls-2"><path class="cls-160" d="M68.35,5.67C62.07,11,58.37,17,60.09,19s8.19-.71,14.47-6.07S84.54,1.6,82.82-.4,74.62.31,68.35,5.67Z" transform="translate(0 74.03)"/></g><g class="cls-2"><path class="cls-161" d="M68.43,5.77c-6.11,5.22-9.71,11-8,13s8-.69,14.08-5.91,9.71-11,8-13S74.54.56,68.43,5.77Z" transform="translate(0 74.03)"/></g><g class="cls-2"><path class="cls-162" d="M68.51,5.87c-5.94,5.07-9.44,10.72-7.82,12.62s7.75-.67,13.69-5.75S83.82,2,82.2.12,74.45.8,68.51,5.87Z" transform="translate(0 74.03)"/></g><g class="cls-2"><path class="cls-163" d="M68.6,6C62.83,10.9,59.43,16.39,61,18.23s7.53-.65,13.3-5.58S83.48,2.23,81.9.39,74.37,1,68.6,6Z" transform="translate(0 74.03)"/></g><g class="cls-2"><path class="cls-163" d="M68.68,6.07c-5.6,4.78-8.9,10.11-7.37,11.9s7.31-.64,12.91-5.42S83.12,2.44,81.59.65,74.28,1.28,68.68,6.07Z" transform="translate(0 74.03)"/></g><g class="cls-2"><path class="cls-164" d="M68.77,6.16C63.34,10.8,60.14,16,61.62,17.7s7.09-.62,12.51-5.25S82.76,2.65,81.28.91,74.2,1.53,68.77,6.16Z" transform="translate(0 74.03)"/></g><g class="cls-2"><path class="cls-165" d="M68.85,6.26c-5.26,4.49-8.36,9.5-6.92,11.18s6.86-.6,12.12-5.09S82.41,2.85,81,1.17,74.11,1.77,68.85,6.26Z" transform="translate(0 74.03)"/></g><g class="cls-2"><path class="cls-166" d="M68.93,6.36c-5.09,4.35-8.09,9.19-6.7,10.82S68.87,16.6,74,12.26s8.09-9.19,6.7-10.82S74,2,68.93,6.36Z" transform="translate(0 74.03)"/></g><g class="cls-2"><path class="cls-166" d="M69,6.46c-4.92,4.2-7.82,8.88-6.48,10.46s6.42-.56,11.34-4.76S81.7,3.28,80.36,1.7,73.94,2.26,69,6.46Z" transform="translate(0 74.03)"/></g><g class="cls-2"><path class="cls-167" d="M69.1,6.56c-4.75,4.06-7.55,8.58-6.25,10.1s6.2-.54,10.95-4.6S81.35,3.48,80.05,2,73.85,2.5,69.1,6.56Z" transform="translate(0 74.03)"/></g><g class="cls-2"><path class="cls-168" d="M69.19,6.66c-4.58,3.91-7.28,8.27-6,9.74s6-.52,10.56-4.43,7.28-8.27,6-9.74S73.77,2.74,69.19,6.66Z" transform="translate(0 74.03)"/></g><g class="cls-2"><path class="cls-168" d="M69.27,6.75c-4.41,3.77-7,8-5.81,9.38s5.76-.5,10.17-4.27,7-8,5.81-9.38S73.68,3,69.27,6.75Z" transform="translate(0 74.03)"/></g><g class="cls-2"><path class="cls-169" d="M69.35,6.85c-4.24,3.62-6.74,7.66-5.58,9s5.54-.48,9.78-4.1,6.74-7.66,5.58-9S73.59,3.23,69.35,6.85Z" transform="translate(0 74.03)"/></g><g class="cls-2"><path class="cls-170" d="M69.44,7C65.37,10.43,63,14.3,64.08,15.6s5.31-.46,9.39-3.94S79.94,4.31,78.83,3,73.51,3.47,69.44,7Z" transform="translate(0 74.03)"/></g><g class="cls-2"><path class="cls-170" d="M69.52,7.05c-3.9,3.33-6.2,7.05-5.14,8.29s5.09-.44,9-3.78,6.2-7,5.14-8.29S73.42,3.72,69.52,7.05Z" transform="translate(0 74.03)"/></g><g class="cls-2"><path class="cls-171" d="M69.6,7.15c-3.73,3.19-5.93,6.74-4.91,7.93s4.87-.42,8.6-3.61,5.93-6.74,4.91-7.93S73.34,4,69.6,7.15Z" transform="translate(0 74.03)"/></g><g class="cls-2"><path class="cls-171" d="M69.69,7.25c-3.56,3-5.66,6.43-4.69,7.57s4.65-.4,8.21-3.45S78.87,4.94,77.9,3.8,73.25,4.2,69.69,7.25Z" transform="translate(0 74.03)"/></g><g class="cls-2"><path class="cls-172" d="M69.77,7.34c-3.39,2.9-5.39,6.13-4.47,7.21s4.43-.39,7.82-3.28,5.39-6.13,4.47-7.21S73.17,4.45,69.77,7.34Z" transform="translate(0 74.03)"/></g><g class="cls-2"><path class="cls-172" d="M69.86,7.44c-3.22,2.75-5.12,5.82-4.24,6.85s4.21-.37,7.43-3.12,5.12-5.82,4.24-6.85S73.08,4.69,69.86,7.44Z" transform="translate(0 74.03)"/></g><g class="cls-2"><path class="cls-173" d="M69.94,7.54c-3,2.61-4.85,5.51-4,6.49s4-.35,7-3,4.85-5.51,4-6.49S73,4.93,69.94,7.54Z" transform="translate(0 74.03)"/></g><g class="cls-2"><path class="cls-173" d="M70,7.64c-2.88,2.46-4.58,5.21-3.8,6.13S70,13.44,72.87,11s4.58-5.21,3.8-6.13S72.91,5.17,70,7.64Z" transform="translate(0 74.03)"/></g><g class="cls-2"><path class="cls-173" d="M70.11,7.74c-2.71,2.32-4.31,4.9-3.57,5.77s3.54-.31,6.26-2.63S77.11,6,76.37,5.11,72.82,5.42,70.11,7.74Z" transform="translate(0 74.03)"/></g><g class="cls-2"><path class="cls-173" d="M70.19,7.83c-2.54,2.17-4,4.6-3.35,5.41s3.32-.29,5.87-2.46,4-4.6,3.35-5.41S72.74,5.66,70.19,7.83Z" transform="translate(0 74.03)"/></g><g class="cls-2"><path class="cls-173" d="M70.28,7.93C67.9,10,66.5,12.22,67.15,13s3.1-.27,5.48-2.3,3.78-4.29,3.13-5S72.65,5.9,70.28,7.93Z" transform="translate(0 74.03)"/></g><g class="cls-2"><path class="cls-174" d="M70.36,8c-2.21,1.88-3.51,4-2.9,4.69s2.88-.25,5.08-2.13,3.51-4,2.9-4.69S72.57,6.15,70.36,8Z" transform="translate(0 74.03)"/></g><g class="cls-2"><path class="cls-174" d="M70.44,8.13c-2,1.74-3.24,3.68-2.68,4.33s2.66-.23,4.69-2,3.24-3.68,2.68-4.33S72.48,6.39,70.44,8.13Z" transform="translate(0 74.03)"/></g><g class="cls-2"><path class="cls-175" d="M70.53,8.23c-1.87,1.59-3,3.37-2.46,4s2.44-.21,4.3-1.81,3-3.37,2.46-4S72.39,6.63,70.53,8.23Z" transform="translate(0 74.03)"/></g><g class="cls-2"><path class="cls-175" d="M70.61,8.33c-1.7,1.45-2.7,3.06-2.23,3.61s2.21-.19,3.91-1.64S75,7.24,74.52,6.69,72.31,6.88,70.61,8.33Z" transform="translate(0 74.03)"/></g><g class="cls-2"><path class="cls-175" d="M70.7,8.42c-1.53,1.3-2.43,2.76-2,3.25s2-.17,3.52-1.48,2.43-2.76,2-3.25S72.22,7.12,70.7,8.42Z" transform="translate(0 74.03)"/></g><g class="cls-2"><path class="cls-175" d="M70.78,8.52C69.42,9.68,68.62,11,69,11.4s1.77-.15,3.13-1.31,2.16-2.45,1.79-2.88S72.14,7.36,70.78,8.52Z" transform="translate(0 74.03)"/></g><g class="cls-2"><path class="cls-175" d="M70.86,8.62c-1.19,1-1.89,2.14-1.56,2.52S70.85,11,72,10s1.89-2.14,1.56-2.52S72.05,7.61,70.86,8.62Z" transform="translate(0 74.03)"/></g><g class="cls-2"><path class="cls-175" d="M71,8.72c-1,.87-1.62,1.84-1.34,2.16s1.33-.12,2.35-1,1.62-1.84,1.34-2.16S72,7.85,71,8.72Z" transform="translate(0 74.03)"/></g><g class="cls-2"><path class="cls-175" d="M71,8.82c-.85.72-1.35,1.53-1.12,1.8s1.11-.1,2-.82S73.22,8.27,73,8,71.88,8.09,71,8.82Z" transform="translate(0 74.03)"/></g><g class="cls-2"><path class="cls-175" d="M71.11,8.91c-.68.58-1.08,1.23-.89,1.44s.89-.08,1.56-.66,1.08-1.23.89-1.44S71.79,8.34,71.11,8.91Z" transform="translate(0 74.03)"/></g><g class="cls-2"><path class="cls-175" d="M71.2,9c-.51.43-.81.92-.67,1.08s.66-.06,1.17-.49.81-.92.67-1.08S71.71,8.58,71.2,9Z" transform="translate(0 74.03)"/></g><g class="cls-2"><path class="cls-175" d="M71.28,9.11c-.34.29-.54.61-.45.72s.44,0,.78-.33.54-.61.45-.72S71.62,8.82,71.28,9.11Z" transform="translate(0 74.03)"/></g><g class="cls-2"><path class="cls-175" d="M71.37,9.21c-.17.14-.27.31-.22.36s.22,0,.39-.16.27-.31.22-.36S71.54,9.06,71.37,9.21Z" transform="translate(0 74.03)"/></g><path class="cls-176" d="M.75,52.2C-.52,53.63-.82,61.38,5.13,69c5.7,7.32,13.55,9.28,15.25,8.4S47.65,58.23,51.54,54.75a2.29,2.29,0,0,0,.49-.52c.29-1.08,4.16-11,4.16-11s14.43-7.1,16.92-9.81c.49-.52.51-.89-.1-1-5.21-.94-10.27-8.19-10.27-8.19s-5.78-6.67-5.4-12c0-.76-.48-.68-1.37-.08h0c-3.65,2.46-13.24,13.72-13.24,13.72S32.16,27.24,31,27.25a3.8,3.8,0,0,0-1,.63h0C24.74,31.64,1.91,50.92.75,52.2Z" transform="translate(0 74.03)"/><path class="cls-177" d="M56,12.2h0c-.55,2.19,0,6.23,5.39,13.14,6.37,8.19,11.75,8.09,11.75,8.09.49-.52.51-.89-.1-1-5.21-.94-10.27-8.19-10.27-8.19s-5.78-6.67-5.4-12C57.4,11.51,56.86,11.6,56,12.2Z" transform="translate(0 74.03)"/><path class="cls-177" d="M30,27.88h0c2.37,5.06,5.68,15.7,21.53,26.87a2.29,2.29,0,0,0,.49-.52c.29-1.08,4.16-11,4.16-11S46,36.11,42.73,25.93c0,0-10.56,1.31-11.68,1.32A3.4,3.4,0,0,0,30,27.88Z" transform="translate(0 74.03)"/><path class="cls-178" d="M21.88,76.46A25.81,25.81,0,0,1,2.07,51,26.11,26.11,0,0,0,7.83,66.33C13.82,74,24,75,24,75Z" transform="translate(0 74.03)"/><path class="cls-177" d="M35.59,38.83C37.18,40.9,46.38,35,46.23,34.24a60.42,60.42,0,0,0-3.91-6.92c-.83-1.25-10.94,1.58-11.2,2S33.33,35.88,35.59,38.83Z" transform="translate(0 74.03)"/><path class="cls-177" d="M60.42,24.13c.55.89-.21-2.7-1.18-5S56.84,14,56.84,14,53.06,12.24,60.42,24.13Z" transform="translate(0 74.03)"/><path class="cls-179" d="M69.82,33.34c.2-.76-5-3.61-6.63-4.67s-14.65,6.95-14.74,7.26,5,5.46,7.46,5.37S69.14,35.88,69.82,33.34Z" transform="translate(0 74.03)"/><path class="cls-179" d="M49,53.46c1.52,1.16-25.24,19.21-27.63,19.78s-8.84-1.45-12.17-6.3S35.76,43,36.58,42.76,43.71,49.39,49,53.46Z" transform="translate(0 74.03)"/><path class="cls-180" d="M16.12,77c1,.34,2-1.16,1.91-1.49s-5.16-3-9.72-7.32S5.24,73.4,16.12,77Z" transform="translate(0 74.03)"/><path class="cls-181" d="M90.34,0c2,0-10.74,21.16-25.7,24-1.73.33-7-8.9-6.5-11S84.67.05,90.34,0Z" transform="translate(0 74.03)"/><path class="cls-182" d="M83.19,11.69c-6.55,6-10-1.55.72-5.61C89.16,4.09,85.36,9.7,83.19,11.69Z" transform="translate(0 74.03)"/><path class="cls-183" d="M69.69,31.05c.69.4,12.37-12.63,12.45-14s-14,6.46-17.51,6.9S69.69,31.05,69.69,31.05Z" transform="translate(0 74.03)"/><path class="cls-184" d="M37.62,41.69c.44.54-.89-3.39-3.2-7a27.9,27.9,0,0,0-3.51-4.76A40.78,40.78,0,0,0,37.62,41.69Z" transform="translate(0 74.03)"/><path class="cls-184" d="M58.63,21.44s-.33-3.52-1.23-4.68S56,15.54,56,15.54A14.89,14.89,0,0,0,58.63,21.44Z" transform="translate(0 74.03)"/><path class="cls-185" d="M54.89,13.63c1-.85-9.3,15.75-9.92,16.29-.34.3-2.18-3-1.57-4.27C44.16,24.09,49.39,18.45,54.89,13.63Z" transform="translate(0 74.03)"/><path class="cls-177" d="M50.64,55.53s-5.06,3.18-14.83,8.63S23.94,72.7,24,73.83,40.06,63.37,50.64,55.53Z" transform="translate(0 74.03)"/><path class="cls-186" d="M36.11,42.39c.29.53-17.93,16.11-25.85,14.53s13-21,16.35-25S34.37,39.18,36.11,42.39Z" transform="translate(0 74.03)"/><path class="cls-186" d="M62.39,26.67c1.19,1.36-8.4,6.24-12.53,5S52.6,18.84,54.2,16.14,55.66,18.94,62.39,26.67Z" transform="translate(0 74.03)"/><path class="cls-177" d="M71.74,34.57a59.18,59.18,0,0,1-9.55,4.37c-6.28,2.36-6,4.29-6,4.29S67,37.89,71.74,34.57Z" transform="translate(0 74.03)"/><path class="cls-187" d="M27.58,55.06C23.82,56.89,21.07,60,23,61.52c2.32,1.87,4.32,4.69,7.66,2.69.59-.36,1.22-.7,1.85-1.07,3-1.73,5.9-3.72,4-6.7a5.5,5.5,0,0,0-6.77-2.25A14.36,14.36,0,0,0,27.58,55.06Z" transform="translate(0 74.03)"/><path class="cls-188" d="M27.58,55.06l-.43.31a9.5,9.5,0,0,1,4.66-.8c2.31.31,4.32,1.3,4.1,3.77s-3.39,4.8-3.39,4.8c3-1.73,5.9-3.72,4-6.7a5.5,5.5,0,0,0-6.77-2.25A14.67,14.67,0,0,0,27.58,55.06Z" transform="translate(0 74.03)"/><path class="cls-187" d="M31.86,47.26a4,4,0,0,0-.52.56c-1.18,1.45-2.06,4-.38,3.88a10.15,10.15,0,0,0,2.58-.39s0,0,0,0l0,0A2.9,2.9,0,0,0,35.77,49C36,48,33.25,46,31.86,47.26Z" transform="translate(0 74.03)"/><path class="cls-188" d="M31.86,47.26a4,4,0,0,0-.52.56v.09A3.25,3.25,0,0,1,32.5,47c.64-.24,2.67.84,2.76,1.62a2.85,2.85,0,0,1-1.65,2.65A2.9,2.9,0,0,0,35.78,49C36,48,33.25,46,31.86,47.26Z" transform="translate(0 74.03)"/><path class="cls-187" d="M56.77,32.43a4.47,4.47,0,0,0-.54.53c-1.24,1.36-2.3,3.6-.74,3.38a11.42,11.42,0,0,0,2.45-.58h0l0,0a3.52,3.52,0,0,0,2.25-2.17C60.5,32.71,58.18,31.22,56.77,32.43Z" transform="translate(0 74.03)"/><path class="cls-188" d="M56.77,32.43a4.47,4.47,0,0,0-.54.53V33a3.94,3.94,0,0,1,1.17-.87c.62-.26,2.4.46,2.42,1.13A3.19,3.19,0,0,1,58,35.73a3.52,3.52,0,0,0,2.25-2.17C60.5,32.71,58.18,31.22,56.77,32.43Z" transform="translate(0 74.03)"/><path class="cls-189" d="M53.44,41.06c1.41,1.15-3.56,11.13-4.45,11.12s-8.45-7-8.67-8.65,5.48-7.67,6.32-7.76S52.36,40.18,53.44,41.06Z" transform="translate(0 74.03)"/><path class="cls-177" d="M94,.49C92.25,4.15,73,32.41,73,32.41,77.78,29.47,93.91,4.74,94,.49Z" transform="translate(0 74.03)"/><path class="cls-182" d="M72.74,17.39c0,1.09-2.08,2.83-3.35,1.65S72.72,16.66,72.74,17.39Z" transform="translate(0 74.03)"/><path class="cls-190" d="M49.73,37.39s-6.25-7.09-7-11.48C42.73,25.92,45.9,31.35,49.73,37.39Z" transform="translate(0 74.03)"/><path class="cls-190" d="M7.51,67.21a10.58,10.58,0,0,1-6.2-4.92c-2.11-3.91.77-9.2.77-9.2A28,28,0,0,0,7.51,67.21Z" transform="translate(0 74.03)"/></g></g></svg>