<svg xmlns="http://www.w3.org/2000/svg" xmlns:xlink="http://www.w3.org/1999/xlink" viewBox="0 0 346.8 135.96"><defs><style>.cls-1{clip-path:url(#clip-path);}.cls-2,.cls-5{fill:none;}.cls-2{clip-path:url(#clip-path-3);}.cls-3{fill:url(#linear-gradient);}.cls-4{fill:url(#radial-gradient);}.cls-6{fill:url(#linear-gradient-2);}.cls-18,.cls-21,.cls-7{isolation:isolate;}.cls-18,.cls-7{opacity:0.5;}.cls-8{fill:#4c332e;}.cls-9{fill:#af6814;}.cls-10{fill:url(#linear-gradient-3);}.cls-11{fill:#a35a00;}.cls-12{fill:#e39200;}.cls-13{clip-path:url(#clip-path-7);}.cls-14{mask:url(#mask);}.cls-15{fill:url(#linear-gradient-5);}.cls-16{fill:url(#linear-gradient-6);}.cls-17{mask:url(#mask-2);}.cls-18{fill:url(#radial-gradient-3);}.cls-19{fill:#ffd76c;}.cls-20{fill:url(#linear-gradient-7);}.cls-21{opacity:0.3;}</style><clipPath id="clip-path"><polygon class="cls-2" points="1 1 0 1 1 0 1 1"/></clipPath><linearGradient id="linear-gradient" x1="106.09" y1="438.48" x2="212.13" y2="438.48" gradientTransform="matrix(1, 0, 0, -1, 0, 845.89)" gradientUnits="userSpaceOnUse"><stop offset="0.13"/><stop offset="0.17" stop-color="#323232"/><stop offset="0.21" stop-color="#626262"/><stop offset="0.25" stop-color="#8c8c8c"/><stop offset="0.29" stop-color="#b0b0b0"/><stop offset="0.33" stop-color="#cdcdcd"/><stop offset="0.38" stop-color="#e3e3e3"/><stop offset="0.43" stop-color="#f3f3f3"/><stop offset="0.49" stop-color="#fcfcfc"/><stop offset="0.57" stop-color="#fff"/><stop offset="0.63" stop-color="#fbfbfb"/><stop offset="0.68" stop-color="#efefef"/><stop offset="0.73" stop-color="#dcdcdc"/><stop offset="0.79" stop-color="silver"/><stop offset="0.84" stop-color="#9d9d9d"/><stop offset="0.89" stop-color="#727272"/><stop offset="0.95" stop-color="#3e3e3e"/><stop offset="1" stop-color="#040404"/><stop offset="1"/></linearGradient><radialGradient id="radial-gradient" cx="1434.69" cy="319.25" r="92.14" gradientTransform="matrix(0.41, 0, 0, -0.44, -426.96, 574.59)" gradientUnits="userSpaceOnUse"><stop offset="0.57"/><stop offset="0.73" stop-color="#020202"/><stop offset="0.79" stop-color="#090909"/><stop offset="0.83" stop-color="#141414"/><stop offset="0.86" stop-color="#252525"/><stop offset="0.89" stop-color="#3b3b3b"/><stop offset="0.92" stop-color="#575757"/><stop offset="0.94" stop-color="#777"/><stop offset="0.96" stop-color="#9d9d9d"/><stop offset="0.98" stop-color="#c8c8c8"/><stop offset="1" stop-color="#f6f6f6"/><stop offset="1" stop-color="#fff"/></radialGradient><clipPath id="clip-path-3"><polygon class="cls-5" points="3 3 4 3 3 4 3 3"/></clipPath><linearGradient id="linear-gradient-2" x1="325.29" y1="368.15" x2="325.29" y2="453.28" gradientTransform="matrix(1, 0, 0, -1, 0, 845.89)" gradientUnits="userSpaceOnUse"><stop offset="0" stop-color="#63433b"/><stop offset="0.29" stop-color="#714b3c"/><stop offset="0.84" stop-color="#966140"/><stop offset="1" stop-color="#a36841"/></linearGradient><linearGradient id="linear-gradient-3" x1="159.11" y1="354.03" x2="159.11" y2="467.39" gradientTransform="matrix(1, 0, 0, -1, -99.56, 474.38)" gradientUnits="userSpaceOnUse"><stop offset="0" stop-color="#f39c12"/><stop offset="0.47" stop-color="#f2b110"/><stop offset="1" stop-color="#f1c40f"/></linearGradient><clipPath id="clip-path-7" transform="translate(-99.56 -371.51)"><polygon class="cls-2" points="1 1 0 1 1 0 1 1"/></clipPath><mask id="mask" x="-99.56" y="-371.51" width="212.13" height="436.32" maskUnits="userSpaceOnUse"><g transform="translate(-99.56 -371.51)"><g class="cls-1"><path class="cls-3" d="M159.11,380.77c28.93,0,52.42,24.76,53,55.54,0-.38,0-.75,0-1.13,0-31.3-23.74-56.68-53-56.68s-53,25.38-53,56.68c0,.38,0,.76,0,1.14C106.69,405.54,130.19,380.77,159.11,380.77Z"/></g></g></mask><linearGradient id="linear-gradient-5" x1="106.09" y1="438.48" x2="212.13" y2="438.48" gradientTransform="matrix(1, 0, 0, -1, 0, 845.89)" gradientUnits="userSpaceOnUse"><stop offset="0.13" stop-color="#fff"/><stop offset="0.18" stop-color="#fff"/><stop offset="0.57" stop-color="#fff"/><stop offset="0.99" stop-color="#fff"/><stop offset="1" stop-color="#fff"/></linearGradient><linearGradient id="linear-gradient-6" x1="159.11" y1="370.47" x2="159.11" y2="450.95" gradientTransform="matrix(1, 0, 0, -1, -99.56, 474.38)" gradientUnits="userSpaceOnUse"><stop offset="0" stop-color="#a36841"/><stop offset="0.22" stop-color="#9d6440"/><stop offset="0.53" stop-color="#8b5a3f"/><stop offset="0.89" stop-color="#6d493c"/><stop offset="1" stop-color="#63433b"/></linearGradient><mask id="mask-2" x="-99.56" y="-371.51" width="196.75" height="475.41" maskUnits="userSpaceOnUse"><g transform="translate(-99.56 -371.51)"><g class="cls-1"><path class="cls-4" d="M159.11,400.56c17.85,0,32.38,15.53,32.38,34.61S177,469.78,159.11,469.78s-32.38-15.53-32.38-34.61,14.53-34.61,32.38-34.61m0-5.63c-20.79,0-37.64,18-37.64,40.24s16.85,40.24,37.64,40.24,37.64-18,37.64-40.24-16.85-40.24-37.64-40.24Z"/></g></g></mask><radialGradient id="radial-gradient-3" cx="1434.69" cy="319.25" r="92.14" gradientTransform="matrix(0.41, 0, 0, -0.44, -426.96, 574.59)" gradientUnits="userSpaceOnUse"><stop offset="0.57"/><stop offset="0.94"/><stop offset="1"/></radialGradient><linearGradient id="linear-gradient-7" x1="159.11" y1="384.13" x2="159.11" y2="441.19" gradientTransform="matrix(1, 0, 0, -1, 0, 845.89)" xlink:href="#linear-gradient-3"/></defs><g id="Layer_2" data-name="Layer 2"><g id="Layer_1-2" data-name="Layer 1"><g id="money_UI_02"><g id="UI_body"><path class="cls-6" d="M415.57,477.74H204.22V392.61H415.57a30.79,30.79,0,0,1,30.79,30.79V447A30.79,30.79,0,0,1,415.57,477.74Z" transform="translate(-99.56 -371.51)"/><path class="cls-7" d="M425.1,474.68H232a19.83,19.83,0,0,1-19.83-19.83V415.5A19.83,19.83,0,0,1,232,395.67H425.1a19.83,19.83,0,0,1,19.83,19.83v39.35A19.83,19.83,0,0,1,425.1,474.68Z" transform="translate(-99.56 -371.51)"/><path class="cls-8" d="M424.74,398c8.37,0,15.15,7.25,15.15,16.19v45.7c0,8.94-6.78,16.19-15.15,16.19H160.51V398H424.74Zm0-6.92H154V483h270.7c11.92,0,21.62-10.37,21.62-23.11v-45.7c0-12.75-9.7-23.12-21.62-23.12Z" transform="translate(-99.56 -371.51)"/><ellipse class="cls-9" cx="59.55" cy="72.29" rx="53.02" ry="56.68"/><ellipse class="cls-10" cx="59.55" cy="63.67" rx="53.02" ry="56.68"/><path class="cls-11" d="M159.11,378.49c29.28,0,53,25.38,53,56.68,0,1.45-.07,2.89-.17,4.31.1,1.42.17,2.86.17,4.31,0,31.3-23.74,56.68-53,56.68s-53-25.38-53-56.68c0-1.45.07-2.89.17-4.31-.1-1.42-.17-2.86-.17-4.31,0-31.3,23.74-56.68,53-56.68Zm0-7A57.28,57.28,0,0,0,117,390.16a65.52,65.52,0,0,0-17.44,45c0,1.33,0,2.74.15,4.31-.1,1.57-.15,3-.15,4.31a65.55,65.55,0,0,0,17.44,45,56.87,56.87,0,0,0,84.22,0,65.52,65.52,0,0,0,17.44-45c0-1.33,0-2.74-.15-4.31.1-1.57.15-3,.15-4.31a65.55,65.55,0,0,0-17.44-45,57.26,57.26,0,0,0-42.11-18.65Z" transform="translate(-99.56 -371.51)"/><path class="cls-12" d="M159.11,485.88c-28.34,0-51.49-23.78-53-53.69,0,1-.07,2-.07,3,0,31.3,23.74,56.68,53,56.68s53-25.38,53-56.68c0-1,0-2-.07-3C210.61,462.1,187.46,485.88,159.11,485.88Z" transform="translate(-99.56 -371.51)"/><g id="SVGID"><g class="cls-13"><g class="cls-14"><path class="cls-3" d="M159.11,380.77c28.93,0,52.42,24.76,53,55.54,0-.38,0-.75,0-1.13,0-31.3-23.74-56.68-53-56.68s-53,25.38-53,56.68c0,.38,0,.76,0,1.14C106.69,405.54,130.19,380.77,159.11,380.77Z" transform="translate(-99.56 -371.51)"/></g></g></g><path class="cls-15" d="M159.11,380.77c28.93,0,52.42,24.76,53,55.54,0-.38,0-.75,0-1.13,0-31.3-23.74-56.68-53-56.68s-53,25.38-53,56.68c0,.38,0,.76,0,1.14C106.69,405.54,130.19,380.77,159.11,380.77Z" transform="translate(-99.56 -371.51)"/><ellipse class="cls-16" cx="59.55" cy="63.67" rx="37.64" ry="40.24"/><g id="SVGID-2" data-name="SVGID"><g class="cls-13"><g class="cls-17"><path class="cls-4" d="M159.11,400.56c17.85,0,32.38,15.53,32.38,34.61S177,469.78,159.11,469.78s-32.38-15.53-32.38-34.61,14.53-34.61,32.38-34.61m0-5.63c-20.79,0-37.64,18-37.64,40.24s16.85,40.24,37.64,40.24,37.64-18,37.64-40.24-16.85-40.24-37.64-40.24Z" transform="translate(-99.56 -371.51)"/></g></g></g><path class="cls-18" d="M159.11,400.56c17.85,0,32.38,15.53,32.38,34.61S177,469.78,159.11,469.78s-32.38-15.53-32.38-34.61,14.53-34.61,32.38-34.61Zm0-5.63c-20.79,0-37.64,18-37.64,40.24s16.85,40.24,37.64,40.24,37.64-18,37.64-40.24-16.85-40.24-37.64-40.24Z" transform="translate(-99.56 -371.51)"/><path class="cls-19" d="M159.11,475.88c-21,0-38.08-18.26-38.08-40.71s17.08-40.71,38.08-40.71,38.08,18.26,38.08,40.71S180.11,475.88,159.11,475.88Zm0-80.48c-20.52,0-37.21,17.84-37.21,39.78S138.59,475,159.11,475s37.21-17.84,37.21-39.78S179.63,395.4,159.11,395.4Z" transform="translate(-99.56 -371.51)"/><path class="cls-20" d="M164.73,408.43l3.72,8.07a6.31,6.31,0,0,0,4.71,3.66l8.33,1.29c5.13.8,7.18,7.54,3.47,11.41l-6,6.28a7,7,0,0,0-1.8,5.92l1.42,8.87c.88,5.46-4.49,9.63-9.08,7.05L162,456.79a5.92,5.92,0,0,0-5.82,0L148.75,461c-4.59,2.58-10-1.59-9.08-7.05l1.42-8.87a7,7,0,0,0-1.8-5.92l-6-6.28c-3.71-3.87-1.66-10.61,3.47-11.41l8.33-1.29a6.31,6.31,0,0,0,4.71-3.66l3.72-8.07A6.1,6.1,0,0,1,164.73,408.43Z" transform="translate(-99.56 -371.51)"/><path class="cls-21" d="M159.11,404.7a6.15,6.15,0,0,1,5.61,3.73l3.72,8.07a6.31,6.31,0,0,0,4.71,3.66l8.33,1.29c5.13.8,7.18,7.54,3.47,11.41l-6,6.28a7,7,0,0,0-1.8,5.92l1.42,8.87a6.59,6.59,0,0,1-6.17,7.84,5.89,5.89,0,0,1-2.91-.78L162,456.8a5.88,5.88,0,0,0-5.82,0L148.74,461a5.89,5.89,0,0,1-2.91.78,6.58,6.58,0,0,1-6.17-7.84l1.42-8.87a7,7,0,0,0-1.8-5.92l-6-6.28c-3.71-3.87-1.66-10.61,3.47-11.41l8.33-1.29a6.31,6.31,0,0,0,4.71-3.66l3.73-8.07a6.17,6.17,0,0,1,5.62-3.73Zm0-1.7a7.77,7.77,0,0,0-7,4.68l-3.73,8.07a4.71,4.71,0,0,1-3.52,2.73l-8.33,1.29a8,8,0,0,0-6.33,5.71,8.73,8.73,0,0,0,2,8.6l6,6.28a5.21,5.21,0,0,1,1.34,4.42l-1.42,8.87a8.63,8.63,0,0,0,1.71,6.8,7.67,7.67,0,0,0,6,3,7.35,7.35,0,0,0,3.65-1l7.45-4.19a4.4,4.4,0,0,1,2.17-.57,4.51,4.51,0,0,1,2.17.57l7.45,4.19a7.35,7.35,0,0,0,3.65,1,7.67,7.67,0,0,0,6-3,8.63,8.63,0,0,0,1.71-6.8l-1.42-8.87a5.21,5.21,0,0,1,1.34-4.42l6-6.28a8.75,8.75,0,0,0,2-8.6,8,8,0,0,0-6.33-5.71l-8.33-1.29a4.74,4.74,0,0,1-3.52-2.73l-3.72-8.07a7.74,7.74,0,0,0-7-4.68Z" transform="translate(-99.56 -371.51)"/></g></g></g></g></svg>