<svg xmlns="http://www.w3.org/2000/svg" xmlns:xlink="http://www.w3.org/1999/xlink" viewBox="0 0 190.89 179.43"><defs><style>.cls-1,.cls-3{fill:#7c3600;}.cls-2{fill:#c86500;}.cls-10,.cls-3,.cls-4,.cls-5,.cls-8{isolation:isolate;}.cls-3{opacity:0.46;}.cls-10,.cls-4,.cls-5{fill:#fcf9ca;}.cls-4{opacity:0.6;}.cls-5{opacity:0.44;}.cls-6{fill:url(#linear-gradient);}.cls-7,.cls-8{fill:#fff;}.cls-8{opacity:0.34;}.cls-9{fill:url(#linear-gradient-2);}.cls-10{opacity:0.22;}</style><linearGradient id="linear-gradient" x1="135.79" y1="-49.79" x2="135.79" y2="92.46" gradientTransform="matrix(1, 0, 0, -1, 0, 109.59)" gradientUnits="userSpaceOnUse"><stop offset="0" stop-color="#e57d00"/><stop offset="1" stop-color="#fde403"/></linearGradient><linearGradient id="linear-gradient-2" x1="53.48" y1="-44.71" x2="53.48" y2="57.49" xlink:href="#linear-gradient"/></defs><g id="Layer_2" data-name="Layer 2"><g id="Layer_1-2" data-name="Layer 1"><path class="cls-1" d="M31.25,179.43l21-31.08,19.83,30.89L94,155v22.46h89.6l-.73-60.68h-6.65c1.27-2.28,2.53-4.65,3.74-7.08a114.16,114.16,0,0,0,6.17-14.86,97.36,97.36,0,0,0,4-16.76,76,76,0,0,0,.38-19A103.09,103.09,0,0,0,186,37.41a70.64,70.64,0,0,0-7.77-16.36c-.39-.58-.8-1.18-1.27-1.84l-.06-.09c-.53-.73-1.09-1.46-1.73-2.25l-.13-.16-.29-.36-.6-.7L174,15.5l-.49-.56-.63-.69c-.21-.22-.41-.44-.63-.66l-.6-.61-.71-.68-.08-.08-.48-.45-.84-.74-.14-.12-.33-.28c-.44-.37-.88-.73-1.34-1.07a44.5,44.5,0,0,0-10.94-6.23A45.57,45.57,0,0,0,146.05.59,74.5,74.5,0,0,0,137,0,52.59,52.59,0,0,0,123.7,1.67,67.11,67.11,0,0,0,112.19,5.8a68.32,68.32,0,0,0-10.14,5.84c-3,2.07-22.77,19.92-25,22L75.4,35.06,72.14,31,54.55,58.17,35.11,27.48.6,69.12l22.89,34.14L0,136.58ZM137.72,82.89a25.18,25.18,0,0,1-2.06,6.29,56.39,56.39,0,0,1-4.87,8.43,72.78,72.78,0,0,1-6.71,8.23,71.59,71.59,0,0,1-7.46,6.88,46,46,0,0,1-6.87,4.58,12.39,12.39,0,0,1-3.93,1.5l-11.34,1.42L80.91,99.94,96.17,76.63l13.45,25.87,11-14.17A40.11,40.11,0,0,1,126.75,82a27,27,0,0,1,3.67-2.58,14.82,14.82,0,0,1,5.28-1.9,6.12,6.12,0,0,1,.74,0l.26,0,.38.58c.13.21.25.42.35.62l.13.26c0,.06.05.12.08.19l0,.08a1,1,0,0,1,.06.2.45.45,0,0,1,0,.08A9.69,9.69,0,0,1,137.72,82.89Z"/><path class="cls-2" d="M170.31,160H107V136.43a22.42,22.42,0,0,0,7.52-2.65A58.56,58.56,0,0,0,123.2,128a85.36,85.36,0,0,0,8.91-8.2,87.06,87.06,0,0,0,8.17-10,73.67,73.67,0,0,0,6.44-11.16A46.29,46.29,0,0,0,150.42,87a32.69,32.69,0,0,0,0-11.42A25.1,25.1,0,0,0,145.72,65a10.87,10.87,0,0,0-7.36-4.78,17.65,17.65,0,0,0-9.1,1.25,34.9,34.9,0,0,0-9.37,5.71,55.25,55.25,0,0,0-8.33,8.62L93.75,41.53a24.14,24.14,0,0,1,2.7-3.79,46.38,46.38,0,0,1,4.86-5,68.9,68.9,0,0,1,6.78-5.35A56.36,56.36,0,0,1,126.2,19.1,42.48,42.48,0,0,1,137,17.75a62.79,62.79,0,0,1,7.86.52,35.45,35.45,0,0,1,8.33,2.13,31.88,31.88,0,0,1,15.27,12.51,51.66,51.66,0,0,1,5.63,11.94,80.9,80.9,0,0,1,3.47,16.93,51.78,51.78,0,0,1-.27,13,74.62,74.62,0,0,1-3.08,12.93A92.67,92.67,0,0,1,169.11,100q-3,5.92-6.13,11.11a160.4,160.4,0,0,1-17.42,23.37H170Z"/><path class="cls-2" d="M180.92,174.05H96.58V123.61l9.47-1.18a14,14,0,0,0,4.65-1.73,49.28,49.28,0,0,0,7.23-4.82,74,74,0,0,0,7.75-7.15,75.25,75.25,0,0,0,7-8.59,59.65,59.65,0,0,0,5.19-9,29.84,29.84,0,0,0,2.39-7.36,14,14,0,0,0,0-5,10.32,10.32,0,0,0-1.94-3.94l-.09-.13a1.2,1.2,0,0,0-1-.61,9.93,9.93,0,0,0-5.07.76,25.63,25.63,0,0,0-6.82,4.19,43.6,43.6,0,0,0-6.58,6.8L110,97.25,78.51,36.66s21.87-19.72,24.77-21.76a65,65,0,0,1,20.94-9.64A50.52,50.52,0,0,1,137,3.65a70.9,70.9,0,0,1,8.83.58,43.92,43.92,0,0,1,10.24,2.61,42.34,42.34,0,0,1,10.37,5.91,44.06,44.06,0,0,1,9.79,10.75A66.59,66.59,0,0,1,183.57,39a99,99,0,0,1,4.3,20.71,71.26,71.26,0,0,1-.35,17.8,92.81,92.81,0,0,1-3.81,16,109.52,109.52,0,0,1-6,14.34c-2.15,4.29-4.41,8.38-6.71,12.16-.08.13-.16.27-.25.4h9.46Zm-27.78-119a40.74,40.74,0,0,1,7.43,17.18,51.67,51.67,0,0,1,0,17.89c-.16.94-.35,1.88-.56,2.82.15-.29.3-.58.44-.88A77.68,77.68,0,0,0,164.69,82a57.38,57.38,0,0,0,2.36-9.87,32.16,32.16,0,0,0,.18-8.3,63.38,63.38,0,0,0-2.64-13.12,36.91,36.91,0,0,0-3.91-8.4,20.28,20.28,0,0,0-4.55-5,23.7,23.7,0,0,0-5.82-3.33,27.11,27.11,0,0,0-6.41-1.64,57.17,57.17,0,0,0-6.9-.46,35.15,35.15,0,0,0-8.81,1.09,48.46,48.46,0,0,0-8.28,3,46.83,46.83,0,0,0-7,4,63.37,63.37,0,0,0-5.19,4l6.13,11.8.56-.47A44.34,44.34,0,0,1,126.31,48a25.59,25.59,0,0,1,13.13-1.73C144.73,47,149.46,50.05,153.14,55.1Z"/><path class="cls-3" d="M183.58,39a66.59,66.59,0,0,0-7.34-15.47q-.6-.9-1.23-1.77l-9,9.11s-6.27,0-2.87,7,10.43,36,6.26,51.82-23.81,43.88-23.81,43.88l25.19-13.19c.08-.13.16-.27.25-.4,2.3-3.78,4.55-7.86,6.71-12.16a110.1,110.1,0,0,0,5.95-14.34,93.74,93.74,0,0,0,3.81-16,70.32,70.32,0,0,0,.35-17.8A98.86,98.86,0,0,0,183.58,39Z"/><path class="cls-4" d="M126.1,21.77c1.57,0,40,9.11,40,9.11l9-9.11a42.83,42.83,0,0,0-8.57-9,42,42,0,0,0-10.37-5.91,43,43,0,0,0-10.24-2.61A72.61,72.61,0,0,0,137,3.69,50.41,50.41,0,0,0,124.23,5.3a65,65,0,0,0-20.94,9.64C100.38,17,78.52,36.7,78.52,36.7l1.42.29,13.83,3.69S124.53,21.74,126.1,21.77Z"/><polygon class="cls-3" points="111.56 75.16 93.75 40.66 78.5 36.68 109.99 97.27 111.56 75.16"/><polygon class="cls-3" points="180.27 120.4 170 133.6 170 159.38 180.92 174.05 180.27 120.4"/><path class="cls-1" d="M170.31,160l-63.3-.86L96.58,174.05h84.34Z"/><path class="cls-5" d="M128.48,137.7c2.74-1.38,20-18.29,22.43-21.8s4.83-33.37,4.69-34.43S147,62.39,147,62.39L139.06,76a8.69,8.69,0,0,1,1.21,2.86,14,14,0,0,1,0,5,29.43,29.43,0,0,1-2.39,7.36,58.81,58.81,0,0,1-5.19,9,75.25,75.25,0,0,1-7,8.59,74,74,0,0,1-7.75,7.15,49.28,49.28,0,0,1-7.23,4.82,14.21,14.21,0,0,1-4.65,1.73l-9.47,1.18,10.43,12S125.74,139.08,128.48,137.7Z"/><path class="cls-1" d="M139.07,76l6.65-11.64s-4.38-6.91-13.45-4.47a33.78,33.78,0,0,0-14.87,8.85l-5.84,6.42L110,97.27s11.33-16.11,16.66-19.4C138.33,70.66,139.07,76,139.07,76Z"/><polygon class="cls-5" points="180.27 120.4 170 133.6 145.62 133.6 170.81 120.4 180.27 120.4"/><path class="cls-6" d="M170.31,159.38H107V135.81a22.42,22.42,0,0,0,7.52-2.65,58.56,58.56,0,0,0,8.67-5.76,85.36,85.36,0,0,0,8.91-8.2,87.06,87.06,0,0,0,8.17-10A73.67,73.67,0,0,0,146.72,98a46.29,46.29,0,0,0,3.7-11.63,32.69,32.69,0,0,0,0-11.42,25.1,25.1,0,0,0-4.7-10.59,10.87,10.87,0,0,0-7.36-4.78,17.65,17.65,0,0,0-9.1,1.25,34.9,34.9,0,0,0-9.37,5.71,55.25,55.25,0,0,0-8.33,8.62L93.75,40.91a24.14,24.14,0,0,1,2.7-3.79,46.38,46.38,0,0,1,4.86-5,68.9,68.9,0,0,1,6.78-5.35,56.36,56.36,0,0,1,18.11-8.31A42.48,42.48,0,0,1,137,17.13a62.79,62.79,0,0,1,7.86.52,35.45,35.45,0,0,1,8.33,2.13,31.88,31.88,0,0,1,15.27,12.51,51.66,51.66,0,0,1,5.63,11.94,80.9,80.9,0,0,1,3.47,16.93,51.78,51.78,0,0,1-.27,13,74.62,74.62,0,0,1-3.08,12.93,92.67,92.67,0,0,1-5.09,12.25q-3,5.92-6.13,11.11a160.4,160.4,0,0,1-17.42,23.37H170Z"/><path class="cls-7" d="M170,133.6H145.62c-2.19,2.78-4.47,5.52-6.88,8.2h31.35Z"/><path class="cls-7" d="M97,45.06a46.38,46.38,0,0,1,4.86-5,68.9,68.9,0,0,1,6.78-5.35,56.36,56.36,0,0,1,18.11-8.31,42.48,42.48,0,0,1,10.79-1.35,62.79,62.79,0,0,1,7.86.52,35.45,35.45,0,0,1,8.33,2.13A31.88,31.88,0,0,1,169,40.23a51.66,51.66,0,0,1,5.63,11.94,77.43,77.43,0,0,1,3.23,14.92,51.11,51.11,0,0,0-.28-6.19A80.9,80.9,0,0,0,174.08,44,51.06,51.06,0,0,0,168.45,32a31.88,31.88,0,0,0-15.27-12.51,35.45,35.45,0,0,0-8.33-2.13,63,63,0,0,0-7.86-.52,42.48,42.48,0,0,0-10.79,1.35,56.36,56.36,0,0,0-18.11,8.31,68.9,68.9,0,0,0-6.78,5.35,50.48,50.48,0,0,0-4.86,5,24.14,24.14,0,0,0-2.7,3.79l2.65,5.11Z"/><path class="cls-7" d="M150.94,82.92c0-.15-.06-.3-.1-.45a33.49,33.49,0,0,1-.43,3.68,46.29,46.29,0,0,1-3.7,11.63,73.19,73.19,0,0,1-6.44,11.16,86.21,86.21,0,0,1-8.17,10,83.31,83.31,0,0,1-8.91,8.2,57.78,57.78,0,0,1-8.67,5.76,22.42,22.42,0,0,1-7.52,2.65v23.57h.52V143.76a22.42,22.42,0,0,0,7.52-2.65,58.56,58.56,0,0,0,8.67-5.76,85.36,85.36,0,0,0,8.91-8.2,87.06,87.06,0,0,0,8.17-10A73.67,73.67,0,0,0,147.23,106a46.29,46.29,0,0,0,3.7-11.63A32.45,32.45,0,0,0,150.94,82.92Z"/><path class="cls-8" d="M119.89,66.54a34.5,34.5,0,0,1,9.37-5.71,17.74,17.74,0,0,1,9.1-1.25,10.87,10.87,0,0,1,7.36,4.78A25,25,0,0,1,150.42,75a32.33,32.33,0,0,1,.27,9.48,51.38,51.38,0,0,1,23.79,1.8,74.31,74.31,0,0,0,2.8-12.06,51.79,51.79,0,0,0,.27-13,80.9,80.9,0,0,0-3.47-16.93,51.06,51.06,0,0,0-5.63-11.94,31.88,31.88,0,0,0-15.27-12.51,35.45,35.45,0,0,0-8.33-2.13,63,63,0,0,0-7.86-.52,42.48,42.48,0,0,0-10.79,1.35,56.36,56.36,0,0,0-18.11,8.31,68.9,68.9,0,0,0-6.78,5.35,50.48,50.48,0,0,0-4.86,5,24.14,24.14,0,0,0-2.7,3.79l17.81,34.27A54.8,54.8,0,0,1,119.89,66.54Z"/><path class="cls-2" d="M73.6,154.93,52.47,122,30.88,154,18.16,136.54l23.13-32.82L19.08,70.59l14.8-17.86,20.59,32.5L73.13,56.36,83.54,69.44,63.42,100.18l25.37,37.9Z"/><polygon class="cls-2" points="72.36 174.49 52.28 143.19 31.18 174.45 3.66 136.71 27.08 103.49 4.33 69.55 34.89 32.67 54.56 63.72 72.36 36.18 98.08 68.51 77.4 100.1 103.85 139.62 72.36 174.49"/><path class="cls-9" d="M73.6,154.3,52.47,121.38l-21.59,32L18.16,135.91l23.13-32.82L19.08,70,33.88,52.1,54.47,84.6,73.13,55.73,83.54,68.81,63.42,99.55l25.37,37.9Z"/><polygon class="cls-7" points="80.84 72.97 83.55 68.83 73.14 55.75 54.48 84.62 33.89 52.11 19.09 69.97 22.36 74.85 34.42 60.31 55 92.81 73.66 63.94 80.84 72.97"/><polygon class="cls-7" points="63.8 107.54 85.79 140.4 88.64 137.25 63.42 99.58 63.8 107.54"/><polygon class="cls-7" points="18.32 135.69 21.53 140.08 41.98 111.07 41.3 103.11 18.32 135.69"/><polygon class="cls-5" points="3.66 136.71 18.16 135.69 41.3 103.11 27.08 103.49 3.66 136.71"/><polygon class="cls-1" points="30.89 153.99 31.18 174.45 52.25 143.24 52.25 121.73 30.89 153.99"/><polygon class="cls-3" points="52.47 121.39 52.25 121.73 52.25 143.24 52.28 143.19 72.36 174.49 72.57 170.63 73.6 154.3 52.47 121.39"/><polygon class="cls-1" points="88.79 137.25 73.6 154.3 73.6 154.3 72.36 174.49 103.85 139.62 88.79 137.25"/><polygon class="cls-5" points="63.42 99.58 77.4 100.1 103.85 139.62 88.43 136.71 63.42 99.58"/><polygon class="cls-4" points="4.33 69.55 19.09 69.98 33.89 52.12 33.9 52.14 34.89 32.67 4.33 69.55"/><polygon class="cls-4" points="54.48 84.62 73.15 55.87 72.36 36.18 54.56 63.72 54.48 84.62"/><polygon class="cls-10" points="54.48 84.62 54.48 84.62 54.56 63.72 34.89 32.67 33.9 52.14 54.48 84.62"/><polygon class="cls-10" points="83.55 68.83 73.14 56.38 72.36 36.18 98.08 68.51 83.55 68.83"/></g></g></svg>