<svg xmlns="http://www.w3.org/2000/svg" viewBox="0 0 85.8 36.98"><defs><style>.cls-1{fill:#231f20;}</style></defs><g id="Layer_2" data-name="Layer 2"><g id="Layer_1-2" data-name="Layer 1"><path class="cls-1" d="M80.19,5.4c-3.73-3.53-9-5.4-15.3-5.4a22.24,22.24,0,0,0-15,5.35,40.14,40.14,0,0,0-6.74,7.8C38.43,6.4,32.44,0,20.91,0,14.69,0,9.37,2,5.53,5.72A18.58,18.58,0,0,0,0,19.17a16.72,16.72,0,0,0,6.28,13A21.38,21.38,0,0,0,19.74,37a26.19,26.19,0,0,0,16.64-5.35,35.78,35.78,0,0,0,6.69-7C47.55,30.85,53.62,37,64.88,37a22.25,22.25,0,0,0,15.37-5.66A16.89,16.89,0,0,0,85.8,19.18,18.36,18.36,0,0,0,80.19,5.4ZM19.74,30.8c-6.35,0-13.15-4.67-13.15-11.63,0-6.47,4.42-13,14.31-13,9.42,0,13.72,5.78,18.33,12.72C34.44,25.75,29.6,30.8,19.74,30.8ZM79.21,19.17c0,4.83-4.44,11.63-14.32,11.63-8.71,0-13-4.64-17.87-11.86C51.66,12,55.81,6.18,64.89,6.18c4.54,0,8.11,1.2,10.61,3.57a12.5,12.5,0,0,1,3.71,9.39Z"/></g></g></svg>